G04 #@! TF.GenerationSoftware,KiCad,Pcbnew,(5.0.0)*
G04 #@! TF.CreationDate,2020-04-07T20:50:25+09:00*
G04 #@! TF.ProjectId,rokisi,726F6B6973692E6B696361645F706362,rev?*
G04 #@! TF.SameCoordinates,PX41cdb40PY30a32c0*
G04 #@! TF.FileFunction,Soldermask,Top*
G04 #@! TF.FilePolarity,Negative*
%FSLAX46Y46*%
G04 Gerber Fmt 4.6, Leading zero omitted, Abs format (unit mm)*
G04 Created by KiCad (PCBNEW (5.0.0)) date 04/07/20 20:50:25*
%MOMM*%
%LPD*%
G01*
G04 APERTURE LIST*
%ADD10R,2.900000X1.400000*%
%ADD11C,1.924000*%
%ADD12R,1.300000X1.600000*%
%ADD13R,2.100000X2.100000*%
%ADD14O,2.100000X2.100000*%
%ADD15R,1.600000X1.300000*%
%ADD16R,0.700000X1.900000*%
%ADD17R,2.700000X3.700000*%
%ADD18R,1.100000X1.700000*%
%ADD19R,1.600000X1.200000*%
%ADD20R,1.900000X2.400000*%
%ADD21R,4.200000X2.400000*%
%ADD22R,2.150000X0.850000*%
%ADD23R,2.000000X0.650000*%
%ADD24R,0.650000X2.000000*%
%ADD25R,2.300000X1.200000*%
%ADD26R,1.600000X1.150000*%
%ADD27R,2.400000X2.000000*%
%ADD28R,1.150000X1.600000*%
%ADD29O,1.750000X1.750000*%
%ADD30R,1.750000X1.750000*%
%ADD31R,1.700000X1.300000*%
%ADD32R,1.400000X2.900000*%
%ADD33R,1.200000X1.400000*%
%ADD34C,1.750000*%
%ADD35C,1.750000*%
%ADD36C,0.100000*%
%ADD37R,2.100000X1.400000*%
%ADD38R,2.000000X1.400000*%
%ADD39R,1.400000X2.000000*%
%ADD40R,3.000000X1.000000*%
%ADD41O,1.350000X0.700000*%
%ADD42O,0.700000X1.350000*%
%ADD43R,0.600000X1.100000*%
%ADD44R,1.100000X0.600000*%
G04 APERTURE END LIST*
D10*
G04 #@! TO.C,J1*
X7250000Y-16400000D03*
X2750000Y-16400000D03*
G04 #@! TD*
D11*
G04 #@! TO.C,U12*
X61400000Y-44920000D03*
X61400000Y-42380000D03*
X61400000Y-39840000D03*
X61400000Y-37300000D03*
X53780000Y-37300000D03*
X53780000Y-39840000D03*
X53780000Y-42380000D03*
X53780000Y-44920000D03*
G04 #@! TD*
D12*
G04 #@! TO.C,D4*
X17617930Y-41002866D03*
X17617930Y-38802866D03*
G04 #@! TD*
G04 #@! TO.C,D3*
X21067930Y-41002866D03*
X21067930Y-38802866D03*
G04 #@! TD*
G04 #@! TO.C,D5*
X19417930Y-38802866D03*
X19417930Y-41002866D03*
G04 #@! TD*
G04 #@! TO.C,D6*
X15717930Y-38802866D03*
X15717930Y-41002866D03*
G04 #@! TD*
G04 #@! TO.C,R14*
X21067930Y-42952866D03*
X21067930Y-45152866D03*
G04 #@! TD*
G04 #@! TO.C,R15*
X17617930Y-42952866D03*
X17617930Y-45152866D03*
G04 #@! TD*
G04 #@! TO.C,R16*
X19417930Y-45152866D03*
X19417930Y-42952866D03*
G04 #@! TD*
G04 #@! TO.C,R17*
X15717930Y-42902866D03*
X15717930Y-45102866D03*
G04 #@! TD*
D13*
G04 #@! TO.C,CN1*
X69650000Y-70100000D03*
D14*
X69650000Y-67560000D03*
G04 #@! TD*
D15*
G04 #@! TO.C,D1*
X65250000Y-67250000D03*
X63050000Y-67250000D03*
G04 #@! TD*
D16*
G04 #@! TO.C,J4*
X36000000Y-40275000D03*
X36500000Y-40275000D03*
X37000000Y-40275000D03*
X37500000Y-40275000D03*
X38000000Y-40275000D03*
X38500000Y-40275000D03*
D17*
X43650000Y-37825000D03*
X34350000Y-37825000D03*
D16*
X39000000Y-40275000D03*
X40000000Y-40275000D03*
X40500000Y-40275000D03*
X39500000Y-40275000D03*
X41000000Y-40275000D03*
X41500000Y-40275000D03*
X42000000Y-40275000D03*
G04 #@! TD*
D12*
G04 #@! TO.C,R2*
X65750000Y-73100000D03*
X65750000Y-70900000D03*
G04 #@! TD*
D15*
G04 #@! TO.C,R4*
X63000000Y-68900000D03*
X60800000Y-68900000D03*
G04 #@! TD*
D18*
G04 #@! TO.C,U1*
X63290000Y-77276000D03*
X66290000Y-77276000D03*
X67790000Y-77276000D03*
D19*
X69490000Y-77976000D03*
X61790000Y-77976000D03*
X69490000Y-79776000D03*
X61790000Y-79776000D03*
D11*
X67100000Y-78900000D03*
X64052000Y-78900000D03*
G04 #@! TD*
D20*
G04 #@! TO.C,U2*
X31600000Y-75150000D03*
X36200000Y-75150000D03*
X33900000Y-75150000D03*
D21*
X33900000Y-68850000D03*
G04 #@! TD*
G04 #@! TO.C,U3*
X25900000Y-68850000D03*
D20*
X25900000Y-75150000D03*
X28200000Y-75150000D03*
X23600000Y-75150000D03*
G04 #@! TD*
D22*
G04 #@! TO.C,U7*
X52600000Y-72675000D03*
X52600000Y-72025000D03*
X52600000Y-71375000D03*
X52600000Y-70725000D03*
X52600000Y-70075000D03*
X52600000Y-69425000D03*
X52600000Y-68775000D03*
X52600000Y-68125000D03*
X52600000Y-67475000D03*
X52600000Y-66825000D03*
X52600000Y-66175000D03*
X52600000Y-65525000D03*
X45400000Y-65525000D03*
X45400000Y-66175000D03*
X45400000Y-66825000D03*
X45400000Y-67475000D03*
X45400000Y-68125000D03*
X45400000Y-68775000D03*
X45400000Y-69425000D03*
X45400000Y-70075000D03*
X45400000Y-70725000D03*
X45400000Y-71375000D03*
X45400000Y-72025000D03*
X45400000Y-72675000D03*
G04 #@! TD*
D23*
G04 #@! TO.C,U8*
X43450000Y-56150000D03*
X43450000Y-55650000D03*
X43450000Y-55150000D03*
X43450000Y-54650000D03*
X43450000Y-54150000D03*
X43450000Y-53650000D03*
X43450000Y-53150000D03*
X43450000Y-52650000D03*
X43450000Y-52150000D03*
X43450000Y-51650000D03*
X43450000Y-51150000D03*
X43450000Y-50650000D03*
X43450000Y-50150000D03*
X43450000Y-49650000D03*
X43450000Y-49150000D03*
X43450000Y-48650000D03*
D24*
X41450000Y-46650000D03*
X40950000Y-46650000D03*
X40450000Y-46650000D03*
X39950000Y-46650000D03*
X39450000Y-46650000D03*
X38950000Y-46650000D03*
X38450000Y-46650000D03*
X37950000Y-46650000D03*
X37450000Y-46650000D03*
X36950000Y-46650000D03*
X36450000Y-46650000D03*
X35950000Y-46650000D03*
X35450000Y-46650000D03*
X34950000Y-46650000D03*
X34450000Y-46650000D03*
X33950000Y-46650000D03*
D23*
X31950000Y-48650000D03*
X31950000Y-49150000D03*
X31950000Y-49650000D03*
X31950000Y-50150000D03*
X31950000Y-50650000D03*
X31950000Y-51150000D03*
X31950000Y-51650000D03*
X31950000Y-52150000D03*
X31950000Y-52650000D03*
X31950000Y-53150000D03*
X31950000Y-53650000D03*
X31950000Y-54150000D03*
X31950000Y-54650000D03*
X31950000Y-55150000D03*
X31950000Y-55650000D03*
X31950000Y-56150000D03*
D24*
X33950000Y-58150000D03*
X34450000Y-58150000D03*
X34950000Y-58150000D03*
X35450000Y-58150000D03*
X35950000Y-58150000D03*
X36450000Y-58150000D03*
X36950000Y-58150000D03*
X37450000Y-58150000D03*
X37950000Y-58150000D03*
X38450000Y-58150000D03*
X38950000Y-58150000D03*
X39450000Y-58150000D03*
X39950000Y-58150000D03*
X40450000Y-58150000D03*
X40950000Y-58150000D03*
X41450000Y-58150000D03*
G04 #@! TD*
D25*
G04 #@! TO.C,Q1*
X63250000Y-72950000D03*
X63250000Y-71050000D03*
X60250000Y-72000000D03*
G04 #@! TD*
D26*
G04 #@! TO.C,C1*
X45253980Y-59856809D03*
X47153980Y-59856809D03*
G04 #@! TD*
G04 #@! TO.C,C2*
X45253980Y-58256809D03*
X47153980Y-58256809D03*
G04 #@! TD*
G04 #@! TO.C,C3*
X31750000Y-79300000D03*
X33650000Y-79300000D03*
G04 #@! TD*
G04 #@! TO.C,C4*
X33600000Y-77600000D03*
X31700000Y-77600000D03*
G04 #@! TD*
G04 #@! TO.C,C5*
X25750000Y-79200000D03*
X23850000Y-79200000D03*
G04 #@! TD*
G04 #@! TO.C,C6*
X23850000Y-77500000D03*
X25750000Y-77500000D03*
G04 #@! TD*
D27*
G04 #@! TO.C,C7*
X58350000Y-25450000D03*
X54350000Y-25450000D03*
G04 #@! TD*
D28*
G04 #@! TO.C,C8*
X30350000Y-60100000D03*
X30350000Y-58200000D03*
G04 #@! TD*
G04 #@! TO.C,C9*
X28800000Y-60150000D03*
X28800000Y-58250000D03*
G04 #@! TD*
G04 #@! TO.C,C10*
X74350000Y-74950000D03*
X74350000Y-76850000D03*
G04 #@! TD*
G04 #@! TO.C,C11*
X51750000Y-50300000D03*
X51750000Y-48400000D03*
G04 #@! TD*
G04 #@! TO.C,C12*
X50250000Y-48400000D03*
X50250000Y-50300000D03*
G04 #@! TD*
D26*
G04 #@! TO.C,C13*
X74850000Y-11900000D03*
X76750000Y-11900000D03*
G04 #@! TD*
G04 #@! TO.C,C14*
X4050000Y-12200000D03*
X5950000Y-12200000D03*
G04 #@! TD*
G04 #@! TO.C,C15*
X74850000Y-10200000D03*
X76750000Y-10200000D03*
G04 #@! TD*
G04 #@! TO.C,C16*
X30400000Y-43450000D03*
X28500000Y-43450000D03*
G04 #@! TD*
G04 #@! TO.C,C17*
X30450000Y-45050000D03*
X28550000Y-45050000D03*
G04 #@! TD*
G04 #@! TO.C,C18*
X4050000Y-10400000D03*
X5950000Y-10400000D03*
G04 #@! TD*
G04 #@! TO.C,C19*
X41350000Y-44100000D03*
X43250000Y-44100000D03*
G04 #@! TD*
D28*
G04 #@! TO.C,C20*
X50250000Y-46400000D03*
X50250000Y-44500000D03*
G04 #@! TD*
G04 #@! TO.C,C21*
X53200000Y-31800000D03*
X53200000Y-33700000D03*
G04 #@! TD*
D26*
G04 #@! TO.C,C22*
X56450000Y-34000000D03*
X58350000Y-34000000D03*
G04 #@! TD*
D28*
G04 #@! TO.C,C23*
X51550000Y-33700000D03*
X51550000Y-31800000D03*
G04 #@! TD*
D29*
G04 #@! TO.C,CN2*
X67600000Y-61000000D03*
D30*
X69600000Y-61000000D03*
G04 #@! TD*
G04 #@! TO.C,CN3*
X61500000Y-61000000D03*
D29*
X63500000Y-61000000D03*
G04 #@! TD*
D31*
G04 #@! TO.C,D2*
X20450000Y-25750000D03*
X20450000Y-27200000D03*
X24900000Y-25800000D03*
X24900000Y-27200000D03*
G04 #@! TD*
D10*
G04 #@! TO.C,J3*
X77850000Y-16400000D03*
X73350000Y-16400000D03*
G04 #@! TD*
D32*
G04 #@! TO.C,J6*
X6900000Y-37850000D03*
X6900000Y-42350000D03*
G04 #@! TD*
D33*
G04 #@! TO.C,J7*
X68900000Y-37700000D03*
X68900000Y-39200000D03*
X68900000Y-41000000D03*
X68900000Y-42500000D03*
G04 #@! TD*
D34*
G04 #@! TO.C,J8*
X8371573Y-29828427D03*
D35*
X8371573Y-29828427D02*
X8371573Y-29828427D01*
D34*
X9785787Y-28414213D03*
D35*
X9785787Y-28414213D02*
X9785787Y-28414213D01*
D34*
X11200000Y-27000000D03*
D35*
X11200000Y-27000000D02*
X11200000Y-27000000D01*
D34*
X12614214Y-25585786D03*
D36*
G36*
X11376777Y-25585786D02*
X12614214Y-24348349D01*
X13851651Y-25585786D01*
X12614214Y-26823223D01*
X11376777Y-25585786D01*
X11376777Y-25585786D01*
G37*
G04 #@! TD*
D32*
G04 #@! TO.C,J9*
X71100000Y-42350000D03*
X71100000Y-37850000D03*
G04 #@! TD*
D33*
G04 #@! TO.C,J10*
X9100000Y-37700000D03*
X9100000Y-39200000D03*
X9100000Y-41000000D03*
X9100000Y-42500000D03*
G04 #@! TD*
D34*
G04 #@! TO.C,J11*
X65371573Y-25471573D03*
D36*
G36*
X65371573Y-26709010D02*
X64134136Y-25471573D01*
X65371573Y-24234136D01*
X66609010Y-25471573D01*
X65371573Y-26709010D01*
X65371573Y-26709010D01*
G37*
D34*
X66785787Y-26885787D03*
D35*
X66785787Y-26885787D02*
X66785787Y-26885787D01*
D34*
X68200000Y-28300000D03*
D35*
X68200000Y-28300000D02*
X68200000Y-28300000D01*
D34*
X69614214Y-29714214D03*
D35*
X69614214Y-29714214D02*
X69614214Y-29714214D01*
G04 #@! TD*
D13*
G04 #@! TO.C,J12*
X7650000Y-67550000D03*
D14*
X7650000Y-65010000D03*
X7650000Y-62470000D03*
G04 #@! TD*
D15*
G04 #@! TO.C,R3*
X48350000Y-63450000D03*
X46150000Y-63450000D03*
G04 #@! TD*
G04 #@! TO.C,R5*
X50350000Y-63450000D03*
X52550000Y-63450000D03*
G04 #@! TD*
G04 #@! TO.C,R8*
X28450000Y-41850000D03*
X30650000Y-41850000D03*
G04 #@! TD*
G04 #@! TO.C,R9*
X24100000Y-35000000D03*
X21900000Y-35000000D03*
G04 #@! TD*
D12*
G04 #@! TO.C,R10*
X16000000Y-35250001D03*
X16000000Y-33050001D03*
G04 #@! TD*
G04 #@! TO.C,R11*
X27700000Y-35150000D03*
X27700000Y-32950000D03*
G04 #@! TD*
G04 #@! TO.C,R12*
X12700000Y-79300000D03*
X12700000Y-77100000D03*
G04 #@! TD*
G04 #@! TO.C,R13*
X17950000Y-33050000D03*
X17950000Y-35250000D03*
G04 #@! TD*
D37*
G04 #@! TO.C,SW1*
X72000000Y-74950000D03*
X72000000Y-78250000D03*
G04 #@! TD*
D38*
G04 #@! TO.C,SW2*
X20900000Y-29925000D03*
X25100000Y-29925000D03*
X20900000Y-32075000D03*
X25100000Y-32075000D03*
G04 #@! TD*
D39*
G04 #@! TO.C,SW3*
X10275000Y-74900000D03*
X10275000Y-79100000D03*
X8125000Y-74900000D03*
X8125000Y-79100000D03*
G04 #@! TD*
D40*
G04 #@! TO.C,U4*
X49300000Y-55100000D03*
X49300000Y-53900000D03*
X49300000Y-52700000D03*
G04 #@! TD*
D41*
G04 #@! TO.C,U9*
X77175000Y-7250000D03*
X77175000Y-6750000D03*
X77175000Y-6250000D03*
X77175000Y-5750000D03*
D42*
X76350000Y-4925000D03*
X75850000Y-4925000D03*
X75350000Y-4925000D03*
X74850000Y-4925000D03*
D41*
X74025000Y-5750000D03*
X74025000Y-6250000D03*
X74025000Y-6750000D03*
X74025000Y-7250000D03*
D42*
X74850000Y-8075000D03*
X75350000Y-8075000D03*
X75850000Y-8075000D03*
X76350000Y-8075000D03*
G04 #@! TD*
G04 #@! TO.C,U10*
X5750000Y-8075000D03*
X5250000Y-8075000D03*
X4750000Y-8075000D03*
X4250000Y-8075000D03*
D41*
X3425000Y-7250000D03*
X3425000Y-6750000D03*
X3425000Y-6250000D03*
X3425000Y-5750000D03*
D42*
X4250000Y-4925000D03*
X4750000Y-4925000D03*
X5250000Y-4925000D03*
X5750000Y-4925000D03*
D41*
X6575000Y-5750000D03*
X6575000Y-6250000D03*
X6575000Y-6750000D03*
X6575000Y-7250000D03*
G04 #@! TD*
D43*
G04 #@! TO.C,U11*
X58350000Y-29200000D03*
X57950000Y-29200000D03*
X57550000Y-29200000D03*
X57150000Y-29200000D03*
X56750000Y-29200000D03*
X56350000Y-29200000D03*
D44*
X55700000Y-29850000D03*
X55700000Y-30250000D03*
X55700000Y-30650000D03*
X55700000Y-31050000D03*
X55700000Y-31450000D03*
X55700000Y-31850000D03*
D43*
X56350000Y-32500000D03*
X56750000Y-32500000D03*
X57150000Y-32500000D03*
X57550000Y-32500000D03*
X57950000Y-32500000D03*
X58350000Y-32500000D03*
D44*
X59000000Y-31850000D03*
X59000000Y-31450000D03*
X59000000Y-31050000D03*
X59000000Y-30650000D03*
X59000000Y-30250000D03*
X59000000Y-29850000D03*
G04 #@! TD*
D28*
G04 #@! TO.C,C24*
X40350000Y-68300000D03*
X40350000Y-70200000D03*
G04 #@! TD*
M02*
