G04 #@! TF.GenerationSoftware,KiCad,Pcbnew,(5.0.0)*
G04 #@! TF.CreationDate,2020-04-07T20:50:25+09:00*
G04 #@! TF.ProjectId,rokisi,726F6B6973692E6B696361645F706362,rev?*
G04 #@! TF.SameCoordinates,PX41cdb40PY30a32c0*
G04 #@! TF.FileFunction,Copper,L2,Bot,Signal*
G04 #@! TF.FilePolarity,Positive*
%FSLAX46Y46*%
G04 Gerber Fmt 4.6, Leading zero omitted, Abs format (unit mm)*
G04 Created by KiCad (PCBNEW (5.0.0)) date 04/07/20 20:50:25*
%MOMM*%
%LPD*%
G01*
G04 APERTURE LIST*
G04 #@! TA.AperFunction,ComponentPad*
%ADD10C,1.524000*%
G04 #@! TD*
G04 #@! TA.AperFunction,ComponentPad*
%ADD11R,1.700000X1.700000*%
G04 #@! TD*
G04 #@! TA.AperFunction,ComponentPad*
%ADD12O,1.700000X1.700000*%
G04 #@! TD*
G04 #@! TA.AperFunction,ComponentPad*
%ADD13O,1.350000X1.350000*%
G04 #@! TD*
G04 #@! TA.AperFunction,ComponentPad*
%ADD14R,1.350000X1.350000*%
G04 #@! TD*
G04 #@! TA.AperFunction,SMDPad,CuDef*
%ADD15R,1.000000X0.800000*%
G04 #@! TD*
G04 #@! TA.AperFunction,ComponentPad*
%ADD16C,1.350000*%
G04 #@! TD*
G04 #@! TA.AperFunction,Conductor*
%ADD17C,1.350000*%
G04 #@! TD*
G04 #@! TA.AperFunction,Conductor*
%ADD18C,0.100000*%
G04 #@! TD*
G04 #@! TA.AperFunction,ViaPad*
%ADD19C,0.800000*%
G04 #@! TD*
G04 #@! TA.AperFunction,Conductor*
%ADD20C,0.250000*%
G04 #@! TD*
G04 #@! TA.AperFunction,Conductor*
%ADD21C,0.800000*%
G04 #@! TD*
G04 #@! TA.AperFunction,Conductor*
%ADD22C,0.500000*%
G04 #@! TD*
G04 #@! TA.AperFunction,Conductor*
%ADD23C,0.200000*%
G04 #@! TD*
G04 #@! TA.AperFunction,Conductor*
%ADD24C,0.254000*%
G04 #@! TD*
G04 APERTURE END LIST*
D10*
G04 #@! TO.P,U12,1*
G04 #@! TO.N,+3V3*
X61400000Y-44920000D03*
G04 #@! TO.P,U12,2*
G04 #@! TO.N,gyro_clk*
X61400000Y-42380000D03*
G04 #@! TO.P,U12,3*
G04 #@! TO.N,gyro_mosi*
X61400000Y-39840000D03*
G04 #@! TO.P,U12,4*
G04 #@! TO.N,gyro_miso*
X61400000Y-37300000D03*
G04 #@! TO.P,U12,5*
G04 #@! TO.N,l3gd20_cs*
X53780000Y-37300000D03*
G04 #@! TO.P,U12,6*
G04 #@! TO.N,Net-(U12-Pad6)*
X53780000Y-39840000D03*
G04 #@! TO.P,U12,7*
G04 #@! TO.N,Net-(U12-Pad7)*
X53780000Y-42380000D03*
G04 #@! TO.P,U12,8*
G04 #@! TO.N,GND*
X53780000Y-44920000D03*
G04 #@! TD*
D11*
G04 #@! TO.P,CN1,1*
G04 #@! TO.N,Net-(CN1-Pad1)*
X69650000Y-70100000D03*
D12*
G04 #@! TO.P,CN1,2*
G04 #@! TO.N,GND*
X69650000Y-67560000D03*
G04 #@! TD*
D10*
G04 #@! TO.P,U1,*
G04 #@! TO.N,*
X67100000Y-78900000D03*
X64052000Y-78900000D03*
G04 #@! TD*
D13*
G04 #@! TO.P,CN2,2*
G04 #@! TO.N,AO2*
X67600000Y-61000000D03*
D14*
G04 #@! TO.P,CN2,1*
G04 #@! TO.N,AO1*
X69600000Y-61000000D03*
G04 #@! TD*
G04 #@! TO.P,CN3,1*
G04 #@! TO.N,BO1*
X61500000Y-61000000D03*
D13*
G04 #@! TO.P,CN3,2*
G04 #@! TO.N,BO2*
X63500000Y-61000000D03*
G04 #@! TD*
D15*
G04 #@! TO.P,J2,4*
G04 #@! TO.N,LEFT_MOSI*
X7400000Y-16400000D03*
G04 #@! TO.P,J2,3*
G04 #@! TO.N,LEFT_MISO*
X5900000Y-16400000D03*
G04 #@! TO.P,J2,2*
G04 #@! TO.N,LEFT_SCLK*
X4100000Y-16400000D03*
G04 #@! TO.P,J2,1*
G04 #@! TO.N,LEFT_CS*
X2600000Y-16400000D03*
G04 #@! TD*
G04 #@! TO.P,J5,1*
G04 #@! TO.N,RIGHT_CS*
X73200000Y-16400000D03*
G04 #@! TO.P,J5,2*
G04 #@! TO.N,RIGHT_SCLK*
X74700000Y-16400000D03*
G04 #@! TO.P,J5,3*
G04 #@! TO.N,RIGHT_MISO*
X76500000Y-16400000D03*
G04 #@! TO.P,J5,4*
G04 #@! TO.N,RIGHT_MOSI*
X78000000Y-16400000D03*
G04 #@! TD*
D16*
G04 #@! TO.P,J8,4*
G04 #@! TO.N,led_left*
X8371573Y-29828427D03*
D17*
G04 #@! TD*
G04 #@! TO.N,led_left*
G04 #@! TO.C,J8*
X8371573Y-29828427D02*
X8371573Y-29828427D01*
D16*
G04 #@! TO.P,J8,3*
G04 #@! TO.N,ad11*
X9785787Y-28414213D03*
D17*
G04 #@! TD*
G04 #@! TO.N,ad11*
G04 #@! TO.C,J8*
X9785787Y-28414213D02*
X9785787Y-28414213D01*
D16*
G04 #@! TO.P,J8,2*
G04 #@! TO.N,GND*
X11200000Y-27000000D03*
D17*
G04 #@! TD*
G04 #@! TO.N,GND*
G04 #@! TO.C,J8*
X11200000Y-27000000D02*
X11200000Y-27000000D01*
D16*
G04 #@! TO.P,J8,1*
G04 #@! TO.N,+3V3*
X12614214Y-25585786D03*
D18*
G04 #@! TD*
G04 #@! TO.N,+3V3*
G04 #@! TO.C,J8*
G36*
X11659620Y-25585786D02*
X12614214Y-24631192D01*
X13568808Y-25585786D01*
X12614214Y-26540380D01*
X11659620Y-25585786D01*
X11659620Y-25585786D01*
G37*
D16*
G04 #@! TO.P,J11,1*
G04 #@! TO.N,+3V3*
X65371573Y-25471573D03*
D18*
G04 #@! TD*
G04 #@! TO.N,+3V3*
G04 #@! TO.C,J11*
G36*
X65371573Y-26426167D02*
X64416979Y-25471573D01*
X65371573Y-24516979D01*
X66326167Y-25471573D01*
X65371573Y-26426167D01*
X65371573Y-26426167D01*
G37*
D16*
G04 #@! TO.P,J11,2*
G04 #@! TO.N,GND*
X66785787Y-26885787D03*
D17*
G04 #@! TD*
G04 #@! TO.N,GND*
G04 #@! TO.C,J11*
X66785787Y-26885787D02*
X66785787Y-26885787D01*
D16*
G04 #@! TO.P,J11,3*
G04 #@! TO.N,ad12*
X68200000Y-28300000D03*
D17*
G04 #@! TD*
G04 #@! TO.N,ad12*
G04 #@! TO.C,J11*
X68200000Y-28300000D02*
X68200000Y-28300000D01*
D16*
G04 #@! TO.P,J11,4*
G04 #@! TO.N,led_right*
X69614214Y-29714214D03*
D17*
G04 #@! TD*
G04 #@! TO.N,led_right*
G04 #@! TO.C,J11*
X69614214Y-29714214D02*
X69614214Y-29714214D01*
D11*
G04 #@! TO.P,J12,1*
G04 #@! TO.N,GND*
X7650000Y-67550000D03*
D12*
G04 #@! TO.P,J12,2*
G04 #@! TO.N,usart1_rx*
X7650000Y-65010000D03*
G04 #@! TO.P,J12,3*
G04 #@! TO.N,usart1_tx*
X7650000Y-62470000D03*
G04 #@! TD*
D19*
G04 #@! TO.N,GND*
X42795735Y-68812796D03*
X40400000Y-67150000D03*
X49900000Y-68000000D03*
X49900000Y-70100000D03*
X49900000Y-69050000D03*
X42850000Y-45200000D03*
X47600000Y-45500000D03*
X29600000Y-34400000D03*
X20400000Y-35000000D03*
X60100000Y-33800000D03*
X54800000Y-33500000D03*
X61600000Y-81000000D03*
X56800000Y-81100000D03*
X50600000Y-81100000D03*
X43600000Y-81100000D03*
X37300000Y-81000000D03*
X29500000Y-81000000D03*
X22100000Y-81000000D03*
X7900000Y-81000000D03*
X16500000Y-81000000D03*
X1000000Y-74600000D03*
X1600000Y-58300000D03*
X1400000Y-50900000D03*
X1200000Y-35800000D03*
X5900000Y-31100000D03*
X18100000Y-22800000D03*
X24200000Y-22800000D03*
X43000000Y-23000000D03*
X51900000Y-22800000D03*
X59900000Y-22900000D03*
X64200000Y-23000000D03*
X71600000Y-30400000D03*
X76800000Y-35500000D03*
X77100000Y-45500000D03*
X77200000Y-51100000D03*
X77100000Y-57500000D03*
X77200000Y-62500000D03*
X77000000Y-74300000D03*
X70500000Y-81100000D03*
X72000000Y-59100000D03*
X65600000Y-59100000D03*
X55900000Y-58400000D03*
X56000000Y-51700000D03*
X65600000Y-49300000D03*
X72300000Y-49200000D03*
X69900000Y-45000000D03*
X4700000Y-49400000D03*
X4200000Y-44300000D03*
X6700000Y-48000000D03*
X13700000Y-47900000D03*
X11800000Y-44800000D03*
X20400000Y-59700000D03*
X16000000Y-59600000D03*
X10100000Y-59500000D03*
X5600000Y-59300000D03*
X19700000Y-71100000D03*
X12700000Y-73400000D03*
X21600000Y-73300000D03*
X10400000Y-71200000D03*
X6700000Y-76800000D03*
X13700000Y-62400000D03*
X11600000Y-61700000D03*
X24800000Y-57600000D03*
X28600000Y-56000000D03*
X30900000Y-64700000D03*
X43700000Y-40700000D03*
X47700000Y-42000000D03*
X47600000Y-37100000D03*
X37100000Y-35400000D03*
X41400000Y-38500000D03*
X37200000Y-38400000D03*
X41400000Y-35500000D03*
X45100000Y-32100000D03*
X33900000Y-32600000D03*
X50600000Y-27800000D03*
X64500000Y-32400000D03*
X64600000Y-37900000D03*
X15000000Y-28600000D03*
X17900000Y-26800000D03*
X17000000Y-31000000D03*
X23200000Y-33400000D03*
X26000000Y-37200000D03*
X28700000Y-31400000D03*
X8900000Y-34800000D03*
X70300000Y-35300000D03*
X56100000Y-63100000D03*
X48900000Y-73300000D03*
X72900000Y-64500000D03*
X35800000Y-22900000D03*
G04 #@! TO.N,+3V3*
X43500000Y-69700000D03*
X40800000Y-71350000D03*
X40750000Y-44475000D03*
X48800000Y-46300000D03*
X54600000Y-61000000D03*
X46800000Y-56800000D03*
X50875000Y-59700000D03*
X54512653Y-52912653D03*
X46700000Y-34400000D03*
X21800000Y-65900000D03*
X21800000Y-64500000D03*
X5300000Y-38100000D03*
X5400000Y-37000000D03*
G04 #@! TO.N,Net-(C10-Pad2)*
X73400000Y-74950000D03*
X45100000Y-52925000D03*
X49400000Y-60100000D03*
X54600000Y-62600000D03*
G04 #@! TO.N,RIGHT_VDD*
X73900000Y-11800000D03*
X73900000Y-14600000D03*
G04 #@! TO.N,LEFT_VDD*
X3200000Y-12200000D03*
X3400000Y-14800000D03*
G04 #@! TO.N,LEFT_GND*
X3300000Y-4800000D03*
X5950000Y-11300000D03*
G04 #@! TO.N,LEFT_CS*
X2200000Y-14300000D03*
G04 #@! TO.N,LEFT_SCLK*
X3200000Y-8300000D03*
G04 #@! TO.N,LEFT_MISO*
X5700000Y-15000000D03*
G04 #@! TO.N,LEFT_MOSI*
X7600000Y-13900000D03*
G04 #@! TO.N,RIGHT_GND*
X74000000Y-4800000D03*
X76750000Y-11100000D03*
G04 #@! TO.N,RIGHT_MOSI*
X78300000Y-12700000D03*
G04 #@! TO.N,RIGHT_MISO*
X76400000Y-15200000D03*
G04 #@! TO.N,RIGHT_SCLK*
X73900000Y-8300000D03*
G04 #@! TO.N,RIGHT_CS*
X72787043Y-14995704D03*
G04 #@! TO.N,spi1_cs*
X66800000Y-42650000D03*
X36700000Y-64750000D03*
G04 #@! TO.N,spi1_clk*
X67650000Y-41300000D03*
X38150000Y-64950000D03*
G04 #@! TO.N,spi1_miso*
X66450000Y-41300000D03*
X37750000Y-63400000D03*
G04 #@! TO.N,spi1_mosi*
X67000000Y-38250000D03*
X38600000Y-62850000D03*
G04 #@! TO.N,ad11*
X29800000Y-40100000D03*
G04 #@! TO.N,led_left*
X12400000Y-39800000D03*
G04 #@! TO.N,spi2_mosi*
X27100000Y-48600000D03*
X10300000Y-42500000D03*
G04 #@! TO.N,spi2_miso*
X10300000Y-41000000D03*
X28000000Y-47600000D03*
G04 #@! TO.N,spi2_clk*
X28900000Y-48700000D03*
X10400000Y-39200000D03*
G04 #@! TO.N,spi2_cs*
X10400000Y-37700000D03*
X30000000Y-48400000D03*
G04 #@! TO.N,led_right*
X33700000Y-42700000D03*
X61700000Y-28700000D03*
X33700000Y-42700000D03*
G04 #@! TO.N,ad12*
X48850000Y-47550000D03*
G04 #@! TO.N,boot*
X12700000Y-75300000D03*
X39000000Y-61400000D03*
G04 #@! TO.N,batt_analog*
X46200000Y-52825000D03*
X49500000Y-61374694D03*
G04 #@! TO.N,pushsw1*
X32712653Y-43775000D03*
X24100000Y-36400000D03*
G04 #@! TO.N,fled_red*
X26900000Y-55700000D03*
X24400000Y-44700000D03*
G04 #@! TO.N,fled_blue*
X25700000Y-54500000D03*
X26300000Y-44300000D03*
G04 #@! TO.N,fled_green*
X25400000Y-45500000D03*
X24800000Y-55400000D03*
G04 #@! TO.N,pwmb*
X43800000Y-66750000D03*
X40500000Y-65750000D03*
G04 #@! TO.N,bin2*
X41750000Y-53000000D03*
X44200000Y-62000000D03*
G04 #@! TO.N,bin1*
X43250000Y-61400000D03*
X41350000Y-54050000D03*
G04 #@! TO.N,ain1*
X41342883Y-55156505D03*
X42202158Y-61225000D03*
G04 #@! TO.N,ain2*
X41400000Y-62000000D03*
X41362347Y-56162347D03*
G04 #@! TO.N,pwma*
X43000000Y-72250000D03*
X38800000Y-69300000D03*
G04 #@! TO.N,gyro_miso*
X37350000Y-55150000D03*
X54327827Y-30667778D03*
G04 #@! TO.N,mpu_cs*
X47100000Y-50250000D03*
X60200000Y-35850000D03*
G04 #@! TO.N,gyro_clk*
X38950000Y-54300000D03*
X59175000Y-42700000D03*
G04 #@! TO.N,gyro_mosi*
X36650000Y-56400000D03*
X63700000Y-40000000D03*
G04 #@! TO.N,l3gd20_cs*
X48250000Y-50300000D03*
G04 #@! TD*
D20*
G04 #@! TO.N,GND*
X42795735Y-68812796D02*
X41132939Y-67150000D01*
X41132939Y-67150000D02*
X40400000Y-67150000D01*
D21*
X49900000Y-68000000D02*
X49900000Y-70100000D01*
X49900000Y-69050000D02*
X54600000Y-69050000D01*
X56090000Y-67560000D02*
X69650000Y-67560000D01*
X54600000Y-69050000D02*
X56090000Y-67560000D01*
D20*
X43150000Y-45500000D02*
X42850000Y-45200000D01*
X47600000Y-45500000D02*
X43150000Y-45500000D01*
X29600000Y-34400000D02*
X21000000Y-34400000D01*
X21000000Y-34400000D02*
X20400000Y-35000000D01*
X19200000Y-35000000D02*
X11200000Y-27000000D01*
X20400000Y-35000000D02*
X19200000Y-35000000D01*
D22*
G04 #@! TO.N,+3V3*
X42450000Y-69700000D02*
X40800000Y-71350000D01*
X43500000Y-69700000D02*
X42450000Y-69700000D01*
X47865685Y-65900000D02*
X49700000Y-65900000D01*
X43500000Y-69700000D02*
X44065685Y-69700000D01*
X44065685Y-69700000D02*
X47865685Y-65900000D01*
X47365685Y-56800000D02*
X46800000Y-56800000D01*
X48540685Y-56800000D02*
X47365685Y-56800000D01*
X50875000Y-59134315D02*
X48540685Y-56800000D01*
X50875000Y-59700000D02*
X50875000Y-59134315D01*
X54512653Y-61087347D02*
X54400000Y-61200000D01*
X54512653Y-52912653D02*
X54512653Y-61087347D01*
X49700000Y-65900000D02*
X54400000Y-61200000D01*
X54400000Y-61200000D02*
X54600000Y-61000000D01*
X48800000Y-36500000D02*
X46700000Y-34400000D01*
X47675001Y-44075001D02*
X48800000Y-45200000D01*
X41149999Y-44075001D02*
X47675001Y-44075001D01*
X40750000Y-44475000D02*
X41149999Y-44075001D01*
X48800000Y-46300000D02*
X48800000Y-45200000D01*
X48800000Y-45200000D02*
X48800000Y-36500000D01*
X5300000Y-37100000D02*
X5400000Y-37000000D01*
X5300000Y-38100000D02*
X5300000Y-37100000D01*
X5300000Y-48300000D02*
X5300000Y-38100000D01*
X6200000Y-49200000D02*
X5300000Y-48300000D01*
X21100000Y-49200000D02*
X6200000Y-49200000D01*
X21800000Y-49900000D02*
X21100000Y-49200000D01*
X21800000Y-65900000D02*
X21800000Y-49900000D01*
D20*
G04 #@! TO.N,Net-(C10-Pad2)*
X46500000Y-60100000D02*
X49400000Y-60100000D01*
X45100000Y-58700000D02*
X46500000Y-60100000D01*
X45100000Y-52925000D02*
X45100000Y-58700000D01*
X48900000Y-71800000D02*
X48900000Y-67434315D01*
X52050000Y-74950000D02*
X48900000Y-71800000D01*
X73400000Y-74950000D02*
X52050000Y-74950000D01*
X49534315Y-66800000D02*
X49200000Y-67134315D01*
X49200000Y-67134315D02*
X48900000Y-67434315D01*
X50400000Y-66800000D02*
X54600000Y-62600000D01*
X49534315Y-66800000D02*
X50400000Y-66800000D01*
G04 #@! TO.N,RIGHT_VDD*
X73900000Y-11800000D02*
X73900000Y-14600000D01*
G04 #@! TO.N,LEFT_VDD*
X3400000Y-12400000D02*
X3200000Y-12200000D01*
X3400000Y-14800000D02*
X3400000Y-12400000D01*
G04 #@! TO.N,LEFT_GND*
X5950000Y-7450000D02*
X5950000Y-11300000D01*
X3300000Y-4800000D02*
X5950000Y-7450000D01*
G04 #@! TO.N,LEFT_CS*
X2600000Y-14700000D02*
X2200000Y-14300000D01*
X2600000Y-16400000D02*
X2600000Y-14700000D01*
G04 #@! TO.N,LEFT_SCLK*
X4100000Y-15750000D02*
X4600000Y-15250000D01*
X4100000Y-16400000D02*
X4100000Y-15750000D01*
X4600000Y-9700000D02*
X3200000Y-8300000D01*
X4600000Y-15250000D02*
X4600000Y-9700000D01*
G04 #@! TO.N,LEFT_MISO*
X5900000Y-15200000D02*
X5700000Y-15000000D01*
X5900000Y-16400000D02*
X5900000Y-15200000D01*
G04 #@! TO.N,LEFT_MOSI*
X7400000Y-16400000D02*
X7400000Y-15750000D01*
X7400000Y-15750000D02*
X7400000Y-14100000D01*
X7400000Y-14100000D02*
X7600000Y-13900000D01*
G04 #@! TO.N,RIGHT_GND*
X76750000Y-7550000D02*
X76750000Y-11100000D01*
X74000000Y-4800000D02*
X76750000Y-7550000D01*
G04 #@! TO.N,RIGHT_MOSI*
X78000000Y-16400000D02*
X78000000Y-13000000D01*
X78000000Y-13000000D02*
X78300000Y-12700000D01*
G04 #@! TO.N,RIGHT_MISO*
X76400000Y-16300000D02*
X76500000Y-16400000D01*
X76400000Y-15200000D02*
X76400000Y-16300000D01*
G04 #@! TO.N,RIGHT_SCLK*
X73900000Y-8300000D02*
X75400000Y-9800000D01*
X75400000Y-9800000D02*
X75400000Y-14400000D01*
X74700000Y-15100000D02*
X74700000Y-16400000D01*
X75400000Y-14400000D02*
X74700000Y-15100000D01*
G04 #@! TO.N,RIGHT_CS*
X73200000Y-15408661D02*
X72787043Y-14995704D01*
X73200000Y-16400000D02*
X73200000Y-15408661D01*
G04 #@! TO.N,spi1_cs*
X63650000Y-48900000D02*
X66800000Y-45750000D01*
X36700000Y-64750000D02*
X37225001Y-64224999D01*
X66800000Y-45750000D02*
X66800000Y-42650000D01*
X37225001Y-64224999D02*
X49275001Y-64224999D01*
X49275001Y-64224999D02*
X53000000Y-60500000D01*
X53000000Y-60500000D02*
X53000000Y-52650000D01*
X53000000Y-52650000D02*
X56750000Y-48900000D01*
X56750000Y-48900000D02*
X63650000Y-48900000D01*
G04 #@! TO.N,spi1_clk*
X49400000Y-64950000D02*
X38150000Y-64950000D01*
X67650000Y-41300000D02*
X67650000Y-45850000D01*
X67650000Y-45850000D02*
X64050000Y-49450000D01*
X56950000Y-49450000D02*
X53600000Y-52800000D01*
X64050000Y-49450000D02*
X56950000Y-49450000D01*
X53600000Y-52800000D02*
X53600000Y-60750000D01*
X53600000Y-60750000D02*
X49400000Y-64950000D01*
G04 #@! TO.N,spi1_miso*
X48950000Y-63650000D02*
X38000000Y-63650000D01*
X52300000Y-60300000D02*
X48950000Y-63650000D01*
X66450000Y-41300000D02*
X65750000Y-42000000D01*
X65750000Y-42000000D02*
X65750000Y-45850000D01*
X65750000Y-45850000D02*
X63350000Y-48250000D01*
X38000000Y-63650000D02*
X37750000Y-63400000D01*
X63350000Y-48250000D02*
X56500000Y-48250000D01*
X56500000Y-48250000D02*
X52300000Y-52450000D01*
X52300000Y-52450000D02*
X52300000Y-60300000D01*
G04 #@! TO.N,spi1_mosi*
X65150000Y-39534315D02*
X66434315Y-38250000D01*
X65150000Y-45650000D02*
X65150000Y-39534315D01*
X38600000Y-62850000D02*
X49050000Y-62850000D01*
X49050000Y-62850000D02*
X51600000Y-60300000D01*
X51600000Y-52300000D02*
X56200000Y-47700000D01*
X66434315Y-38250000D02*
X67000000Y-38250000D01*
X56200000Y-47700000D02*
X63100000Y-47700000D01*
X51600000Y-60300000D02*
X51600000Y-52300000D01*
X63100000Y-47700000D02*
X65150000Y-45650000D01*
G04 #@! TO.N,ad11*
X13200000Y-31828426D02*
X9785787Y-28414213D01*
X13200000Y-39100000D02*
X13200000Y-31828426D01*
X14200000Y-40100000D02*
X13200000Y-39100000D01*
X27200000Y-40100000D02*
X29800000Y-40100000D01*
X27200000Y-40100000D02*
X14200000Y-40100000D01*
G04 #@! TO.N,led_left*
X9046572Y-30503426D02*
X9203426Y-30503426D01*
X8371573Y-29828427D02*
X9046572Y-30503426D01*
X9203426Y-30503426D02*
X12400000Y-33700000D01*
X12400000Y-33700000D02*
X12400000Y-39800000D01*
G04 #@! TO.N,spi2_mosi*
X27100000Y-48600000D02*
X27100000Y-48034315D01*
X27100000Y-48034315D02*
X27100000Y-43900000D01*
X27100000Y-43900000D02*
X25700000Y-42500000D01*
X25700000Y-42500000D02*
X10300000Y-42500000D01*
G04 #@! TO.N,spi2_miso*
X28000000Y-43700000D02*
X28000000Y-47600000D01*
X26200000Y-41900000D02*
X28000000Y-43700000D01*
X11200000Y-41900000D02*
X26200000Y-41900000D01*
X10300000Y-41000000D02*
X11200000Y-41900000D01*
G04 #@! TO.N,spi2_clk*
X28900000Y-48134315D02*
X28900000Y-48700000D01*
X28900000Y-43500000D02*
X28900000Y-48134315D01*
X26700000Y-41300000D02*
X28900000Y-43500000D01*
X11800000Y-41300000D02*
X26700000Y-41300000D01*
X10400000Y-39900000D02*
X11800000Y-41300000D01*
X10400000Y-39200000D02*
X10400000Y-39900000D01*
G04 #@! TO.N,spi2_cs*
X30000000Y-43700000D02*
X30000000Y-48400000D01*
X27000000Y-40700000D02*
X30000000Y-43700000D01*
X12000000Y-40700000D02*
X27000000Y-40700000D01*
X11400000Y-40100000D02*
X12000000Y-40700000D01*
X11400000Y-38700000D02*
X11400000Y-40100000D01*
X10400000Y-37700000D02*
X11400000Y-38700000D01*
G04 #@! TO.N,led_right*
X33700000Y-34900000D02*
X35300000Y-33300000D01*
X35300000Y-33300000D02*
X49100000Y-33300000D01*
X49100000Y-33300000D02*
X53700000Y-28700000D01*
X53700000Y-28700000D02*
X61700000Y-28700000D01*
X33700000Y-40500000D02*
X33700000Y-42700000D01*
X33700000Y-40500000D02*
X33700000Y-34900000D01*
G04 #@! TO.N,ad12*
X49750000Y-47550000D02*
X48850000Y-47550000D01*
X50700000Y-46600000D02*
X49750000Y-47550000D01*
X50700000Y-32750000D02*
X50700000Y-46600000D01*
X53800000Y-29650000D02*
X50700000Y-32750000D01*
X66850000Y-29650000D02*
X53800000Y-29650000D01*
X68200000Y-28300000D02*
X66850000Y-29650000D01*
G04 #@! TO.N,boot*
X12700000Y-75300000D02*
X31300000Y-75300000D01*
X31300000Y-75300000D02*
X33700000Y-72900000D01*
X33700000Y-72900000D02*
X33700000Y-62700000D01*
X33700000Y-62700000D02*
X35000000Y-61400000D01*
X35000000Y-61400000D02*
X39000000Y-61400000D01*
G04 #@! TO.N,batt_analog*
X50125001Y-59525001D02*
X49600000Y-59000000D01*
X49600000Y-59000000D02*
X46600000Y-59000000D01*
X46600000Y-59000000D02*
X45800000Y-58200000D01*
X45800001Y-53224999D02*
X46200000Y-52825000D01*
X45800000Y-58200000D02*
X45800001Y-53224999D01*
X50125001Y-60749693D02*
X50125001Y-59900000D01*
X50125001Y-59900000D02*
X50125001Y-59525001D01*
X49500000Y-61374694D02*
X50125001Y-60749693D01*
G04 #@! TO.N,pushsw1*
X32712653Y-42200000D02*
X32712653Y-39112653D01*
X32712653Y-43775000D02*
X32712653Y-42200000D01*
X32712653Y-39112653D02*
X31900000Y-38300000D01*
X31900000Y-38300000D02*
X25100000Y-38300000D01*
X25100000Y-38300000D02*
X24100000Y-37300000D01*
X24100000Y-37300000D02*
X24100000Y-36400000D01*
G04 #@! TO.N,fled_red*
X26900000Y-55700000D02*
X26200000Y-56400000D01*
X26200000Y-56400000D02*
X24500000Y-56400000D01*
X24500000Y-56400000D02*
X23600000Y-55500000D01*
X23600000Y-55500000D02*
X23600000Y-45500000D01*
X23600000Y-45500000D02*
X24400000Y-44700000D01*
G04 #@! TO.N,fled_blue*
X25700000Y-54500000D02*
X26300000Y-53900000D01*
X26300000Y-53900000D02*
X26300000Y-44300000D01*
G04 #@! TO.N,fled_green*
X25400000Y-45500000D02*
X24600000Y-46300000D01*
X24600000Y-46300000D02*
X24600000Y-55200000D01*
X24600000Y-55200000D02*
X24800000Y-55400000D01*
G04 #@! TO.N,pwmb*
X41065685Y-65750000D02*
X40500000Y-65750000D01*
X43365685Y-65750000D02*
X41065685Y-65750000D01*
X43800000Y-66184315D02*
X43365685Y-65750000D01*
X43800000Y-66750000D02*
X43800000Y-66184315D01*
G04 #@! TO.N,bin2*
X41750000Y-53000000D02*
X42149999Y-53399999D01*
X42149999Y-53399999D02*
X44250000Y-55500000D01*
X44250000Y-55500000D02*
X44250000Y-61950000D01*
X44250000Y-61950000D02*
X44200000Y-62000000D01*
G04 #@! TO.N,bin1*
X41438473Y-54050000D02*
X41350000Y-54050000D01*
X43250000Y-61400000D02*
X43250000Y-55861527D01*
X43250000Y-55861527D02*
X41438473Y-54050000D01*
G04 #@! TO.N,ain1*
X41908568Y-55156505D02*
X42200000Y-55447937D01*
X41342883Y-55156505D02*
X41908568Y-55156505D01*
X42200000Y-61222842D02*
X42202158Y-61225000D01*
X42200000Y-57250000D02*
X42200000Y-61222842D01*
X42200000Y-55447937D02*
X42200000Y-57250000D01*
G04 #@! TO.N,ain2*
X41362347Y-61962347D02*
X41400000Y-62000000D01*
X41362347Y-56162347D02*
X41362347Y-61962347D01*
G04 #@! TO.N,pwma*
X40250000Y-72250000D02*
X38800000Y-70800000D01*
X43000000Y-72250000D02*
X40250000Y-72250000D01*
X38800000Y-69300000D02*
X38800000Y-70800000D01*
G04 #@! TO.N,gyro_miso*
X59900000Y-38800000D02*
X61400000Y-37300000D01*
X59400000Y-46400000D02*
X59900000Y-45900000D01*
X59900000Y-45900000D02*
X59900000Y-38800000D01*
X55800000Y-46400000D02*
X59400000Y-46400000D01*
X37350000Y-55150000D02*
X39350000Y-55150000D01*
X39800000Y-54700000D02*
X39800000Y-52600000D01*
X39800000Y-52600000D02*
X40800000Y-51600000D01*
X39350000Y-55150000D02*
X39800000Y-54700000D01*
X40800000Y-51600000D02*
X50600000Y-51600000D01*
X50600000Y-51600000D02*
X55800000Y-46400000D01*
X61400000Y-37300000D02*
X61400000Y-32300000D01*
X59767778Y-30667778D02*
X54327827Y-30667778D01*
X61400000Y-32300000D02*
X59767778Y-30667778D01*
G04 #@! TO.N,mpu_cs*
X47100000Y-50250000D02*
X47499999Y-49850001D01*
X47499999Y-49850001D02*
X47900000Y-49450000D01*
X47900000Y-49450000D02*
X48900000Y-49450000D01*
X48900000Y-49450000D02*
X49450000Y-49450000D01*
X51450000Y-47650000D02*
X51450000Y-37450000D01*
X49650000Y-49450000D02*
X51450000Y-47650000D01*
X48900000Y-49450000D02*
X49650000Y-49450000D01*
D23*
X53050000Y-35850000D02*
X52400000Y-36500000D01*
D20*
X53050000Y-35850000D02*
X52100000Y-36800000D01*
X51450000Y-37450000D02*
X52100000Y-36800000D01*
X52100000Y-36800000D02*
X52400000Y-36500000D01*
X53050000Y-35850000D02*
X51450000Y-37450000D01*
X60200000Y-35850000D02*
X53050000Y-35850000D01*
G04 #@! TO.N,gyro_clk*
X40350000Y-51050000D02*
X50200000Y-51050000D01*
X38950000Y-52450000D02*
X40350000Y-51050000D01*
X38950000Y-54300000D02*
X38950000Y-52450000D01*
X50200000Y-51050000D02*
X55300000Y-45950000D01*
X55300000Y-45950000D02*
X58200000Y-45950000D01*
X59175000Y-44975000D02*
X59175000Y-42700000D01*
X58200000Y-45950000D02*
X59175000Y-44975000D01*
G04 #@! TO.N,gyro_mosi*
X64400000Y-40500000D02*
X63740000Y-39840000D01*
X56050000Y-47000000D02*
X62900000Y-47000000D01*
X50950000Y-52100000D02*
X56050000Y-47000000D01*
X36650000Y-56400000D02*
X37049999Y-56000001D01*
X37049999Y-56000001D02*
X39349999Y-56000001D01*
X62900000Y-47000000D02*
X64400000Y-45500000D01*
X39349999Y-56000001D02*
X40350000Y-55000000D01*
X40350000Y-55000000D02*
X40350000Y-53000000D01*
X40350000Y-53000000D02*
X41250000Y-52100000D01*
X41250000Y-52100000D02*
X50950000Y-52100000D01*
X64400000Y-45500000D02*
X64400000Y-40650000D01*
X64400000Y-40650000D02*
X64400000Y-40500000D01*
D23*
X63540000Y-39840000D02*
X63300000Y-39840000D01*
X63700000Y-40000000D02*
X63540000Y-39840000D01*
D20*
X63740000Y-39840000D02*
X63300000Y-39840000D01*
X63300000Y-39840000D02*
X61400000Y-39840000D01*
G04 #@! TO.N,l3gd20_cs*
X49550000Y-50300000D02*
X52250000Y-47600000D01*
X48250000Y-50300000D02*
X49550000Y-50300000D01*
X52250000Y-38830000D02*
X53780000Y-37300000D01*
X52250000Y-41750000D02*
X52250000Y-38830000D01*
X52250000Y-41750000D02*
X52250000Y-41600000D01*
X52250000Y-47600000D02*
X52250000Y-41750000D01*
G04 #@! TD*
D24*
G04 #@! TO.N,GND*
G36*
X15355923Y-22187677D02*
X15462234Y-22346781D01*
X15621338Y-22453092D01*
X15761642Y-22481000D01*
X15809015Y-22490423D01*
X15856388Y-22481000D01*
X61761642Y-22481000D01*
X61809015Y-22490423D01*
X61996692Y-22453092D01*
X62155796Y-22346781D01*
X62262107Y-22187677D01*
X62274176Y-22127000D01*
X64242305Y-22127000D01*
X64254374Y-22187676D01*
X64360685Y-22346781D01*
X64400846Y-22373616D01*
X77519001Y-35491772D01*
X77519000Y-74800763D01*
X70800764Y-81519000D01*
X69297274Y-81519000D01*
X68459141Y-79842736D01*
X68453092Y-79812323D01*
X68416712Y-79757877D01*
X68409033Y-79742519D01*
X68390455Y-79718581D01*
X68346781Y-79653219D01*
X68332131Y-79643430D01*
X68321326Y-79629508D01*
X68253041Y-79590583D01*
X68187677Y-79546908D01*
X68170390Y-79543469D01*
X68155085Y-79534745D01*
X68078266Y-79525061D01*
X68243000Y-79127357D01*
X68243000Y-78672643D01*
X68068989Y-78252542D01*
X67747458Y-77931011D01*
X67327357Y-77757000D01*
X66872643Y-77757000D01*
X66452542Y-77931011D01*
X66131011Y-78252542D01*
X65957000Y-78672643D01*
X65957000Y-79127357D01*
X66119223Y-79519000D01*
X65032777Y-79519000D01*
X65195000Y-79127357D01*
X65195000Y-78672643D01*
X65020989Y-78252542D01*
X64699458Y-77931011D01*
X64279357Y-77757000D01*
X63824643Y-77757000D01*
X63404542Y-77931011D01*
X63083011Y-78252542D01*
X62909000Y-78672643D01*
X62909000Y-79127357D01*
X63071223Y-79519000D01*
X63033796Y-79519000D01*
X62972538Y-79510347D01*
X62892957Y-79530869D01*
X62812323Y-79546908D01*
X62800735Y-79554651D01*
X62787247Y-79558129D01*
X62721568Y-79607549D01*
X62653219Y-79653219D01*
X62645479Y-79664802D01*
X62634344Y-79673181D01*
X62592572Y-79743983D01*
X62546908Y-79812323D01*
X62534838Y-79873003D01*
X61958740Y-81519000D01*
X7199237Y-81519000D01*
X824886Y-75144649D01*
X11919000Y-75144649D01*
X11919000Y-75455351D01*
X12037900Y-75742401D01*
X12257599Y-75962100D01*
X12544649Y-76081000D01*
X12855351Y-76081000D01*
X13142401Y-75962100D01*
X13298501Y-75806000D01*
X31250166Y-75806000D01*
X31300000Y-75815913D01*
X31349834Y-75806000D01*
X31349835Y-75806000D01*
X31497431Y-75776641D01*
X31664806Y-75664806D01*
X31693038Y-75622553D01*
X34022559Y-73293034D01*
X34064806Y-73264806D01*
X34176641Y-73097431D01*
X34206000Y-72949835D01*
X34206000Y-72949834D01*
X34215913Y-72900000D01*
X34206000Y-72850165D01*
X34206000Y-62909591D01*
X35209592Y-61906000D01*
X38401499Y-61906000D01*
X38557599Y-62062100D01*
X38574257Y-62069000D01*
X38444649Y-62069000D01*
X38157599Y-62187900D01*
X37937900Y-62407599D01*
X37850335Y-62619000D01*
X37594649Y-62619000D01*
X37307599Y-62737900D01*
X37087900Y-62957599D01*
X36969000Y-63244649D01*
X36969000Y-63555351D01*
X37047319Y-63744430D01*
X37027570Y-63748358D01*
X36860195Y-63860193D01*
X36831966Y-63902441D01*
X36765407Y-63969000D01*
X36544649Y-63969000D01*
X36257599Y-64087900D01*
X36037900Y-64307599D01*
X35919000Y-64594649D01*
X35919000Y-64905351D01*
X36037900Y-65192401D01*
X36257599Y-65412100D01*
X36544649Y-65531000D01*
X36855351Y-65531000D01*
X37142401Y-65412100D01*
X37362100Y-65192401D01*
X37383579Y-65140547D01*
X37487900Y-65392401D01*
X37707599Y-65612100D01*
X37994649Y-65731000D01*
X38305351Y-65731000D01*
X38592401Y-65612100D01*
X38748501Y-65456000D01*
X39776430Y-65456000D01*
X39719000Y-65594649D01*
X39719000Y-65905351D01*
X39837900Y-66192401D01*
X40057599Y-66412100D01*
X40344649Y-66531000D01*
X40655351Y-66531000D01*
X40942401Y-66412100D01*
X41098501Y-66256000D01*
X43156094Y-66256000D01*
X43172796Y-66272703D01*
X43137900Y-66307599D01*
X43019000Y-66594649D01*
X43019000Y-66905351D01*
X43137900Y-67192401D01*
X43357599Y-67412100D01*
X43644649Y-67531000D01*
X43955351Y-67531000D01*
X44242401Y-67412100D01*
X44462100Y-67192401D01*
X44581000Y-66905351D01*
X44581000Y-66594649D01*
X44462100Y-66307599D01*
X44310226Y-66155725D01*
X44302824Y-66118514D01*
X44276641Y-65986884D01*
X44164806Y-65819509D01*
X44122555Y-65791278D01*
X43787276Y-65456000D01*
X47403459Y-65456000D01*
X47375552Y-65497765D01*
X43866752Y-69006565D01*
X43655351Y-68919000D01*
X43344649Y-68919000D01*
X43057599Y-69037900D01*
X43026499Y-69069000D01*
X42512146Y-69069000D01*
X42449999Y-69056638D01*
X42387852Y-69069000D01*
X42203796Y-69105611D01*
X41995074Y-69245074D01*
X41959870Y-69297761D01*
X40688632Y-70569000D01*
X40644649Y-70569000D01*
X40357599Y-70687900D01*
X40137900Y-70907599D01*
X40019000Y-71194649D01*
X40019000Y-71303408D01*
X39306000Y-70590409D01*
X39306000Y-69898501D01*
X39462100Y-69742401D01*
X39581000Y-69455351D01*
X39581000Y-69144649D01*
X39462100Y-68857599D01*
X39242401Y-68637900D01*
X38955351Y-68519000D01*
X38644649Y-68519000D01*
X38357599Y-68637900D01*
X38137900Y-68857599D01*
X38019000Y-69144649D01*
X38019000Y-69455351D01*
X38137900Y-69742401D01*
X38294000Y-69898501D01*
X38294001Y-70750161D01*
X38284087Y-70800000D01*
X38305491Y-70907599D01*
X38323360Y-70997431D01*
X38435195Y-71164806D01*
X38477445Y-71193036D01*
X39856963Y-72572555D01*
X39885194Y-72614806D01*
X39997781Y-72690033D01*
X40052568Y-72726641D01*
X40250000Y-72765913D01*
X40299835Y-72756000D01*
X42401499Y-72756000D01*
X42557599Y-72912100D01*
X42844649Y-73031000D01*
X43155351Y-73031000D01*
X43442401Y-72912100D01*
X43662100Y-72692401D01*
X43781000Y-72405351D01*
X43781000Y-72094649D01*
X43662100Y-71807599D01*
X43442401Y-71587900D01*
X43155351Y-71469000D01*
X42844649Y-71469000D01*
X42557599Y-71587900D01*
X42401499Y-71744000D01*
X41482148Y-71744000D01*
X41581000Y-71505351D01*
X41581000Y-71461368D01*
X42711369Y-70331000D01*
X43026499Y-70331000D01*
X43057599Y-70362100D01*
X43344649Y-70481000D01*
X43655351Y-70481000D01*
X43942401Y-70362100D01*
X43973501Y-70331000D01*
X44003537Y-70331000D01*
X44065685Y-70343362D01*
X44127833Y-70331000D01*
X44311889Y-70294389D01*
X44520611Y-70154926D01*
X44555818Y-70102235D01*
X48127053Y-66531000D01*
X49087723Y-66531000D01*
X48877442Y-66741281D01*
X48877443Y-66741281D01*
X48577446Y-67041278D01*
X48535195Y-67069509D01*
X48453082Y-67192401D01*
X48423360Y-67236884D01*
X48384087Y-67434315D01*
X48394001Y-67484154D01*
X48394000Y-71750166D01*
X48384087Y-71800000D01*
X48394000Y-71849834D01*
X48423359Y-71997430D01*
X48535194Y-72164806D01*
X48577448Y-72193039D01*
X51656963Y-75272555D01*
X51685194Y-75314806D01*
X51797781Y-75390033D01*
X51852568Y-75426641D01*
X52050000Y-75465913D01*
X52099835Y-75456000D01*
X72801499Y-75456000D01*
X72957599Y-75612100D01*
X73244649Y-75731000D01*
X73555351Y-75731000D01*
X73842401Y-75612100D01*
X74062100Y-75392401D01*
X74181000Y-75105351D01*
X74181000Y-74794649D01*
X74062100Y-74507599D01*
X73842401Y-74287900D01*
X73555351Y-74169000D01*
X73244649Y-74169000D01*
X72957599Y-74287900D01*
X72801499Y-74444000D01*
X52259592Y-74444000D01*
X49406000Y-71590409D01*
X49406000Y-71227000D01*
X50800000Y-71227000D01*
X50848601Y-71217333D01*
X50889803Y-71189803D01*
X50917333Y-71148601D01*
X50927000Y-71100000D01*
X50927000Y-70027000D01*
X54700000Y-70027000D01*
X54748601Y-70017333D01*
X54789803Y-69989803D01*
X56352606Y-68427000D01*
X68469558Y-68427000D01*
X68768642Y-68755183D01*
X68995105Y-68861536D01*
X68800000Y-68861536D01*
X68651341Y-68891106D01*
X68525314Y-68975314D01*
X68441106Y-69101341D01*
X68411536Y-69250000D01*
X68411536Y-70950000D01*
X68441106Y-71098659D01*
X68525314Y-71224686D01*
X68651341Y-71308894D01*
X68800000Y-71338464D01*
X70500000Y-71338464D01*
X70648659Y-71308894D01*
X70774686Y-71224686D01*
X70858894Y-71098659D01*
X70888464Y-70950000D01*
X70888464Y-69250000D01*
X70858894Y-69101341D01*
X70774686Y-68975314D01*
X70648659Y-68891106D01*
X70500000Y-68861536D01*
X70304895Y-68861536D01*
X70531358Y-68755183D01*
X70763914Y-68500000D01*
X74499000Y-68500000D01*
X74613257Y-69074408D01*
X74938633Y-69561367D01*
X75425592Y-69886743D01*
X76000000Y-70001000D01*
X76574408Y-69886743D01*
X77061367Y-69561367D01*
X77386743Y-69074408D01*
X77501000Y-68500000D01*
X77386743Y-67925592D01*
X77061367Y-67438633D01*
X76574408Y-67113257D01*
X76000000Y-66999000D01*
X75425592Y-67113257D01*
X74938633Y-67438633D01*
X74613257Y-67925592D01*
X74499000Y-68500000D01*
X70763914Y-68500000D01*
X70921645Y-68326924D01*
X71091476Y-67916890D01*
X70970155Y-67687000D01*
X69777000Y-67687000D01*
X69777000Y-67707000D01*
X69523000Y-67707000D01*
X69523000Y-67687000D01*
X69503000Y-67687000D01*
X69503000Y-67433000D01*
X69523000Y-67433000D01*
X69523000Y-66239181D01*
X69777000Y-66239181D01*
X69777000Y-67433000D01*
X70970155Y-67433000D01*
X71091476Y-67203110D01*
X70921645Y-66793076D01*
X70531358Y-66364817D01*
X70006892Y-66118514D01*
X69777000Y-66239181D01*
X69523000Y-66239181D01*
X69293108Y-66118514D01*
X68768642Y-66364817D01*
X68578918Y-66573000D01*
X55700000Y-66573000D01*
X55651399Y-66582667D01*
X55610197Y-66610197D01*
X54047394Y-68173000D01*
X50927000Y-68173000D01*
X50927000Y-67400000D01*
X50917333Y-67351399D01*
X50889803Y-67310197D01*
X50848601Y-67282667D01*
X50800000Y-67273000D01*
X50602880Y-67273000D01*
X50764806Y-67164806D01*
X50793039Y-67122552D01*
X54534592Y-63381000D01*
X54755351Y-63381000D01*
X55042401Y-63262100D01*
X55262100Y-63042401D01*
X55381000Y-62755351D01*
X55381000Y-62444649D01*
X55262100Y-62157599D01*
X55042401Y-61937900D01*
X54755351Y-61819000D01*
X54673368Y-61819000D01*
X54711368Y-61781000D01*
X54755351Y-61781000D01*
X55042401Y-61662100D01*
X55262100Y-61442401D01*
X55381000Y-61155351D01*
X55381000Y-60844649D01*
X55262100Y-60557599D01*
X55143653Y-60439152D01*
X55143653Y-60325000D01*
X60436536Y-60325000D01*
X60436536Y-61675000D01*
X60466106Y-61823659D01*
X60550314Y-61949686D01*
X60676341Y-62033894D01*
X60825000Y-62063464D01*
X62175000Y-62063464D01*
X62323659Y-62033894D01*
X62449686Y-61949686D01*
X62533894Y-61823659D01*
X62563464Y-61675000D01*
X62563464Y-61499124D01*
X62738667Y-61761333D01*
X63087969Y-61994730D01*
X63395994Y-62056000D01*
X63604006Y-62056000D01*
X63912031Y-61994730D01*
X64261333Y-61761333D01*
X64494730Y-61412031D01*
X64576688Y-61000000D01*
X66523312Y-61000000D01*
X66605270Y-61412031D01*
X66838667Y-61761333D01*
X67187969Y-61994730D01*
X67495994Y-62056000D01*
X67704006Y-62056000D01*
X68012031Y-61994730D01*
X68361333Y-61761333D01*
X68536536Y-61499124D01*
X68536536Y-61675000D01*
X68566106Y-61823659D01*
X68650314Y-61949686D01*
X68776341Y-62033894D01*
X68925000Y-62063464D01*
X70275000Y-62063464D01*
X70423659Y-62033894D01*
X70549686Y-61949686D01*
X70633894Y-61823659D01*
X70663464Y-61675000D01*
X70663464Y-60325000D01*
X70633894Y-60176341D01*
X70549686Y-60050314D01*
X70423659Y-59966106D01*
X70275000Y-59936536D01*
X68925000Y-59936536D01*
X68776341Y-59966106D01*
X68650314Y-60050314D01*
X68566106Y-60176341D01*
X68536536Y-60325000D01*
X68536536Y-60500876D01*
X68361333Y-60238667D01*
X68012031Y-60005270D01*
X67704006Y-59944000D01*
X67495994Y-59944000D01*
X67187969Y-60005270D01*
X66838667Y-60238667D01*
X66605270Y-60587969D01*
X66523312Y-61000000D01*
X64576688Y-61000000D01*
X64494730Y-60587969D01*
X64261333Y-60238667D01*
X63912031Y-60005270D01*
X63604006Y-59944000D01*
X63395994Y-59944000D01*
X63087969Y-60005270D01*
X62738667Y-60238667D01*
X62563464Y-60500876D01*
X62563464Y-60325000D01*
X62533894Y-60176341D01*
X62449686Y-60050314D01*
X62323659Y-59966106D01*
X62175000Y-59936536D01*
X60825000Y-59936536D01*
X60676341Y-59966106D01*
X60550314Y-60050314D01*
X60466106Y-60176341D01*
X60436536Y-60325000D01*
X55143653Y-60325000D01*
X55143653Y-53386154D01*
X55174753Y-53355054D01*
X55293653Y-53068004D01*
X55293653Y-52757302D01*
X55174753Y-52470252D01*
X54955054Y-52250553D01*
X54891403Y-52224188D01*
X56519000Y-50596592D01*
X56519001Y-58245156D01*
X56509577Y-58292534D01*
X56546908Y-58480211D01*
X56653219Y-58639315D01*
X56812323Y-58745626D01*
X56952627Y-58773534D01*
X57000000Y-58782957D01*
X57047373Y-58773534D01*
X74952627Y-58773534D01*
X75000000Y-58782957D01*
X75047373Y-58773534D01*
X75187677Y-58745626D01*
X75346781Y-58639315D01*
X75453092Y-58480211D01*
X75490423Y-58292534D01*
X75481000Y-58245161D01*
X75481000Y-50339907D01*
X75490423Y-50292534D01*
X75453092Y-50104857D01*
X75346781Y-49945753D01*
X75187677Y-49839442D01*
X75047373Y-49811534D01*
X75000000Y-49802111D01*
X74952627Y-49811534D01*
X64416992Y-49811534D01*
X64443039Y-49772552D01*
X67972555Y-46243037D01*
X68014806Y-46214806D01*
X68093232Y-46097432D01*
X68126641Y-46047432D01*
X68165913Y-45850000D01*
X68156000Y-45800165D01*
X68156000Y-41898501D01*
X68312100Y-41742401D01*
X68431000Y-41455351D01*
X68431000Y-41144649D01*
X68312100Y-40857599D01*
X68092401Y-40637900D01*
X67805351Y-40519000D01*
X67494649Y-40519000D01*
X67207599Y-40637900D01*
X67050000Y-40795499D01*
X66892401Y-40637900D01*
X66605351Y-40519000D01*
X66294649Y-40519000D01*
X66007599Y-40637900D01*
X65787900Y-40857599D01*
X65669000Y-41144649D01*
X65669000Y-41365409D01*
X65656000Y-41378409D01*
X65656000Y-39743906D01*
X66522703Y-38877204D01*
X66557599Y-38912100D01*
X66844649Y-39031000D01*
X67155351Y-39031000D01*
X67442401Y-38912100D01*
X67662100Y-38692401D01*
X67781000Y-38405351D01*
X67781000Y-38094649D01*
X67662100Y-37807599D01*
X67442401Y-37587900D01*
X67155351Y-37469000D01*
X66844649Y-37469000D01*
X66557599Y-37587900D01*
X66405725Y-37739774D01*
X66236883Y-37773359D01*
X66225448Y-37781000D01*
X66069509Y-37885194D01*
X66041278Y-37927445D01*
X64827445Y-39141279D01*
X64785195Y-39169509D01*
X64699722Y-39297430D01*
X64673360Y-39336884D01*
X64634087Y-39534315D01*
X64644001Y-39584154D01*
X64644001Y-40028409D01*
X64481000Y-39865408D01*
X64481000Y-39844649D01*
X64362100Y-39557599D01*
X64142401Y-39337900D01*
X63855351Y-39219000D01*
X63544649Y-39219000D01*
X63267014Y-39334000D01*
X62427583Y-39334000D01*
X62368989Y-39192542D01*
X62047458Y-38871011D01*
X61627357Y-38697000D01*
X61172643Y-38697000D01*
X60752542Y-38871011D01*
X60431011Y-39192542D01*
X60406000Y-39252924D01*
X60406000Y-39009591D01*
X61031185Y-38384406D01*
X61172643Y-38443000D01*
X61627357Y-38443000D01*
X62047458Y-38268989D01*
X62368989Y-37947458D01*
X62543000Y-37527357D01*
X62543000Y-37072643D01*
X62368989Y-36652542D01*
X62251515Y-36535068D01*
X68959577Y-36535068D01*
X68969000Y-36582441D01*
X68969001Y-43587690D01*
X68959577Y-43635068D01*
X68996908Y-43822745D01*
X69103219Y-43981849D01*
X69262323Y-44088160D01*
X69402627Y-44116068D01*
X69450000Y-44125491D01*
X69497373Y-44116068D01*
X70452627Y-44116068D01*
X70500000Y-44125491D01*
X70547373Y-44116068D01*
X70687677Y-44088160D01*
X70846781Y-43981849D01*
X70953092Y-43822745D01*
X70990423Y-43635068D01*
X70981000Y-43587695D01*
X70981000Y-40085068D01*
X74499000Y-40085068D01*
X74613257Y-40659476D01*
X74938633Y-41146435D01*
X75425592Y-41471811D01*
X76000000Y-41586068D01*
X76574408Y-41471811D01*
X77061367Y-41146435D01*
X77386743Y-40659476D01*
X77501000Y-40085068D01*
X77386743Y-39510660D01*
X77061367Y-39023701D01*
X76574408Y-38698325D01*
X76000000Y-38584068D01*
X75425592Y-38698325D01*
X74938633Y-39023701D01*
X74613257Y-39510660D01*
X74499000Y-40085068D01*
X70981000Y-40085068D01*
X70981000Y-36582441D01*
X70990423Y-36535068D01*
X70953092Y-36347391D01*
X70846781Y-36188287D01*
X70687677Y-36081976D01*
X70547373Y-36054068D01*
X70500000Y-36044645D01*
X70452627Y-36054068D01*
X69497373Y-36054068D01*
X69450000Y-36044645D01*
X69402627Y-36054068D01*
X69262323Y-36081976D01*
X69103219Y-36188287D01*
X68996908Y-36347391D01*
X68959577Y-36535068D01*
X62251515Y-36535068D01*
X62047458Y-36331011D01*
X61906000Y-36272417D01*
X61906000Y-32349833D01*
X61915913Y-32299999D01*
X61894675Y-32193231D01*
X61876641Y-32102569D01*
X61764806Y-31935194D01*
X61722555Y-31906963D01*
X60160817Y-30345225D01*
X60132584Y-30302972D01*
X59965209Y-30191137D01*
X59817613Y-30161778D01*
X59817612Y-30161778D01*
X59788565Y-30156000D01*
X66800166Y-30156000D01*
X66850000Y-30165913D01*
X66899834Y-30156000D01*
X66899835Y-30156000D01*
X67047431Y-30126641D01*
X67214806Y-30014806D01*
X67243038Y-29972553D01*
X67898813Y-29316778D01*
X68095994Y-29356000D01*
X68304006Y-29356000D01*
X68612031Y-29294730D01*
X68634492Y-29279722D01*
X68619484Y-29302183D01*
X68537526Y-29714214D01*
X68619484Y-30126245D01*
X68852881Y-30475547D01*
X69202183Y-30708944D01*
X69510208Y-30770214D01*
X69718220Y-30770214D01*
X70026245Y-30708944D01*
X70375547Y-30475547D01*
X70608944Y-30126245D01*
X70690902Y-29714214D01*
X70608944Y-29302183D01*
X70375547Y-28952881D01*
X70026245Y-28719484D01*
X69718220Y-28658214D01*
X69510208Y-28658214D01*
X69202183Y-28719484D01*
X69179722Y-28734492D01*
X69194730Y-28712031D01*
X69276688Y-28300000D01*
X69194730Y-27887969D01*
X68961333Y-27538667D01*
X68612031Y-27305270D01*
X68304006Y-27244000D01*
X68095994Y-27244000D01*
X68016006Y-27259911D01*
X68083249Y-27066671D01*
X68053708Y-26556385D01*
X67915256Y-26222160D01*
X67684678Y-26166501D01*
X66965392Y-26885787D01*
X66979535Y-26899930D01*
X66799930Y-27079535D01*
X66785787Y-27065392D01*
X66066501Y-27784678D01*
X66122160Y-28015256D01*
X66456385Y-28153708D01*
X66966671Y-28183249D01*
X67159911Y-28116006D01*
X67123312Y-28300000D01*
X67183222Y-28601187D01*
X66640409Y-29144000D01*
X62360501Y-29144000D01*
X62362100Y-29142401D01*
X62481000Y-28855351D01*
X62481000Y-28544649D01*
X62362100Y-28257599D01*
X62142401Y-28037900D01*
X61855351Y-27919000D01*
X61544649Y-27919000D01*
X61257599Y-28037900D01*
X61101499Y-28194000D01*
X53749833Y-28194000D01*
X53699999Y-28184087D01*
X53650165Y-28194000D01*
X53502569Y-28223359D01*
X53335194Y-28335194D01*
X53306963Y-28377445D01*
X48890409Y-32794000D01*
X35349835Y-32794000D01*
X35300000Y-32784087D01*
X35102568Y-32823359D01*
X35047781Y-32859967D01*
X34935194Y-32935194D01*
X34906963Y-32977445D01*
X33377445Y-34506963D01*
X33335195Y-34535194D01*
X33261022Y-34646203D01*
X33223360Y-34702569D01*
X33184087Y-34900000D01*
X33194001Y-34949839D01*
X33194000Y-38938882D01*
X33189294Y-38915222D01*
X33077459Y-38747847D01*
X33035208Y-38719616D01*
X32293038Y-37977447D01*
X32264806Y-37935194D01*
X32097431Y-37823359D01*
X31949835Y-37794000D01*
X31949834Y-37794000D01*
X31900000Y-37784087D01*
X31850166Y-37794000D01*
X25309593Y-37794000D01*
X24606000Y-37090409D01*
X24606000Y-36998501D01*
X24762100Y-36842401D01*
X24881000Y-36555351D01*
X24881000Y-36244649D01*
X24762100Y-35957599D01*
X24542401Y-35737900D01*
X24255351Y-35619000D01*
X23944649Y-35619000D01*
X23657599Y-35737900D01*
X23437900Y-35957599D01*
X23319000Y-36244649D01*
X23319000Y-36555351D01*
X23437900Y-36842401D01*
X23594000Y-36998501D01*
X23594000Y-37250165D01*
X23584087Y-37300000D01*
X23594000Y-37349834D01*
X23623359Y-37497430D01*
X23735194Y-37664806D01*
X23777447Y-37693038D01*
X24706964Y-38622557D01*
X24735194Y-38664806D01*
X24777442Y-38693035D01*
X24902569Y-38776641D01*
X25100000Y-38815913D01*
X25149835Y-38806000D01*
X31690409Y-38806000D01*
X32206654Y-39322246D01*
X32206653Y-42249834D01*
X32206654Y-42249839D01*
X32206653Y-43176499D01*
X32050553Y-43332599D01*
X31931653Y-43619649D01*
X31931653Y-43930351D01*
X32050553Y-44217401D01*
X32270252Y-44437100D01*
X32557302Y-44556000D01*
X32868004Y-44556000D01*
X33155054Y-44437100D01*
X33374753Y-44217401D01*
X33493653Y-43930351D01*
X33493653Y-43619649D01*
X33413767Y-43426787D01*
X33544649Y-43481000D01*
X33855351Y-43481000D01*
X34142401Y-43362100D01*
X34362100Y-43142401D01*
X34481000Y-42855351D01*
X34481000Y-42544649D01*
X34362100Y-42257599D01*
X34206000Y-42101499D01*
X34206000Y-35109591D01*
X35509592Y-33806000D01*
X46189499Y-33806000D01*
X46037900Y-33957599D01*
X45919000Y-34244649D01*
X45919000Y-34555351D01*
X46037900Y-34842401D01*
X46257599Y-35062100D01*
X46544649Y-35181000D01*
X46588632Y-35181000D01*
X48169001Y-36761370D01*
X48169000Y-43676632D01*
X48165134Y-43672766D01*
X48129927Y-43620075D01*
X47921205Y-43480612D01*
X47737149Y-43444001D01*
X47675001Y-43431639D01*
X47612853Y-43444001D01*
X41212146Y-43444001D01*
X41149998Y-43431639D01*
X41070808Y-43447391D01*
X40903795Y-43480612D01*
X40695073Y-43620075D01*
X40659866Y-43672766D01*
X40638632Y-43694000D01*
X40594649Y-43694000D01*
X40307599Y-43812900D01*
X40087900Y-44032599D01*
X39969000Y-44319649D01*
X39969000Y-44630351D01*
X40087900Y-44917401D01*
X40307599Y-45137100D01*
X40594649Y-45256000D01*
X40905351Y-45256000D01*
X41192401Y-45137100D01*
X41412100Y-44917401D01*
X41499665Y-44706001D01*
X47413633Y-44706001D01*
X48169001Y-45461369D01*
X48169000Y-45826499D01*
X48137900Y-45857599D01*
X48019000Y-46144649D01*
X48019000Y-46455351D01*
X48137900Y-46742401D01*
X48345499Y-46950000D01*
X48187900Y-47107599D01*
X48069000Y-47394649D01*
X48069000Y-47705351D01*
X48187900Y-47992401D01*
X48407599Y-48212100D01*
X48694649Y-48331000D01*
X49005351Y-48331000D01*
X49292401Y-48212100D01*
X49448501Y-48056000D01*
X49700166Y-48056000D01*
X49750000Y-48065913D01*
X49799834Y-48056000D01*
X49799835Y-48056000D01*
X49947431Y-48026641D01*
X50114806Y-47914806D01*
X50143038Y-47872553D01*
X50944000Y-47071592D01*
X50944000Y-47440408D01*
X49440409Y-48944000D01*
X47949834Y-48944000D01*
X47900000Y-48934087D01*
X47850166Y-48944000D01*
X47850165Y-48944000D01*
X47702569Y-48973359D01*
X47535194Y-49085194D01*
X47506963Y-49127445D01*
X47177444Y-49456965D01*
X47177441Y-49456967D01*
X47165408Y-49469000D01*
X46944649Y-49469000D01*
X46657599Y-49587900D01*
X46437900Y-49807599D01*
X46319000Y-50094649D01*
X46319000Y-50405351D01*
X46376430Y-50544000D01*
X40399834Y-50544000D01*
X40350000Y-50534087D01*
X40300166Y-50544000D01*
X40300165Y-50544000D01*
X40152569Y-50573359D01*
X39985194Y-50685194D01*
X39956963Y-50727445D01*
X38627445Y-52056964D01*
X38585195Y-52085194D01*
X38474966Y-52250165D01*
X38473360Y-52252569D01*
X38434087Y-52450000D01*
X38444001Y-52499839D01*
X38444000Y-53701499D01*
X38287900Y-53857599D01*
X38169000Y-54144649D01*
X38169000Y-54455351D01*
X38247141Y-54644000D01*
X37948501Y-54644000D01*
X37792401Y-54487900D01*
X37505351Y-54369000D01*
X37194649Y-54369000D01*
X36907599Y-54487900D01*
X36687900Y-54707599D01*
X36569000Y-54994649D01*
X36569000Y-55305351D01*
X36687900Y-55592401D01*
X36712469Y-55616970D01*
X36709431Y-55619000D01*
X36494649Y-55619000D01*
X36207599Y-55737900D01*
X35987900Y-55957599D01*
X35869000Y-56244649D01*
X35869000Y-56555351D01*
X35987900Y-56842401D01*
X36207599Y-57062100D01*
X36494649Y-57181000D01*
X36805351Y-57181000D01*
X37092401Y-57062100D01*
X37312100Y-56842401D01*
X37431000Y-56555351D01*
X37431000Y-56506001D01*
X39300165Y-56506001D01*
X39349999Y-56515914D01*
X39399833Y-56506001D01*
X39399834Y-56506001D01*
X39547430Y-56476642D01*
X39714805Y-56364807D01*
X39743037Y-56322554D01*
X40618075Y-55447516D01*
X40680783Y-55598906D01*
X40751035Y-55669158D01*
X40700247Y-55719946D01*
X40581347Y-56006996D01*
X40581347Y-56317698D01*
X40700247Y-56604748D01*
X40856347Y-56760848D01*
X40856348Y-61439151D01*
X40737900Y-61557599D01*
X40619000Y-61844649D01*
X40619000Y-62155351D01*
X40697141Y-62344000D01*
X39198501Y-62344000D01*
X39042401Y-62187900D01*
X39025743Y-62181000D01*
X39155351Y-62181000D01*
X39442401Y-62062100D01*
X39662100Y-61842401D01*
X39781000Y-61555351D01*
X39781000Y-61244649D01*
X39662100Y-60957599D01*
X39442401Y-60737900D01*
X39155351Y-60619000D01*
X38844649Y-60619000D01*
X38557599Y-60737900D01*
X38401499Y-60894000D01*
X35049835Y-60894000D01*
X35000000Y-60884087D01*
X34802568Y-60923359D01*
X34757016Y-60953796D01*
X34635194Y-61035194D01*
X34606963Y-61077445D01*
X33377445Y-62306964D01*
X33335195Y-62335194D01*
X33223360Y-62502569D01*
X33184087Y-62700000D01*
X33194001Y-62749839D01*
X33194000Y-72690407D01*
X31090409Y-74794000D01*
X13298501Y-74794000D01*
X13142401Y-74637900D01*
X12855351Y-74519000D01*
X12544649Y-74519000D01*
X12257599Y-74637900D01*
X12037900Y-74857599D01*
X11919000Y-75144649D01*
X824886Y-75144649D01*
X481000Y-74800764D01*
X481000Y-68500000D01*
X499000Y-68500000D01*
X613257Y-69074408D01*
X938633Y-69561367D01*
X1425592Y-69886743D01*
X2000000Y-70001000D01*
X2574408Y-69886743D01*
X3061367Y-69561367D01*
X3386743Y-69074408D01*
X3501000Y-68500000D01*
X3386743Y-67925592D01*
X3326713Y-67835750D01*
X6165000Y-67835750D01*
X6165000Y-68526310D01*
X6261673Y-68759699D01*
X6440302Y-68938327D01*
X6673691Y-69035000D01*
X7364250Y-69035000D01*
X7523000Y-68876250D01*
X7523000Y-67677000D01*
X7777000Y-67677000D01*
X7777000Y-68876250D01*
X7935750Y-69035000D01*
X8626309Y-69035000D01*
X8859698Y-68938327D01*
X9038327Y-68759699D01*
X9135000Y-68526310D01*
X9135000Y-67835750D01*
X8976250Y-67677000D01*
X7777000Y-67677000D01*
X7523000Y-67677000D01*
X6323750Y-67677000D01*
X6165000Y-67835750D01*
X3326713Y-67835750D01*
X3061367Y-67438633D01*
X2574408Y-67113257D01*
X2000000Y-66999000D01*
X1425592Y-67113257D01*
X938633Y-67438633D01*
X613257Y-67925592D01*
X499000Y-68500000D01*
X481000Y-68500000D01*
X481000Y-66573690D01*
X6165000Y-66573690D01*
X6165000Y-67264250D01*
X6323750Y-67423000D01*
X7523000Y-67423000D01*
X7523000Y-67403000D01*
X7777000Y-67403000D01*
X7777000Y-67423000D01*
X8976250Y-67423000D01*
X9135000Y-67264250D01*
X9135000Y-66573690D01*
X9038327Y-66340301D01*
X8859698Y-66161673D01*
X8626309Y-66065000D01*
X8286821Y-66065000D01*
X8537501Y-65897501D01*
X8809576Y-65490312D01*
X8905116Y-65010000D01*
X8809576Y-64529688D01*
X8537501Y-64122499D01*
X8130312Y-63850424D01*
X7771239Y-63779000D01*
X7528761Y-63779000D01*
X7169688Y-63850424D01*
X6762499Y-64122499D01*
X6490424Y-64529688D01*
X6394884Y-65010000D01*
X6490424Y-65490312D01*
X6762499Y-65897501D01*
X7013179Y-66065000D01*
X6673691Y-66065000D01*
X6440302Y-66161673D01*
X6261673Y-66340301D01*
X6165000Y-66573690D01*
X481000Y-66573690D01*
X481000Y-62470000D01*
X6394884Y-62470000D01*
X6490424Y-62950312D01*
X6762499Y-63357501D01*
X7169688Y-63629576D01*
X7528761Y-63701000D01*
X7771239Y-63701000D01*
X8130312Y-63629576D01*
X8537501Y-63357501D01*
X8809576Y-62950312D01*
X8905116Y-62470000D01*
X8809576Y-61989688D01*
X8537501Y-61582499D01*
X8130312Y-61310424D01*
X7771239Y-61239000D01*
X7528761Y-61239000D01*
X7169688Y-61310424D01*
X6762499Y-61582499D01*
X6490424Y-61989688D01*
X6394884Y-62470000D01*
X481000Y-62470000D01*
X481000Y-50292534D01*
X2509577Y-50292534D01*
X2519001Y-50339912D01*
X2519000Y-58245161D01*
X2509577Y-58292534D01*
X2546908Y-58480211D01*
X2603433Y-58564806D01*
X2653219Y-58639315D01*
X2812323Y-58745626D01*
X3000000Y-58782957D01*
X3047373Y-58773534D01*
X20952627Y-58773534D01*
X21000000Y-58782957D01*
X21169000Y-58749341D01*
X21169000Y-64026499D01*
X21137900Y-64057599D01*
X21019000Y-64344649D01*
X21019000Y-64655351D01*
X21137900Y-64942401D01*
X21169000Y-64973501D01*
X21169000Y-65426499D01*
X21137900Y-65457599D01*
X21019000Y-65744649D01*
X21019000Y-66055351D01*
X21137900Y-66342401D01*
X21357599Y-66562100D01*
X21644649Y-66681000D01*
X21955351Y-66681000D01*
X22242401Y-66562100D01*
X22462100Y-66342401D01*
X22581000Y-66055351D01*
X22581000Y-65744649D01*
X22462100Y-65457599D01*
X22431000Y-65426499D01*
X22431000Y-64973501D01*
X22462100Y-64942401D01*
X22581000Y-64655351D01*
X22581000Y-64344649D01*
X22462100Y-64057599D01*
X22431000Y-64026499D01*
X22431000Y-49962146D01*
X22443362Y-49899999D01*
X22424982Y-49807599D01*
X22394389Y-49653796D01*
X22254926Y-49445074D01*
X22202238Y-49409869D01*
X21590132Y-48797764D01*
X21554926Y-48745074D01*
X21346204Y-48605611D01*
X21162148Y-48569000D01*
X21100000Y-48556638D01*
X21037852Y-48569000D01*
X6461369Y-48569000D01*
X5931000Y-48038632D01*
X5931000Y-38573501D01*
X5962100Y-38542401D01*
X6081000Y-38255351D01*
X6081000Y-37944649D01*
X5962100Y-37657599D01*
X5931000Y-37626499D01*
X5931000Y-37573501D01*
X6062100Y-37442401D01*
X6181000Y-37155351D01*
X6181000Y-36844649D01*
X6062100Y-36557599D01*
X6039569Y-36535068D01*
X7009577Y-36535068D01*
X7019000Y-36582441D01*
X7019001Y-43587690D01*
X7009577Y-43635068D01*
X7046908Y-43822745D01*
X7153219Y-43981849D01*
X7312323Y-44088160D01*
X7452627Y-44116068D01*
X7500000Y-44125491D01*
X7547373Y-44116068D01*
X8502627Y-44116068D01*
X8550000Y-44125491D01*
X8597373Y-44116068D01*
X8737677Y-44088160D01*
X8896781Y-43981849D01*
X9003092Y-43822745D01*
X9040423Y-43635068D01*
X9031000Y-43587695D01*
X9031000Y-36582441D01*
X9040423Y-36535068D01*
X9003092Y-36347391D01*
X8896781Y-36188287D01*
X8737677Y-36081976D01*
X8597373Y-36054068D01*
X8550000Y-36044645D01*
X8502627Y-36054068D01*
X7547373Y-36054068D01*
X7500000Y-36044645D01*
X7452627Y-36054068D01*
X7312323Y-36081976D01*
X7153219Y-36188287D01*
X7046908Y-36347391D01*
X7009577Y-36535068D01*
X6039569Y-36535068D01*
X5842401Y-36337900D01*
X5555351Y-36219000D01*
X5244649Y-36219000D01*
X4957599Y-36337900D01*
X4737900Y-36557599D01*
X4619000Y-36844649D01*
X4619000Y-37155351D01*
X4669001Y-37276064D01*
X4669000Y-37626499D01*
X4637900Y-37657599D01*
X4519000Y-37944649D01*
X4519000Y-38255351D01*
X4637900Y-38542401D01*
X4669001Y-38573502D01*
X4669000Y-48237852D01*
X4656638Y-48300000D01*
X4681176Y-48423359D01*
X4705611Y-48546203D01*
X4845074Y-48754926D01*
X4897764Y-48790132D01*
X5709869Y-49602238D01*
X5745074Y-49654926D01*
X5953796Y-49794389D01*
X6039990Y-49811534D01*
X3047373Y-49811534D01*
X3000000Y-49802111D01*
X2952627Y-49811534D01*
X2812323Y-49839442D01*
X2653219Y-49945753D01*
X2546908Y-50104857D01*
X2509577Y-50292534D01*
X481000Y-50292534D01*
X481000Y-40085068D01*
X499000Y-40085068D01*
X613257Y-40659476D01*
X938633Y-41146435D01*
X1425592Y-41471811D01*
X2000000Y-41586068D01*
X2574408Y-41471811D01*
X3061367Y-41146435D01*
X3386743Y-40659476D01*
X3501000Y-40085068D01*
X3386743Y-39510660D01*
X3061367Y-39023701D01*
X2574408Y-38698325D01*
X2000000Y-38584068D01*
X1425592Y-38698325D01*
X938633Y-39023701D01*
X613257Y-39510660D01*
X499000Y-40085068D01*
X481000Y-40085068D01*
X481000Y-35491770D01*
X6144343Y-29828427D01*
X7294885Y-29828427D01*
X7376843Y-30240458D01*
X7610240Y-30589760D01*
X7959542Y-30823157D01*
X8267567Y-30884427D01*
X8475579Y-30884427D01*
X8667129Y-30846325D01*
X8681766Y-30868232D01*
X8794353Y-30943459D01*
X8849140Y-30980067D01*
X8993114Y-31008706D01*
X11894000Y-33909592D01*
X11894001Y-38589841D01*
X11876641Y-38502569D01*
X11793035Y-38377442D01*
X11764806Y-38335194D01*
X11722559Y-38306966D01*
X11181000Y-37765408D01*
X11181000Y-37544649D01*
X11062100Y-37257599D01*
X10842401Y-37037900D01*
X10555351Y-36919000D01*
X10244649Y-36919000D01*
X9957599Y-37037900D01*
X9737900Y-37257599D01*
X9619000Y-37544649D01*
X9619000Y-37855351D01*
X9737900Y-38142401D01*
X9957599Y-38362100D01*
X10169808Y-38450000D01*
X9957599Y-38537900D01*
X9737900Y-38757599D01*
X9619000Y-39044649D01*
X9619000Y-39355351D01*
X9737900Y-39642401D01*
X9894001Y-39798502D01*
X9894001Y-39850162D01*
X9884087Y-39900000D01*
X9917378Y-40067357D01*
X9923360Y-40097431D01*
X10034950Y-40264439D01*
X9857599Y-40337900D01*
X9637900Y-40557599D01*
X9519000Y-40844649D01*
X9519000Y-41155351D01*
X9637900Y-41442401D01*
X9857599Y-41662100D01*
X10069808Y-41750000D01*
X9857599Y-41837900D01*
X9637900Y-42057599D01*
X9519000Y-42344649D01*
X9519000Y-42655351D01*
X9637900Y-42942401D01*
X9857599Y-43162100D01*
X10144649Y-43281000D01*
X10455351Y-43281000D01*
X10742401Y-43162100D01*
X10898501Y-43006000D01*
X25490409Y-43006000D01*
X26044777Y-43560368D01*
X25857599Y-43637900D01*
X25637900Y-43857599D01*
X25519000Y-44144649D01*
X25519000Y-44455351D01*
X25637900Y-44742401D01*
X25656323Y-44760824D01*
X25555351Y-44719000D01*
X25244649Y-44719000D01*
X25181000Y-44745364D01*
X25181000Y-44544649D01*
X25062100Y-44257599D01*
X24842401Y-44037900D01*
X24555351Y-43919000D01*
X24244649Y-43919000D01*
X23957599Y-44037900D01*
X23737900Y-44257599D01*
X23619000Y-44544649D01*
X23619000Y-44765409D01*
X23277445Y-45106964D01*
X23235195Y-45135194D01*
X23191894Y-45200000D01*
X23123360Y-45302569D01*
X23084087Y-45500000D01*
X23094001Y-45549839D01*
X23094000Y-55450165D01*
X23084087Y-55500000D01*
X23094000Y-55549834D01*
X23123359Y-55697430D01*
X23235194Y-55864806D01*
X23277447Y-55893038D01*
X24106963Y-56722555D01*
X24135194Y-56764806D01*
X24302569Y-56876641D01*
X24450165Y-56906000D01*
X24499999Y-56915913D01*
X24549833Y-56906000D01*
X26150166Y-56906000D01*
X26200000Y-56915913D01*
X26249834Y-56906000D01*
X26249835Y-56906000D01*
X26397431Y-56876641D01*
X26564806Y-56764806D01*
X26593038Y-56722553D01*
X26834591Y-56481000D01*
X27055351Y-56481000D01*
X27342401Y-56362100D01*
X27562100Y-56142401D01*
X27681000Y-55855351D01*
X27681000Y-55544649D01*
X27562100Y-55257599D01*
X27342401Y-55037900D01*
X27055351Y-54919000D01*
X26744649Y-54919000D01*
X26457599Y-55037900D01*
X26237900Y-55257599D01*
X26119000Y-55544649D01*
X26119000Y-55765409D01*
X25990409Y-55894000D01*
X25410501Y-55894000D01*
X25462100Y-55842401D01*
X25581000Y-55555351D01*
X25581000Y-55281000D01*
X25855351Y-55281000D01*
X26142401Y-55162100D01*
X26362100Y-54942401D01*
X26481000Y-54655351D01*
X26481000Y-54434592D01*
X26622556Y-54293036D01*
X26664806Y-54264806D01*
X26776641Y-54097431D01*
X26806000Y-53949835D01*
X26806000Y-53949834D01*
X26815913Y-53900001D01*
X26806000Y-53850167D01*
X26806000Y-49323570D01*
X26944649Y-49381000D01*
X27255351Y-49381000D01*
X27542401Y-49262100D01*
X27762100Y-49042401D01*
X27881000Y-48755351D01*
X27881000Y-48444649D01*
X27854636Y-48381000D01*
X28155351Y-48381000D01*
X28193296Y-48365283D01*
X28119000Y-48544649D01*
X28119000Y-48855351D01*
X28237900Y-49142401D01*
X28457599Y-49362100D01*
X28744649Y-49481000D01*
X29055351Y-49481000D01*
X29342401Y-49362100D01*
X29562100Y-49142401D01*
X29589832Y-49075451D01*
X29844649Y-49181000D01*
X30155351Y-49181000D01*
X30442401Y-49062100D01*
X30662100Y-48842401D01*
X30781000Y-48555351D01*
X30781000Y-48244649D01*
X30662100Y-47957599D01*
X30506000Y-47801499D01*
X30506000Y-43749835D01*
X30515913Y-43700000D01*
X30476641Y-43502568D01*
X30437508Y-43444001D01*
X30364806Y-43335194D01*
X30322556Y-43306964D01*
X27621591Y-40606000D01*
X29201499Y-40606000D01*
X29357599Y-40762100D01*
X29644649Y-40881000D01*
X29955351Y-40881000D01*
X30242401Y-40762100D01*
X30462100Y-40542401D01*
X30581000Y-40255351D01*
X30581000Y-39944649D01*
X30462100Y-39657599D01*
X30242401Y-39437900D01*
X29955351Y-39319000D01*
X29644649Y-39319000D01*
X29357599Y-39437900D01*
X29201499Y-39594000D01*
X14409593Y-39594000D01*
X13706000Y-38890409D01*
X13706000Y-31878259D01*
X13715913Y-31828425D01*
X13705486Y-31776005D01*
X13676641Y-31630995D01*
X13564806Y-31463620D01*
X13522555Y-31435389D01*
X10802565Y-28715400D01*
X10862475Y-28414213D01*
X10825876Y-28230219D01*
X11019116Y-28297462D01*
X11529402Y-28267921D01*
X11863627Y-28129469D01*
X11919286Y-27898891D01*
X11200000Y-27179605D01*
X11185858Y-27193748D01*
X11006253Y-27014143D01*
X11020395Y-27000000D01*
X10301109Y-26280714D01*
X10070531Y-26336373D01*
X9932079Y-26670598D01*
X9902538Y-27180884D01*
X9969781Y-27374124D01*
X9889793Y-27358213D01*
X9681781Y-27358213D01*
X9373756Y-27419483D01*
X9024454Y-27652880D01*
X8791057Y-28002182D01*
X8709099Y-28414213D01*
X8791057Y-28826244D01*
X8806065Y-28848705D01*
X8783604Y-28833697D01*
X8475579Y-28772427D01*
X8267567Y-28772427D01*
X7959542Y-28833697D01*
X7610240Y-29067094D01*
X7376843Y-29416396D01*
X7294885Y-29828427D01*
X6144343Y-29828427D01*
X9871661Y-26101109D01*
X10480714Y-26101109D01*
X11200000Y-26820395D01*
X11214143Y-26806253D01*
X11393748Y-26985858D01*
X11379605Y-27000000D01*
X12098891Y-27719286D01*
X12329469Y-27663627D01*
X12467921Y-27329402D01*
X12492511Y-26904636D01*
X12614214Y-26928844D01*
X12762873Y-26899274D01*
X12888900Y-26815066D01*
X13411432Y-26292534D01*
X30499000Y-26292534D01*
X30613257Y-26866942D01*
X30938633Y-27353901D01*
X31425592Y-27679277D01*
X32000000Y-27793534D01*
X32574408Y-27679277D01*
X33061367Y-27353901D01*
X33386743Y-26866942D01*
X33501000Y-26292534D01*
X44499000Y-26292534D01*
X44613257Y-26866942D01*
X44938633Y-27353901D01*
X45425592Y-27679277D01*
X46000000Y-27793534D01*
X46574408Y-27679277D01*
X47061367Y-27353901D01*
X47386743Y-26866942D01*
X47501000Y-26292534D01*
X47386743Y-25718126D01*
X47222002Y-25471573D01*
X64028515Y-25471573D01*
X64058085Y-25620232D01*
X64142293Y-25746259D01*
X65096887Y-26700853D01*
X65222914Y-26785061D01*
X65371573Y-26814631D01*
X65493276Y-26790423D01*
X65517866Y-27215189D01*
X65656318Y-27549414D01*
X65886896Y-27605073D01*
X66606182Y-26885787D01*
X66592040Y-26871645D01*
X66771645Y-26692040D01*
X66785787Y-26706182D01*
X67505073Y-25986896D01*
X67449414Y-25756318D01*
X67115189Y-25617866D01*
X66690423Y-25593276D01*
X66714631Y-25471573D01*
X66685061Y-25322914D01*
X66600853Y-25196887D01*
X65646259Y-24242293D01*
X65520232Y-24158085D01*
X65371573Y-24128515D01*
X65222914Y-24158085D01*
X65096887Y-24242293D01*
X64142293Y-25196887D01*
X64058085Y-25322914D01*
X64028515Y-25471573D01*
X47222002Y-25471573D01*
X47061367Y-25231167D01*
X46574408Y-24905791D01*
X46000000Y-24791534D01*
X45425592Y-24905791D01*
X44938633Y-25231167D01*
X44613257Y-25718126D01*
X44499000Y-26292534D01*
X33501000Y-26292534D01*
X33386743Y-25718126D01*
X33061367Y-25231167D01*
X32574408Y-24905791D01*
X32000000Y-24791534D01*
X31425592Y-24905791D01*
X30938633Y-25231167D01*
X30613257Y-25718126D01*
X30499000Y-26292534D01*
X13411432Y-26292534D01*
X13843494Y-25860472D01*
X13927702Y-25734445D01*
X13957272Y-25585786D01*
X13927702Y-25437127D01*
X13843494Y-25311100D01*
X12888900Y-24356506D01*
X12762873Y-24272298D01*
X12614214Y-24242728D01*
X12465555Y-24272298D01*
X12339528Y-24356506D01*
X11384934Y-25311100D01*
X11300726Y-25437127D01*
X11271156Y-25585786D01*
X11295364Y-25707489D01*
X10870598Y-25732079D01*
X10536373Y-25870531D01*
X10480714Y-26101109D01*
X9871661Y-26101109D01*
X13599158Y-22373613D01*
X13639315Y-22346781D01*
X13666148Y-22306623D01*
X13666150Y-22306621D01*
X13745626Y-22187677D01*
X13745626Y-22187676D01*
X13757695Y-22127000D01*
X15343854Y-22127000D01*
X15355923Y-22187677D01*
X15355923Y-22187677D01*
G37*
X15355923Y-22187677D02*
X15462234Y-22346781D01*
X15621338Y-22453092D01*
X15761642Y-22481000D01*
X15809015Y-22490423D01*
X15856388Y-22481000D01*
X61761642Y-22481000D01*
X61809015Y-22490423D01*
X61996692Y-22453092D01*
X62155796Y-22346781D01*
X62262107Y-22187677D01*
X62274176Y-22127000D01*
X64242305Y-22127000D01*
X64254374Y-22187676D01*
X64360685Y-22346781D01*
X64400846Y-22373616D01*
X77519001Y-35491772D01*
X77519000Y-74800763D01*
X70800764Y-81519000D01*
X69297274Y-81519000D01*
X68459141Y-79842736D01*
X68453092Y-79812323D01*
X68416712Y-79757877D01*
X68409033Y-79742519D01*
X68390455Y-79718581D01*
X68346781Y-79653219D01*
X68332131Y-79643430D01*
X68321326Y-79629508D01*
X68253041Y-79590583D01*
X68187677Y-79546908D01*
X68170390Y-79543469D01*
X68155085Y-79534745D01*
X68078266Y-79525061D01*
X68243000Y-79127357D01*
X68243000Y-78672643D01*
X68068989Y-78252542D01*
X67747458Y-77931011D01*
X67327357Y-77757000D01*
X66872643Y-77757000D01*
X66452542Y-77931011D01*
X66131011Y-78252542D01*
X65957000Y-78672643D01*
X65957000Y-79127357D01*
X66119223Y-79519000D01*
X65032777Y-79519000D01*
X65195000Y-79127357D01*
X65195000Y-78672643D01*
X65020989Y-78252542D01*
X64699458Y-77931011D01*
X64279357Y-77757000D01*
X63824643Y-77757000D01*
X63404542Y-77931011D01*
X63083011Y-78252542D01*
X62909000Y-78672643D01*
X62909000Y-79127357D01*
X63071223Y-79519000D01*
X63033796Y-79519000D01*
X62972538Y-79510347D01*
X62892957Y-79530869D01*
X62812323Y-79546908D01*
X62800735Y-79554651D01*
X62787247Y-79558129D01*
X62721568Y-79607549D01*
X62653219Y-79653219D01*
X62645479Y-79664802D01*
X62634344Y-79673181D01*
X62592572Y-79743983D01*
X62546908Y-79812323D01*
X62534838Y-79873003D01*
X61958740Y-81519000D01*
X7199237Y-81519000D01*
X824886Y-75144649D01*
X11919000Y-75144649D01*
X11919000Y-75455351D01*
X12037900Y-75742401D01*
X12257599Y-75962100D01*
X12544649Y-76081000D01*
X12855351Y-76081000D01*
X13142401Y-75962100D01*
X13298501Y-75806000D01*
X31250166Y-75806000D01*
X31300000Y-75815913D01*
X31349834Y-75806000D01*
X31349835Y-75806000D01*
X31497431Y-75776641D01*
X31664806Y-75664806D01*
X31693038Y-75622553D01*
X34022559Y-73293034D01*
X34064806Y-73264806D01*
X34176641Y-73097431D01*
X34206000Y-72949835D01*
X34206000Y-72949834D01*
X34215913Y-72900000D01*
X34206000Y-72850165D01*
X34206000Y-62909591D01*
X35209592Y-61906000D01*
X38401499Y-61906000D01*
X38557599Y-62062100D01*
X38574257Y-62069000D01*
X38444649Y-62069000D01*
X38157599Y-62187900D01*
X37937900Y-62407599D01*
X37850335Y-62619000D01*
X37594649Y-62619000D01*
X37307599Y-62737900D01*
X37087900Y-62957599D01*
X36969000Y-63244649D01*
X36969000Y-63555351D01*
X37047319Y-63744430D01*
X37027570Y-63748358D01*
X36860195Y-63860193D01*
X36831966Y-63902441D01*
X36765407Y-63969000D01*
X36544649Y-63969000D01*
X36257599Y-64087900D01*
X36037900Y-64307599D01*
X35919000Y-64594649D01*
X35919000Y-64905351D01*
X36037900Y-65192401D01*
X36257599Y-65412100D01*
X36544649Y-65531000D01*
X36855351Y-65531000D01*
X37142401Y-65412100D01*
X37362100Y-65192401D01*
X37383579Y-65140547D01*
X37487900Y-65392401D01*
X37707599Y-65612100D01*
X37994649Y-65731000D01*
X38305351Y-65731000D01*
X38592401Y-65612100D01*
X38748501Y-65456000D01*
X39776430Y-65456000D01*
X39719000Y-65594649D01*
X39719000Y-65905351D01*
X39837900Y-66192401D01*
X40057599Y-66412100D01*
X40344649Y-66531000D01*
X40655351Y-66531000D01*
X40942401Y-66412100D01*
X41098501Y-66256000D01*
X43156094Y-66256000D01*
X43172796Y-66272703D01*
X43137900Y-66307599D01*
X43019000Y-66594649D01*
X43019000Y-66905351D01*
X43137900Y-67192401D01*
X43357599Y-67412100D01*
X43644649Y-67531000D01*
X43955351Y-67531000D01*
X44242401Y-67412100D01*
X44462100Y-67192401D01*
X44581000Y-66905351D01*
X44581000Y-66594649D01*
X44462100Y-66307599D01*
X44310226Y-66155725D01*
X44302824Y-66118514D01*
X44276641Y-65986884D01*
X44164806Y-65819509D01*
X44122555Y-65791278D01*
X43787276Y-65456000D01*
X47403459Y-65456000D01*
X47375552Y-65497765D01*
X43866752Y-69006565D01*
X43655351Y-68919000D01*
X43344649Y-68919000D01*
X43057599Y-69037900D01*
X43026499Y-69069000D01*
X42512146Y-69069000D01*
X42449999Y-69056638D01*
X42387852Y-69069000D01*
X42203796Y-69105611D01*
X41995074Y-69245074D01*
X41959870Y-69297761D01*
X40688632Y-70569000D01*
X40644649Y-70569000D01*
X40357599Y-70687900D01*
X40137900Y-70907599D01*
X40019000Y-71194649D01*
X40019000Y-71303408D01*
X39306000Y-70590409D01*
X39306000Y-69898501D01*
X39462100Y-69742401D01*
X39581000Y-69455351D01*
X39581000Y-69144649D01*
X39462100Y-68857599D01*
X39242401Y-68637900D01*
X38955351Y-68519000D01*
X38644649Y-68519000D01*
X38357599Y-68637900D01*
X38137900Y-68857599D01*
X38019000Y-69144649D01*
X38019000Y-69455351D01*
X38137900Y-69742401D01*
X38294000Y-69898501D01*
X38294001Y-70750161D01*
X38284087Y-70800000D01*
X38305491Y-70907599D01*
X38323360Y-70997431D01*
X38435195Y-71164806D01*
X38477445Y-71193036D01*
X39856963Y-72572555D01*
X39885194Y-72614806D01*
X39997781Y-72690033D01*
X40052568Y-72726641D01*
X40250000Y-72765913D01*
X40299835Y-72756000D01*
X42401499Y-72756000D01*
X42557599Y-72912100D01*
X42844649Y-73031000D01*
X43155351Y-73031000D01*
X43442401Y-72912100D01*
X43662100Y-72692401D01*
X43781000Y-72405351D01*
X43781000Y-72094649D01*
X43662100Y-71807599D01*
X43442401Y-71587900D01*
X43155351Y-71469000D01*
X42844649Y-71469000D01*
X42557599Y-71587900D01*
X42401499Y-71744000D01*
X41482148Y-71744000D01*
X41581000Y-71505351D01*
X41581000Y-71461368D01*
X42711369Y-70331000D01*
X43026499Y-70331000D01*
X43057599Y-70362100D01*
X43344649Y-70481000D01*
X43655351Y-70481000D01*
X43942401Y-70362100D01*
X43973501Y-70331000D01*
X44003537Y-70331000D01*
X44065685Y-70343362D01*
X44127833Y-70331000D01*
X44311889Y-70294389D01*
X44520611Y-70154926D01*
X44555818Y-70102235D01*
X48127053Y-66531000D01*
X49087723Y-66531000D01*
X48877442Y-66741281D01*
X48877443Y-66741281D01*
X48577446Y-67041278D01*
X48535195Y-67069509D01*
X48453082Y-67192401D01*
X48423360Y-67236884D01*
X48384087Y-67434315D01*
X48394001Y-67484154D01*
X48394000Y-71750166D01*
X48384087Y-71800000D01*
X48394000Y-71849834D01*
X48423359Y-71997430D01*
X48535194Y-72164806D01*
X48577448Y-72193039D01*
X51656963Y-75272555D01*
X51685194Y-75314806D01*
X51797781Y-75390033D01*
X51852568Y-75426641D01*
X52050000Y-75465913D01*
X52099835Y-75456000D01*
X72801499Y-75456000D01*
X72957599Y-75612100D01*
X73244649Y-75731000D01*
X73555351Y-75731000D01*
X73842401Y-75612100D01*
X74062100Y-75392401D01*
X74181000Y-75105351D01*
X74181000Y-74794649D01*
X74062100Y-74507599D01*
X73842401Y-74287900D01*
X73555351Y-74169000D01*
X73244649Y-74169000D01*
X72957599Y-74287900D01*
X72801499Y-74444000D01*
X52259592Y-74444000D01*
X49406000Y-71590409D01*
X49406000Y-71227000D01*
X50800000Y-71227000D01*
X50848601Y-71217333D01*
X50889803Y-71189803D01*
X50917333Y-71148601D01*
X50927000Y-71100000D01*
X50927000Y-70027000D01*
X54700000Y-70027000D01*
X54748601Y-70017333D01*
X54789803Y-69989803D01*
X56352606Y-68427000D01*
X68469558Y-68427000D01*
X68768642Y-68755183D01*
X68995105Y-68861536D01*
X68800000Y-68861536D01*
X68651341Y-68891106D01*
X68525314Y-68975314D01*
X68441106Y-69101341D01*
X68411536Y-69250000D01*
X68411536Y-70950000D01*
X68441106Y-71098659D01*
X68525314Y-71224686D01*
X68651341Y-71308894D01*
X68800000Y-71338464D01*
X70500000Y-71338464D01*
X70648659Y-71308894D01*
X70774686Y-71224686D01*
X70858894Y-71098659D01*
X70888464Y-70950000D01*
X70888464Y-69250000D01*
X70858894Y-69101341D01*
X70774686Y-68975314D01*
X70648659Y-68891106D01*
X70500000Y-68861536D01*
X70304895Y-68861536D01*
X70531358Y-68755183D01*
X70763914Y-68500000D01*
X74499000Y-68500000D01*
X74613257Y-69074408D01*
X74938633Y-69561367D01*
X75425592Y-69886743D01*
X76000000Y-70001000D01*
X76574408Y-69886743D01*
X77061367Y-69561367D01*
X77386743Y-69074408D01*
X77501000Y-68500000D01*
X77386743Y-67925592D01*
X77061367Y-67438633D01*
X76574408Y-67113257D01*
X76000000Y-66999000D01*
X75425592Y-67113257D01*
X74938633Y-67438633D01*
X74613257Y-67925592D01*
X74499000Y-68500000D01*
X70763914Y-68500000D01*
X70921645Y-68326924D01*
X71091476Y-67916890D01*
X70970155Y-67687000D01*
X69777000Y-67687000D01*
X69777000Y-67707000D01*
X69523000Y-67707000D01*
X69523000Y-67687000D01*
X69503000Y-67687000D01*
X69503000Y-67433000D01*
X69523000Y-67433000D01*
X69523000Y-66239181D01*
X69777000Y-66239181D01*
X69777000Y-67433000D01*
X70970155Y-67433000D01*
X71091476Y-67203110D01*
X70921645Y-66793076D01*
X70531358Y-66364817D01*
X70006892Y-66118514D01*
X69777000Y-66239181D01*
X69523000Y-66239181D01*
X69293108Y-66118514D01*
X68768642Y-66364817D01*
X68578918Y-66573000D01*
X55700000Y-66573000D01*
X55651399Y-66582667D01*
X55610197Y-66610197D01*
X54047394Y-68173000D01*
X50927000Y-68173000D01*
X50927000Y-67400000D01*
X50917333Y-67351399D01*
X50889803Y-67310197D01*
X50848601Y-67282667D01*
X50800000Y-67273000D01*
X50602880Y-67273000D01*
X50764806Y-67164806D01*
X50793039Y-67122552D01*
X54534592Y-63381000D01*
X54755351Y-63381000D01*
X55042401Y-63262100D01*
X55262100Y-63042401D01*
X55381000Y-62755351D01*
X55381000Y-62444649D01*
X55262100Y-62157599D01*
X55042401Y-61937900D01*
X54755351Y-61819000D01*
X54673368Y-61819000D01*
X54711368Y-61781000D01*
X54755351Y-61781000D01*
X55042401Y-61662100D01*
X55262100Y-61442401D01*
X55381000Y-61155351D01*
X55381000Y-60844649D01*
X55262100Y-60557599D01*
X55143653Y-60439152D01*
X55143653Y-60325000D01*
X60436536Y-60325000D01*
X60436536Y-61675000D01*
X60466106Y-61823659D01*
X60550314Y-61949686D01*
X60676341Y-62033894D01*
X60825000Y-62063464D01*
X62175000Y-62063464D01*
X62323659Y-62033894D01*
X62449686Y-61949686D01*
X62533894Y-61823659D01*
X62563464Y-61675000D01*
X62563464Y-61499124D01*
X62738667Y-61761333D01*
X63087969Y-61994730D01*
X63395994Y-62056000D01*
X63604006Y-62056000D01*
X63912031Y-61994730D01*
X64261333Y-61761333D01*
X64494730Y-61412031D01*
X64576688Y-61000000D01*
X66523312Y-61000000D01*
X66605270Y-61412031D01*
X66838667Y-61761333D01*
X67187969Y-61994730D01*
X67495994Y-62056000D01*
X67704006Y-62056000D01*
X68012031Y-61994730D01*
X68361333Y-61761333D01*
X68536536Y-61499124D01*
X68536536Y-61675000D01*
X68566106Y-61823659D01*
X68650314Y-61949686D01*
X68776341Y-62033894D01*
X68925000Y-62063464D01*
X70275000Y-62063464D01*
X70423659Y-62033894D01*
X70549686Y-61949686D01*
X70633894Y-61823659D01*
X70663464Y-61675000D01*
X70663464Y-60325000D01*
X70633894Y-60176341D01*
X70549686Y-60050314D01*
X70423659Y-59966106D01*
X70275000Y-59936536D01*
X68925000Y-59936536D01*
X68776341Y-59966106D01*
X68650314Y-60050314D01*
X68566106Y-60176341D01*
X68536536Y-60325000D01*
X68536536Y-60500876D01*
X68361333Y-60238667D01*
X68012031Y-60005270D01*
X67704006Y-59944000D01*
X67495994Y-59944000D01*
X67187969Y-60005270D01*
X66838667Y-60238667D01*
X66605270Y-60587969D01*
X66523312Y-61000000D01*
X64576688Y-61000000D01*
X64494730Y-60587969D01*
X64261333Y-60238667D01*
X63912031Y-60005270D01*
X63604006Y-59944000D01*
X63395994Y-59944000D01*
X63087969Y-60005270D01*
X62738667Y-60238667D01*
X62563464Y-60500876D01*
X62563464Y-60325000D01*
X62533894Y-60176341D01*
X62449686Y-60050314D01*
X62323659Y-59966106D01*
X62175000Y-59936536D01*
X60825000Y-59936536D01*
X60676341Y-59966106D01*
X60550314Y-60050314D01*
X60466106Y-60176341D01*
X60436536Y-60325000D01*
X55143653Y-60325000D01*
X55143653Y-53386154D01*
X55174753Y-53355054D01*
X55293653Y-53068004D01*
X55293653Y-52757302D01*
X55174753Y-52470252D01*
X54955054Y-52250553D01*
X54891403Y-52224188D01*
X56519000Y-50596592D01*
X56519001Y-58245156D01*
X56509577Y-58292534D01*
X56546908Y-58480211D01*
X56653219Y-58639315D01*
X56812323Y-58745626D01*
X56952627Y-58773534D01*
X57000000Y-58782957D01*
X57047373Y-58773534D01*
X74952627Y-58773534D01*
X75000000Y-58782957D01*
X75047373Y-58773534D01*
X75187677Y-58745626D01*
X75346781Y-58639315D01*
X75453092Y-58480211D01*
X75490423Y-58292534D01*
X75481000Y-58245161D01*
X75481000Y-50339907D01*
X75490423Y-50292534D01*
X75453092Y-50104857D01*
X75346781Y-49945753D01*
X75187677Y-49839442D01*
X75047373Y-49811534D01*
X75000000Y-49802111D01*
X74952627Y-49811534D01*
X64416992Y-49811534D01*
X64443039Y-49772552D01*
X67972555Y-46243037D01*
X68014806Y-46214806D01*
X68093232Y-46097432D01*
X68126641Y-46047432D01*
X68165913Y-45850000D01*
X68156000Y-45800165D01*
X68156000Y-41898501D01*
X68312100Y-41742401D01*
X68431000Y-41455351D01*
X68431000Y-41144649D01*
X68312100Y-40857599D01*
X68092401Y-40637900D01*
X67805351Y-40519000D01*
X67494649Y-40519000D01*
X67207599Y-40637900D01*
X67050000Y-40795499D01*
X66892401Y-40637900D01*
X66605351Y-40519000D01*
X66294649Y-40519000D01*
X66007599Y-40637900D01*
X65787900Y-40857599D01*
X65669000Y-41144649D01*
X65669000Y-41365409D01*
X65656000Y-41378409D01*
X65656000Y-39743906D01*
X66522703Y-38877204D01*
X66557599Y-38912100D01*
X66844649Y-39031000D01*
X67155351Y-39031000D01*
X67442401Y-38912100D01*
X67662100Y-38692401D01*
X67781000Y-38405351D01*
X67781000Y-38094649D01*
X67662100Y-37807599D01*
X67442401Y-37587900D01*
X67155351Y-37469000D01*
X66844649Y-37469000D01*
X66557599Y-37587900D01*
X66405725Y-37739774D01*
X66236883Y-37773359D01*
X66225448Y-37781000D01*
X66069509Y-37885194D01*
X66041278Y-37927445D01*
X64827445Y-39141279D01*
X64785195Y-39169509D01*
X64699722Y-39297430D01*
X64673360Y-39336884D01*
X64634087Y-39534315D01*
X64644001Y-39584154D01*
X64644001Y-40028409D01*
X64481000Y-39865408D01*
X64481000Y-39844649D01*
X64362100Y-39557599D01*
X64142401Y-39337900D01*
X63855351Y-39219000D01*
X63544649Y-39219000D01*
X63267014Y-39334000D01*
X62427583Y-39334000D01*
X62368989Y-39192542D01*
X62047458Y-38871011D01*
X61627357Y-38697000D01*
X61172643Y-38697000D01*
X60752542Y-38871011D01*
X60431011Y-39192542D01*
X60406000Y-39252924D01*
X60406000Y-39009591D01*
X61031185Y-38384406D01*
X61172643Y-38443000D01*
X61627357Y-38443000D01*
X62047458Y-38268989D01*
X62368989Y-37947458D01*
X62543000Y-37527357D01*
X62543000Y-37072643D01*
X62368989Y-36652542D01*
X62251515Y-36535068D01*
X68959577Y-36535068D01*
X68969000Y-36582441D01*
X68969001Y-43587690D01*
X68959577Y-43635068D01*
X68996908Y-43822745D01*
X69103219Y-43981849D01*
X69262323Y-44088160D01*
X69402627Y-44116068D01*
X69450000Y-44125491D01*
X69497373Y-44116068D01*
X70452627Y-44116068D01*
X70500000Y-44125491D01*
X70547373Y-44116068D01*
X70687677Y-44088160D01*
X70846781Y-43981849D01*
X70953092Y-43822745D01*
X70990423Y-43635068D01*
X70981000Y-43587695D01*
X70981000Y-40085068D01*
X74499000Y-40085068D01*
X74613257Y-40659476D01*
X74938633Y-41146435D01*
X75425592Y-41471811D01*
X76000000Y-41586068D01*
X76574408Y-41471811D01*
X77061367Y-41146435D01*
X77386743Y-40659476D01*
X77501000Y-40085068D01*
X77386743Y-39510660D01*
X77061367Y-39023701D01*
X76574408Y-38698325D01*
X76000000Y-38584068D01*
X75425592Y-38698325D01*
X74938633Y-39023701D01*
X74613257Y-39510660D01*
X74499000Y-40085068D01*
X70981000Y-40085068D01*
X70981000Y-36582441D01*
X70990423Y-36535068D01*
X70953092Y-36347391D01*
X70846781Y-36188287D01*
X70687677Y-36081976D01*
X70547373Y-36054068D01*
X70500000Y-36044645D01*
X70452627Y-36054068D01*
X69497373Y-36054068D01*
X69450000Y-36044645D01*
X69402627Y-36054068D01*
X69262323Y-36081976D01*
X69103219Y-36188287D01*
X68996908Y-36347391D01*
X68959577Y-36535068D01*
X62251515Y-36535068D01*
X62047458Y-36331011D01*
X61906000Y-36272417D01*
X61906000Y-32349833D01*
X61915913Y-32299999D01*
X61894675Y-32193231D01*
X61876641Y-32102569D01*
X61764806Y-31935194D01*
X61722555Y-31906963D01*
X60160817Y-30345225D01*
X60132584Y-30302972D01*
X59965209Y-30191137D01*
X59817613Y-30161778D01*
X59817612Y-30161778D01*
X59788565Y-30156000D01*
X66800166Y-30156000D01*
X66850000Y-30165913D01*
X66899834Y-30156000D01*
X66899835Y-30156000D01*
X67047431Y-30126641D01*
X67214806Y-30014806D01*
X67243038Y-29972553D01*
X67898813Y-29316778D01*
X68095994Y-29356000D01*
X68304006Y-29356000D01*
X68612031Y-29294730D01*
X68634492Y-29279722D01*
X68619484Y-29302183D01*
X68537526Y-29714214D01*
X68619484Y-30126245D01*
X68852881Y-30475547D01*
X69202183Y-30708944D01*
X69510208Y-30770214D01*
X69718220Y-30770214D01*
X70026245Y-30708944D01*
X70375547Y-30475547D01*
X70608944Y-30126245D01*
X70690902Y-29714214D01*
X70608944Y-29302183D01*
X70375547Y-28952881D01*
X70026245Y-28719484D01*
X69718220Y-28658214D01*
X69510208Y-28658214D01*
X69202183Y-28719484D01*
X69179722Y-28734492D01*
X69194730Y-28712031D01*
X69276688Y-28300000D01*
X69194730Y-27887969D01*
X68961333Y-27538667D01*
X68612031Y-27305270D01*
X68304006Y-27244000D01*
X68095994Y-27244000D01*
X68016006Y-27259911D01*
X68083249Y-27066671D01*
X68053708Y-26556385D01*
X67915256Y-26222160D01*
X67684678Y-26166501D01*
X66965392Y-26885787D01*
X66979535Y-26899930D01*
X66799930Y-27079535D01*
X66785787Y-27065392D01*
X66066501Y-27784678D01*
X66122160Y-28015256D01*
X66456385Y-28153708D01*
X66966671Y-28183249D01*
X67159911Y-28116006D01*
X67123312Y-28300000D01*
X67183222Y-28601187D01*
X66640409Y-29144000D01*
X62360501Y-29144000D01*
X62362100Y-29142401D01*
X62481000Y-28855351D01*
X62481000Y-28544649D01*
X62362100Y-28257599D01*
X62142401Y-28037900D01*
X61855351Y-27919000D01*
X61544649Y-27919000D01*
X61257599Y-28037900D01*
X61101499Y-28194000D01*
X53749833Y-28194000D01*
X53699999Y-28184087D01*
X53650165Y-28194000D01*
X53502569Y-28223359D01*
X53335194Y-28335194D01*
X53306963Y-28377445D01*
X48890409Y-32794000D01*
X35349835Y-32794000D01*
X35300000Y-32784087D01*
X35102568Y-32823359D01*
X35047781Y-32859967D01*
X34935194Y-32935194D01*
X34906963Y-32977445D01*
X33377445Y-34506963D01*
X33335195Y-34535194D01*
X33261022Y-34646203D01*
X33223360Y-34702569D01*
X33184087Y-34900000D01*
X33194001Y-34949839D01*
X33194000Y-38938882D01*
X33189294Y-38915222D01*
X33077459Y-38747847D01*
X33035208Y-38719616D01*
X32293038Y-37977447D01*
X32264806Y-37935194D01*
X32097431Y-37823359D01*
X31949835Y-37794000D01*
X31949834Y-37794000D01*
X31900000Y-37784087D01*
X31850166Y-37794000D01*
X25309593Y-37794000D01*
X24606000Y-37090409D01*
X24606000Y-36998501D01*
X24762100Y-36842401D01*
X24881000Y-36555351D01*
X24881000Y-36244649D01*
X24762100Y-35957599D01*
X24542401Y-35737900D01*
X24255351Y-35619000D01*
X23944649Y-35619000D01*
X23657599Y-35737900D01*
X23437900Y-35957599D01*
X23319000Y-36244649D01*
X23319000Y-36555351D01*
X23437900Y-36842401D01*
X23594000Y-36998501D01*
X23594000Y-37250165D01*
X23584087Y-37300000D01*
X23594000Y-37349834D01*
X23623359Y-37497430D01*
X23735194Y-37664806D01*
X23777447Y-37693038D01*
X24706964Y-38622557D01*
X24735194Y-38664806D01*
X24777442Y-38693035D01*
X24902569Y-38776641D01*
X25100000Y-38815913D01*
X25149835Y-38806000D01*
X31690409Y-38806000D01*
X32206654Y-39322246D01*
X32206653Y-42249834D01*
X32206654Y-42249839D01*
X32206653Y-43176499D01*
X32050553Y-43332599D01*
X31931653Y-43619649D01*
X31931653Y-43930351D01*
X32050553Y-44217401D01*
X32270252Y-44437100D01*
X32557302Y-44556000D01*
X32868004Y-44556000D01*
X33155054Y-44437100D01*
X33374753Y-44217401D01*
X33493653Y-43930351D01*
X33493653Y-43619649D01*
X33413767Y-43426787D01*
X33544649Y-43481000D01*
X33855351Y-43481000D01*
X34142401Y-43362100D01*
X34362100Y-43142401D01*
X34481000Y-42855351D01*
X34481000Y-42544649D01*
X34362100Y-42257599D01*
X34206000Y-42101499D01*
X34206000Y-35109591D01*
X35509592Y-33806000D01*
X46189499Y-33806000D01*
X46037900Y-33957599D01*
X45919000Y-34244649D01*
X45919000Y-34555351D01*
X46037900Y-34842401D01*
X46257599Y-35062100D01*
X46544649Y-35181000D01*
X46588632Y-35181000D01*
X48169001Y-36761370D01*
X48169000Y-43676632D01*
X48165134Y-43672766D01*
X48129927Y-43620075D01*
X47921205Y-43480612D01*
X47737149Y-43444001D01*
X47675001Y-43431639D01*
X47612853Y-43444001D01*
X41212146Y-43444001D01*
X41149998Y-43431639D01*
X41070808Y-43447391D01*
X40903795Y-43480612D01*
X40695073Y-43620075D01*
X40659866Y-43672766D01*
X40638632Y-43694000D01*
X40594649Y-43694000D01*
X40307599Y-43812900D01*
X40087900Y-44032599D01*
X39969000Y-44319649D01*
X39969000Y-44630351D01*
X40087900Y-44917401D01*
X40307599Y-45137100D01*
X40594649Y-45256000D01*
X40905351Y-45256000D01*
X41192401Y-45137100D01*
X41412100Y-44917401D01*
X41499665Y-44706001D01*
X47413633Y-44706001D01*
X48169001Y-45461369D01*
X48169000Y-45826499D01*
X48137900Y-45857599D01*
X48019000Y-46144649D01*
X48019000Y-46455351D01*
X48137900Y-46742401D01*
X48345499Y-46950000D01*
X48187900Y-47107599D01*
X48069000Y-47394649D01*
X48069000Y-47705351D01*
X48187900Y-47992401D01*
X48407599Y-48212100D01*
X48694649Y-48331000D01*
X49005351Y-48331000D01*
X49292401Y-48212100D01*
X49448501Y-48056000D01*
X49700166Y-48056000D01*
X49750000Y-48065913D01*
X49799834Y-48056000D01*
X49799835Y-48056000D01*
X49947431Y-48026641D01*
X50114806Y-47914806D01*
X50143038Y-47872553D01*
X50944000Y-47071592D01*
X50944000Y-47440408D01*
X49440409Y-48944000D01*
X47949834Y-48944000D01*
X47900000Y-48934087D01*
X47850166Y-48944000D01*
X47850165Y-48944000D01*
X47702569Y-48973359D01*
X47535194Y-49085194D01*
X47506963Y-49127445D01*
X47177444Y-49456965D01*
X47177441Y-49456967D01*
X47165408Y-49469000D01*
X46944649Y-49469000D01*
X46657599Y-49587900D01*
X46437900Y-49807599D01*
X46319000Y-50094649D01*
X46319000Y-50405351D01*
X46376430Y-50544000D01*
X40399834Y-50544000D01*
X40350000Y-50534087D01*
X40300166Y-50544000D01*
X40300165Y-50544000D01*
X40152569Y-50573359D01*
X39985194Y-50685194D01*
X39956963Y-50727445D01*
X38627445Y-52056964D01*
X38585195Y-52085194D01*
X38474966Y-52250165D01*
X38473360Y-52252569D01*
X38434087Y-52450000D01*
X38444001Y-52499839D01*
X38444000Y-53701499D01*
X38287900Y-53857599D01*
X38169000Y-54144649D01*
X38169000Y-54455351D01*
X38247141Y-54644000D01*
X37948501Y-54644000D01*
X37792401Y-54487900D01*
X37505351Y-54369000D01*
X37194649Y-54369000D01*
X36907599Y-54487900D01*
X36687900Y-54707599D01*
X36569000Y-54994649D01*
X36569000Y-55305351D01*
X36687900Y-55592401D01*
X36712469Y-55616970D01*
X36709431Y-55619000D01*
X36494649Y-55619000D01*
X36207599Y-55737900D01*
X35987900Y-55957599D01*
X35869000Y-56244649D01*
X35869000Y-56555351D01*
X35987900Y-56842401D01*
X36207599Y-57062100D01*
X36494649Y-57181000D01*
X36805351Y-57181000D01*
X37092401Y-57062100D01*
X37312100Y-56842401D01*
X37431000Y-56555351D01*
X37431000Y-56506001D01*
X39300165Y-56506001D01*
X39349999Y-56515914D01*
X39399833Y-56506001D01*
X39399834Y-56506001D01*
X39547430Y-56476642D01*
X39714805Y-56364807D01*
X39743037Y-56322554D01*
X40618075Y-55447516D01*
X40680783Y-55598906D01*
X40751035Y-55669158D01*
X40700247Y-55719946D01*
X40581347Y-56006996D01*
X40581347Y-56317698D01*
X40700247Y-56604748D01*
X40856347Y-56760848D01*
X40856348Y-61439151D01*
X40737900Y-61557599D01*
X40619000Y-61844649D01*
X40619000Y-62155351D01*
X40697141Y-62344000D01*
X39198501Y-62344000D01*
X39042401Y-62187900D01*
X39025743Y-62181000D01*
X39155351Y-62181000D01*
X39442401Y-62062100D01*
X39662100Y-61842401D01*
X39781000Y-61555351D01*
X39781000Y-61244649D01*
X39662100Y-60957599D01*
X39442401Y-60737900D01*
X39155351Y-60619000D01*
X38844649Y-60619000D01*
X38557599Y-60737900D01*
X38401499Y-60894000D01*
X35049835Y-60894000D01*
X35000000Y-60884087D01*
X34802568Y-60923359D01*
X34757016Y-60953796D01*
X34635194Y-61035194D01*
X34606963Y-61077445D01*
X33377445Y-62306964D01*
X33335195Y-62335194D01*
X33223360Y-62502569D01*
X33184087Y-62700000D01*
X33194001Y-62749839D01*
X33194000Y-72690407D01*
X31090409Y-74794000D01*
X13298501Y-74794000D01*
X13142401Y-74637900D01*
X12855351Y-74519000D01*
X12544649Y-74519000D01*
X12257599Y-74637900D01*
X12037900Y-74857599D01*
X11919000Y-75144649D01*
X824886Y-75144649D01*
X481000Y-74800764D01*
X481000Y-68500000D01*
X499000Y-68500000D01*
X613257Y-69074408D01*
X938633Y-69561367D01*
X1425592Y-69886743D01*
X2000000Y-70001000D01*
X2574408Y-69886743D01*
X3061367Y-69561367D01*
X3386743Y-69074408D01*
X3501000Y-68500000D01*
X3386743Y-67925592D01*
X3326713Y-67835750D01*
X6165000Y-67835750D01*
X6165000Y-68526310D01*
X6261673Y-68759699D01*
X6440302Y-68938327D01*
X6673691Y-69035000D01*
X7364250Y-69035000D01*
X7523000Y-68876250D01*
X7523000Y-67677000D01*
X7777000Y-67677000D01*
X7777000Y-68876250D01*
X7935750Y-69035000D01*
X8626309Y-69035000D01*
X8859698Y-68938327D01*
X9038327Y-68759699D01*
X9135000Y-68526310D01*
X9135000Y-67835750D01*
X8976250Y-67677000D01*
X7777000Y-67677000D01*
X7523000Y-67677000D01*
X6323750Y-67677000D01*
X6165000Y-67835750D01*
X3326713Y-67835750D01*
X3061367Y-67438633D01*
X2574408Y-67113257D01*
X2000000Y-66999000D01*
X1425592Y-67113257D01*
X938633Y-67438633D01*
X613257Y-67925592D01*
X499000Y-68500000D01*
X481000Y-68500000D01*
X481000Y-66573690D01*
X6165000Y-66573690D01*
X6165000Y-67264250D01*
X6323750Y-67423000D01*
X7523000Y-67423000D01*
X7523000Y-67403000D01*
X7777000Y-67403000D01*
X7777000Y-67423000D01*
X8976250Y-67423000D01*
X9135000Y-67264250D01*
X9135000Y-66573690D01*
X9038327Y-66340301D01*
X8859698Y-66161673D01*
X8626309Y-66065000D01*
X8286821Y-66065000D01*
X8537501Y-65897501D01*
X8809576Y-65490312D01*
X8905116Y-65010000D01*
X8809576Y-64529688D01*
X8537501Y-64122499D01*
X8130312Y-63850424D01*
X7771239Y-63779000D01*
X7528761Y-63779000D01*
X7169688Y-63850424D01*
X6762499Y-64122499D01*
X6490424Y-64529688D01*
X6394884Y-65010000D01*
X6490424Y-65490312D01*
X6762499Y-65897501D01*
X7013179Y-66065000D01*
X6673691Y-66065000D01*
X6440302Y-66161673D01*
X6261673Y-66340301D01*
X6165000Y-66573690D01*
X481000Y-66573690D01*
X481000Y-62470000D01*
X6394884Y-62470000D01*
X6490424Y-62950312D01*
X6762499Y-63357501D01*
X7169688Y-63629576D01*
X7528761Y-63701000D01*
X7771239Y-63701000D01*
X8130312Y-63629576D01*
X8537501Y-63357501D01*
X8809576Y-62950312D01*
X8905116Y-62470000D01*
X8809576Y-61989688D01*
X8537501Y-61582499D01*
X8130312Y-61310424D01*
X7771239Y-61239000D01*
X7528761Y-61239000D01*
X7169688Y-61310424D01*
X6762499Y-61582499D01*
X6490424Y-61989688D01*
X6394884Y-62470000D01*
X481000Y-62470000D01*
X481000Y-50292534D01*
X2509577Y-50292534D01*
X2519001Y-50339912D01*
X2519000Y-58245161D01*
X2509577Y-58292534D01*
X2546908Y-58480211D01*
X2603433Y-58564806D01*
X2653219Y-58639315D01*
X2812323Y-58745626D01*
X3000000Y-58782957D01*
X3047373Y-58773534D01*
X20952627Y-58773534D01*
X21000000Y-58782957D01*
X21169000Y-58749341D01*
X21169000Y-64026499D01*
X21137900Y-64057599D01*
X21019000Y-64344649D01*
X21019000Y-64655351D01*
X21137900Y-64942401D01*
X21169000Y-64973501D01*
X21169000Y-65426499D01*
X21137900Y-65457599D01*
X21019000Y-65744649D01*
X21019000Y-66055351D01*
X21137900Y-66342401D01*
X21357599Y-66562100D01*
X21644649Y-66681000D01*
X21955351Y-66681000D01*
X22242401Y-66562100D01*
X22462100Y-66342401D01*
X22581000Y-66055351D01*
X22581000Y-65744649D01*
X22462100Y-65457599D01*
X22431000Y-65426499D01*
X22431000Y-64973501D01*
X22462100Y-64942401D01*
X22581000Y-64655351D01*
X22581000Y-64344649D01*
X22462100Y-64057599D01*
X22431000Y-64026499D01*
X22431000Y-49962146D01*
X22443362Y-49899999D01*
X22424982Y-49807599D01*
X22394389Y-49653796D01*
X22254926Y-49445074D01*
X22202238Y-49409869D01*
X21590132Y-48797764D01*
X21554926Y-48745074D01*
X21346204Y-48605611D01*
X21162148Y-48569000D01*
X21100000Y-48556638D01*
X21037852Y-48569000D01*
X6461369Y-48569000D01*
X5931000Y-48038632D01*
X5931000Y-38573501D01*
X5962100Y-38542401D01*
X6081000Y-38255351D01*
X6081000Y-37944649D01*
X5962100Y-37657599D01*
X5931000Y-37626499D01*
X5931000Y-37573501D01*
X6062100Y-37442401D01*
X6181000Y-37155351D01*
X6181000Y-36844649D01*
X6062100Y-36557599D01*
X6039569Y-36535068D01*
X7009577Y-36535068D01*
X7019000Y-36582441D01*
X7019001Y-43587690D01*
X7009577Y-43635068D01*
X7046908Y-43822745D01*
X7153219Y-43981849D01*
X7312323Y-44088160D01*
X7452627Y-44116068D01*
X7500000Y-44125491D01*
X7547373Y-44116068D01*
X8502627Y-44116068D01*
X8550000Y-44125491D01*
X8597373Y-44116068D01*
X8737677Y-44088160D01*
X8896781Y-43981849D01*
X9003092Y-43822745D01*
X9040423Y-43635068D01*
X9031000Y-43587695D01*
X9031000Y-36582441D01*
X9040423Y-36535068D01*
X9003092Y-36347391D01*
X8896781Y-36188287D01*
X8737677Y-36081976D01*
X8597373Y-36054068D01*
X8550000Y-36044645D01*
X8502627Y-36054068D01*
X7547373Y-36054068D01*
X7500000Y-36044645D01*
X7452627Y-36054068D01*
X7312323Y-36081976D01*
X7153219Y-36188287D01*
X7046908Y-36347391D01*
X7009577Y-36535068D01*
X6039569Y-36535068D01*
X5842401Y-36337900D01*
X5555351Y-36219000D01*
X5244649Y-36219000D01*
X4957599Y-36337900D01*
X4737900Y-36557599D01*
X4619000Y-36844649D01*
X4619000Y-37155351D01*
X4669001Y-37276064D01*
X4669000Y-37626499D01*
X4637900Y-37657599D01*
X4519000Y-37944649D01*
X4519000Y-38255351D01*
X4637900Y-38542401D01*
X4669001Y-38573502D01*
X4669000Y-48237852D01*
X4656638Y-48300000D01*
X4681176Y-48423359D01*
X4705611Y-48546203D01*
X4845074Y-48754926D01*
X4897764Y-48790132D01*
X5709869Y-49602238D01*
X5745074Y-49654926D01*
X5953796Y-49794389D01*
X6039990Y-49811534D01*
X3047373Y-49811534D01*
X3000000Y-49802111D01*
X2952627Y-49811534D01*
X2812323Y-49839442D01*
X2653219Y-49945753D01*
X2546908Y-50104857D01*
X2509577Y-50292534D01*
X481000Y-50292534D01*
X481000Y-40085068D01*
X499000Y-40085068D01*
X613257Y-40659476D01*
X938633Y-41146435D01*
X1425592Y-41471811D01*
X2000000Y-41586068D01*
X2574408Y-41471811D01*
X3061367Y-41146435D01*
X3386743Y-40659476D01*
X3501000Y-40085068D01*
X3386743Y-39510660D01*
X3061367Y-39023701D01*
X2574408Y-38698325D01*
X2000000Y-38584068D01*
X1425592Y-38698325D01*
X938633Y-39023701D01*
X613257Y-39510660D01*
X499000Y-40085068D01*
X481000Y-40085068D01*
X481000Y-35491770D01*
X6144343Y-29828427D01*
X7294885Y-29828427D01*
X7376843Y-30240458D01*
X7610240Y-30589760D01*
X7959542Y-30823157D01*
X8267567Y-30884427D01*
X8475579Y-30884427D01*
X8667129Y-30846325D01*
X8681766Y-30868232D01*
X8794353Y-30943459D01*
X8849140Y-30980067D01*
X8993114Y-31008706D01*
X11894000Y-33909592D01*
X11894001Y-38589841D01*
X11876641Y-38502569D01*
X11793035Y-38377442D01*
X11764806Y-38335194D01*
X11722559Y-38306966D01*
X11181000Y-37765408D01*
X11181000Y-37544649D01*
X11062100Y-37257599D01*
X10842401Y-37037900D01*
X10555351Y-36919000D01*
X10244649Y-36919000D01*
X9957599Y-37037900D01*
X9737900Y-37257599D01*
X9619000Y-37544649D01*
X9619000Y-37855351D01*
X9737900Y-38142401D01*
X9957599Y-38362100D01*
X10169808Y-38450000D01*
X9957599Y-38537900D01*
X9737900Y-38757599D01*
X9619000Y-39044649D01*
X9619000Y-39355351D01*
X9737900Y-39642401D01*
X9894001Y-39798502D01*
X9894001Y-39850162D01*
X9884087Y-39900000D01*
X9917378Y-40067357D01*
X9923360Y-40097431D01*
X10034950Y-40264439D01*
X9857599Y-40337900D01*
X9637900Y-40557599D01*
X9519000Y-40844649D01*
X9519000Y-41155351D01*
X9637900Y-41442401D01*
X9857599Y-41662100D01*
X10069808Y-41750000D01*
X9857599Y-41837900D01*
X9637900Y-42057599D01*
X9519000Y-42344649D01*
X9519000Y-42655351D01*
X9637900Y-42942401D01*
X9857599Y-43162100D01*
X10144649Y-43281000D01*
X10455351Y-43281000D01*
X10742401Y-43162100D01*
X10898501Y-43006000D01*
X25490409Y-43006000D01*
X26044777Y-43560368D01*
X25857599Y-43637900D01*
X25637900Y-43857599D01*
X25519000Y-44144649D01*
X25519000Y-44455351D01*
X25637900Y-44742401D01*
X25656323Y-44760824D01*
X25555351Y-44719000D01*
X25244649Y-44719000D01*
X25181000Y-44745364D01*
X25181000Y-44544649D01*
X25062100Y-44257599D01*
X24842401Y-44037900D01*
X24555351Y-43919000D01*
X24244649Y-43919000D01*
X23957599Y-44037900D01*
X23737900Y-44257599D01*
X23619000Y-44544649D01*
X23619000Y-44765409D01*
X23277445Y-45106964D01*
X23235195Y-45135194D01*
X23191894Y-45200000D01*
X23123360Y-45302569D01*
X23084087Y-45500000D01*
X23094001Y-45549839D01*
X23094000Y-55450165D01*
X23084087Y-55500000D01*
X23094000Y-55549834D01*
X23123359Y-55697430D01*
X23235194Y-55864806D01*
X23277447Y-55893038D01*
X24106963Y-56722555D01*
X24135194Y-56764806D01*
X24302569Y-56876641D01*
X24450165Y-56906000D01*
X24499999Y-56915913D01*
X24549833Y-56906000D01*
X26150166Y-56906000D01*
X26200000Y-56915913D01*
X26249834Y-56906000D01*
X26249835Y-56906000D01*
X26397431Y-56876641D01*
X26564806Y-56764806D01*
X26593038Y-56722553D01*
X26834591Y-56481000D01*
X27055351Y-56481000D01*
X27342401Y-56362100D01*
X27562100Y-56142401D01*
X27681000Y-55855351D01*
X27681000Y-55544649D01*
X27562100Y-55257599D01*
X27342401Y-55037900D01*
X27055351Y-54919000D01*
X26744649Y-54919000D01*
X26457599Y-55037900D01*
X26237900Y-55257599D01*
X26119000Y-55544649D01*
X26119000Y-55765409D01*
X25990409Y-55894000D01*
X25410501Y-55894000D01*
X25462100Y-55842401D01*
X25581000Y-55555351D01*
X25581000Y-55281000D01*
X25855351Y-55281000D01*
X26142401Y-55162100D01*
X26362100Y-54942401D01*
X26481000Y-54655351D01*
X26481000Y-54434592D01*
X26622556Y-54293036D01*
X26664806Y-54264806D01*
X26776641Y-54097431D01*
X26806000Y-53949835D01*
X26806000Y-53949834D01*
X26815913Y-53900001D01*
X26806000Y-53850167D01*
X26806000Y-49323570D01*
X26944649Y-49381000D01*
X27255351Y-49381000D01*
X27542401Y-49262100D01*
X27762100Y-49042401D01*
X27881000Y-48755351D01*
X27881000Y-48444649D01*
X27854636Y-48381000D01*
X28155351Y-48381000D01*
X28193296Y-48365283D01*
X28119000Y-48544649D01*
X28119000Y-48855351D01*
X28237900Y-49142401D01*
X28457599Y-49362100D01*
X28744649Y-49481000D01*
X29055351Y-49481000D01*
X29342401Y-49362100D01*
X29562100Y-49142401D01*
X29589832Y-49075451D01*
X29844649Y-49181000D01*
X30155351Y-49181000D01*
X30442401Y-49062100D01*
X30662100Y-48842401D01*
X30781000Y-48555351D01*
X30781000Y-48244649D01*
X30662100Y-47957599D01*
X30506000Y-47801499D01*
X30506000Y-43749835D01*
X30515913Y-43700000D01*
X30476641Y-43502568D01*
X30437508Y-43444001D01*
X30364806Y-43335194D01*
X30322556Y-43306964D01*
X27621591Y-40606000D01*
X29201499Y-40606000D01*
X29357599Y-40762100D01*
X29644649Y-40881000D01*
X29955351Y-40881000D01*
X30242401Y-40762100D01*
X30462100Y-40542401D01*
X30581000Y-40255351D01*
X30581000Y-39944649D01*
X30462100Y-39657599D01*
X30242401Y-39437900D01*
X29955351Y-39319000D01*
X29644649Y-39319000D01*
X29357599Y-39437900D01*
X29201499Y-39594000D01*
X14409593Y-39594000D01*
X13706000Y-38890409D01*
X13706000Y-31878259D01*
X13715913Y-31828425D01*
X13705486Y-31776005D01*
X13676641Y-31630995D01*
X13564806Y-31463620D01*
X13522555Y-31435389D01*
X10802565Y-28715400D01*
X10862475Y-28414213D01*
X10825876Y-28230219D01*
X11019116Y-28297462D01*
X11529402Y-28267921D01*
X11863627Y-28129469D01*
X11919286Y-27898891D01*
X11200000Y-27179605D01*
X11185858Y-27193748D01*
X11006253Y-27014143D01*
X11020395Y-27000000D01*
X10301109Y-26280714D01*
X10070531Y-26336373D01*
X9932079Y-26670598D01*
X9902538Y-27180884D01*
X9969781Y-27374124D01*
X9889793Y-27358213D01*
X9681781Y-27358213D01*
X9373756Y-27419483D01*
X9024454Y-27652880D01*
X8791057Y-28002182D01*
X8709099Y-28414213D01*
X8791057Y-28826244D01*
X8806065Y-28848705D01*
X8783604Y-28833697D01*
X8475579Y-28772427D01*
X8267567Y-28772427D01*
X7959542Y-28833697D01*
X7610240Y-29067094D01*
X7376843Y-29416396D01*
X7294885Y-29828427D01*
X6144343Y-29828427D01*
X9871661Y-26101109D01*
X10480714Y-26101109D01*
X11200000Y-26820395D01*
X11214143Y-26806253D01*
X11393748Y-26985858D01*
X11379605Y-27000000D01*
X12098891Y-27719286D01*
X12329469Y-27663627D01*
X12467921Y-27329402D01*
X12492511Y-26904636D01*
X12614214Y-26928844D01*
X12762873Y-26899274D01*
X12888900Y-26815066D01*
X13411432Y-26292534D01*
X30499000Y-26292534D01*
X30613257Y-26866942D01*
X30938633Y-27353901D01*
X31425592Y-27679277D01*
X32000000Y-27793534D01*
X32574408Y-27679277D01*
X33061367Y-27353901D01*
X33386743Y-26866942D01*
X33501000Y-26292534D01*
X44499000Y-26292534D01*
X44613257Y-26866942D01*
X44938633Y-27353901D01*
X45425592Y-27679277D01*
X46000000Y-27793534D01*
X46574408Y-27679277D01*
X47061367Y-27353901D01*
X47386743Y-26866942D01*
X47501000Y-26292534D01*
X47386743Y-25718126D01*
X47222002Y-25471573D01*
X64028515Y-25471573D01*
X64058085Y-25620232D01*
X64142293Y-25746259D01*
X65096887Y-26700853D01*
X65222914Y-26785061D01*
X65371573Y-26814631D01*
X65493276Y-26790423D01*
X65517866Y-27215189D01*
X65656318Y-27549414D01*
X65886896Y-27605073D01*
X66606182Y-26885787D01*
X66592040Y-26871645D01*
X66771645Y-26692040D01*
X66785787Y-26706182D01*
X67505073Y-25986896D01*
X67449414Y-25756318D01*
X67115189Y-25617866D01*
X66690423Y-25593276D01*
X66714631Y-25471573D01*
X66685061Y-25322914D01*
X66600853Y-25196887D01*
X65646259Y-24242293D01*
X65520232Y-24158085D01*
X65371573Y-24128515D01*
X65222914Y-24158085D01*
X65096887Y-24242293D01*
X64142293Y-25196887D01*
X64058085Y-25322914D01*
X64028515Y-25471573D01*
X47222002Y-25471573D01*
X47061367Y-25231167D01*
X46574408Y-24905791D01*
X46000000Y-24791534D01*
X45425592Y-24905791D01*
X44938633Y-25231167D01*
X44613257Y-25718126D01*
X44499000Y-26292534D01*
X33501000Y-26292534D01*
X33386743Y-25718126D01*
X33061367Y-25231167D01*
X32574408Y-24905791D01*
X32000000Y-24791534D01*
X31425592Y-24905791D01*
X30938633Y-25231167D01*
X30613257Y-25718126D01*
X30499000Y-26292534D01*
X13411432Y-26292534D01*
X13843494Y-25860472D01*
X13927702Y-25734445D01*
X13957272Y-25585786D01*
X13927702Y-25437127D01*
X13843494Y-25311100D01*
X12888900Y-24356506D01*
X12762873Y-24272298D01*
X12614214Y-24242728D01*
X12465555Y-24272298D01*
X12339528Y-24356506D01*
X11384934Y-25311100D01*
X11300726Y-25437127D01*
X11271156Y-25585786D01*
X11295364Y-25707489D01*
X10870598Y-25732079D01*
X10536373Y-25870531D01*
X10480714Y-26101109D01*
X9871661Y-26101109D01*
X13599158Y-22373613D01*
X13639315Y-22346781D01*
X13666148Y-22306623D01*
X13666150Y-22306621D01*
X13745626Y-22187677D01*
X13745626Y-22187676D01*
X13757695Y-22127000D01*
X15343854Y-22127000D01*
X15355923Y-22187677D01*
G36*
X59757599Y-36512100D02*
X60044649Y-36631000D01*
X60355351Y-36631000D01*
X60521285Y-36562268D01*
X60431011Y-36652542D01*
X60257000Y-37072643D01*
X60257000Y-37527357D01*
X60315594Y-37668815D01*
X59577445Y-38406964D01*
X59535195Y-38435194D01*
X59435722Y-38584068D01*
X59423360Y-38602569D01*
X59384087Y-38800000D01*
X59394001Y-38849839D01*
X59394001Y-41945365D01*
X59330351Y-41919000D01*
X59019649Y-41919000D01*
X58732599Y-42037900D01*
X58512900Y-42257599D01*
X58394000Y-42544649D01*
X58394000Y-42855351D01*
X58512900Y-43142401D01*
X58669001Y-43298502D01*
X58669000Y-44765408D01*
X57990409Y-45444000D01*
X55349833Y-45444000D01*
X55299999Y-45434087D01*
X55250165Y-45444000D01*
X55102569Y-45473359D01*
X55054323Y-45505595D01*
X55189144Y-45127698D01*
X55161362Y-44572632D01*
X55002397Y-44188857D01*
X54760213Y-44119392D01*
X53959605Y-44920000D01*
X53973748Y-44934143D01*
X53794143Y-45113748D01*
X53780000Y-45099605D01*
X52979392Y-45900213D01*
X53048857Y-46142397D01*
X53572302Y-46329144D01*
X54127368Y-46301362D01*
X54307772Y-46226636D01*
X52705828Y-47828580D01*
X52726641Y-47797432D01*
X52765913Y-47600000D01*
X52756000Y-47550165D01*
X52756000Y-45708049D01*
X52799787Y-45720608D01*
X53600395Y-44920000D01*
X52799787Y-44119392D01*
X52756000Y-44131951D01*
X52756000Y-42894649D01*
X52811011Y-43027458D01*
X53132542Y-43348989D01*
X53552643Y-43523000D01*
X53745069Y-43523000D01*
X53432632Y-43538638D01*
X53048857Y-43697603D01*
X52979392Y-43939787D01*
X53780000Y-44740395D01*
X54580608Y-43939787D01*
X54511143Y-43697603D01*
X54014011Y-43520244D01*
X54427458Y-43348989D01*
X54748989Y-43027458D01*
X54923000Y-42607357D01*
X54923000Y-42152643D01*
X54748989Y-41732542D01*
X54427458Y-41411011D01*
X54007357Y-41237000D01*
X53552643Y-41237000D01*
X53132542Y-41411011D01*
X52811011Y-41732542D01*
X52756000Y-41865351D01*
X52756000Y-40354649D01*
X52811011Y-40487458D01*
X53132542Y-40808989D01*
X53552643Y-40983000D01*
X54007357Y-40983000D01*
X54427458Y-40808989D01*
X54748989Y-40487458D01*
X54923000Y-40067357D01*
X54923000Y-39612643D01*
X54748989Y-39192542D01*
X54427458Y-38871011D01*
X54007357Y-38697000D01*
X53552643Y-38697000D01*
X53132542Y-38871011D01*
X52811011Y-39192542D01*
X52756000Y-39325351D01*
X52756000Y-39039591D01*
X53411185Y-38384406D01*
X53552643Y-38443000D01*
X54007357Y-38443000D01*
X54427458Y-38268989D01*
X54748989Y-37947458D01*
X54923000Y-37527357D01*
X54923000Y-37072643D01*
X54748989Y-36652542D01*
X54452447Y-36356000D01*
X59601499Y-36356000D01*
X59757599Y-36512100D01*
X59757599Y-36512100D01*
G37*
X59757599Y-36512100D02*
X60044649Y-36631000D01*
X60355351Y-36631000D01*
X60521285Y-36562268D01*
X60431011Y-36652542D01*
X60257000Y-37072643D01*
X60257000Y-37527357D01*
X60315594Y-37668815D01*
X59577445Y-38406964D01*
X59535195Y-38435194D01*
X59435722Y-38584068D01*
X59423360Y-38602569D01*
X59384087Y-38800000D01*
X59394001Y-38849839D01*
X59394001Y-41945365D01*
X59330351Y-41919000D01*
X59019649Y-41919000D01*
X58732599Y-42037900D01*
X58512900Y-42257599D01*
X58394000Y-42544649D01*
X58394000Y-42855351D01*
X58512900Y-43142401D01*
X58669001Y-43298502D01*
X58669000Y-44765408D01*
X57990409Y-45444000D01*
X55349833Y-45444000D01*
X55299999Y-45434087D01*
X55250165Y-45444000D01*
X55102569Y-45473359D01*
X55054323Y-45505595D01*
X55189144Y-45127698D01*
X55161362Y-44572632D01*
X55002397Y-44188857D01*
X54760213Y-44119392D01*
X53959605Y-44920000D01*
X53973748Y-44934143D01*
X53794143Y-45113748D01*
X53780000Y-45099605D01*
X52979392Y-45900213D01*
X53048857Y-46142397D01*
X53572302Y-46329144D01*
X54127368Y-46301362D01*
X54307772Y-46226636D01*
X52705828Y-47828580D01*
X52726641Y-47797432D01*
X52765913Y-47600000D01*
X52756000Y-47550165D01*
X52756000Y-45708049D01*
X52799787Y-45720608D01*
X53600395Y-44920000D01*
X52799787Y-44119392D01*
X52756000Y-44131951D01*
X52756000Y-42894649D01*
X52811011Y-43027458D01*
X53132542Y-43348989D01*
X53552643Y-43523000D01*
X53745069Y-43523000D01*
X53432632Y-43538638D01*
X53048857Y-43697603D01*
X52979392Y-43939787D01*
X53780000Y-44740395D01*
X54580608Y-43939787D01*
X54511143Y-43697603D01*
X54014011Y-43520244D01*
X54427458Y-43348989D01*
X54748989Y-43027458D01*
X54923000Y-42607357D01*
X54923000Y-42152643D01*
X54748989Y-41732542D01*
X54427458Y-41411011D01*
X54007357Y-41237000D01*
X53552643Y-41237000D01*
X53132542Y-41411011D01*
X52811011Y-41732542D01*
X52756000Y-41865351D01*
X52756000Y-40354649D01*
X52811011Y-40487458D01*
X53132542Y-40808989D01*
X53552643Y-40983000D01*
X54007357Y-40983000D01*
X54427458Y-40808989D01*
X54748989Y-40487458D01*
X54923000Y-40067357D01*
X54923000Y-39612643D01*
X54748989Y-39192542D01*
X54427458Y-38871011D01*
X54007357Y-38697000D01*
X53552643Y-38697000D01*
X53132542Y-38871011D01*
X52811011Y-39192542D01*
X52756000Y-39325351D01*
X52756000Y-39039591D01*
X53411185Y-38384406D01*
X53552643Y-38443000D01*
X54007357Y-38443000D01*
X54427458Y-38268989D01*
X54748989Y-37947458D01*
X54923000Y-37527357D01*
X54923000Y-37072643D01*
X54748989Y-36652542D01*
X54452447Y-36356000D01*
X59601499Y-36356000D01*
X59757599Y-36512100D01*
G36*
X53546827Y-30823129D02*
X53665727Y-31110179D01*
X53885426Y-31329878D01*
X54172476Y-31448778D01*
X54483178Y-31448778D01*
X54770228Y-31329878D01*
X54926328Y-31173778D01*
X59558187Y-31173778D01*
X60894001Y-32509593D01*
X60894000Y-35484613D01*
X60862100Y-35407599D01*
X60642401Y-35187900D01*
X60355351Y-35069000D01*
X60044649Y-35069000D01*
X59757599Y-35187900D01*
X59601499Y-35344000D01*
X53099835Y-35344000D01*
X53050000Y-35334087D01*
X52852568Y-35373359D01*
X52817325Y-35396908D01*
X52685194Y-35485194D01*
X52656963Y-35527445D01*
X51777444Y-36406965D01*
X51777442Y-36406966D01*
X51400322Y-36784087D01*
X51206000Y-36978409D01*
X51206000Y-32959591D01*
X53546827Y-30618765D01*
X53546827Y-30823129D01*
X53546827Y-30823129D01*
G37*
X53546827Y-30823129D02*
X53665727Y-31110179D01*
X53885426Y-31329878D01*
X54172476Y-31448778D01*
X54483178Y-31448778D01*
X54770228Y-31329878D01*
X54926328Y-31173778D01*
X59558187Y-31173778D01*
X60894001Y-32509593D01*
X60894000Y-35484613D01*
X60862100Y-35407599D01*
X60642401Y-35187900D01*
X60355351Y-35069000D01*
X60044649Y-35069000D01*
X59757599Y-35187900D01*
X59601499Y-35344000D01*
X53099835Y-35344000D01*
X53050000Y-35334087D01*
X52852568Y-35373359D01*
X52817325Y-35396908D01*
X52685194Y-35485194D01*
X52656963Y-35527445D01*
X51777444Y-36406965D01*
X51777442Y-36406966D01*
X51400322Y-36784087D01*
X51206000Y-36978409D01*
X51206000Y-32959591D01*
X53546827Y-30618765D01*
X53546827Y-30823129D01*
G04 #@! TD*
M02*
