G04 #@! TF.GenerationSoftware,KiCad,Pcbnew,(5.0.0)*
G04 #@! TF.CreationDate,2020-04-07T20:50:25+09:00*
G04 #@! TF.ProjectId,rokisi,726F6B6973692E6B696361645F706362,rev?*
G04 #@! TF.SameCoordinates,PX41cdb40PY30a32c0*
G04 #@! TF.FileFunction,Legend,Top*
G04 #@! TF.FilePolarity,Positive*
%FSLAX46Y46*%
G04 Gerber Fmt 4.6, Leading zero omitted, Abs format (unit mm)*
G04 Created by KiCad (PCBNEW (5.0.0)) date 04/07/20 20:50:25*
%MOMM*%
%LPD*%
G01*
G04 APERTURE LIST*
%ADD10C,0.150000*%
%ADD11C,0.120000*%
%ADD12C,0.254000*%
%ADD13R,2.900000X1.400000*%
%ADD14C,1.924000*%
%ADD15R,1.300000X1.600000*%
%ADD16R,2.100000X2.100000*%
%ADD17O,2.100000X2.100000*%
%ADD18R,1.600000X1.300000*%
%ADD19R,0.700000X1.900000*%
%ADD20R,2.700000X3.700000*%
%ADD21R,1.100000X1.700000*%
%ADD22R,1.600000X1.200000*%
%ADD23R,1.900000X2.400000*%
%ADD24R,4.200000X2.400000*%
%ADD25R,2.150000X0.850000*%
%ADD26R,2.000000X0.650000*%
%ADD27R,0.650000X2.000000*%
%ADD28R,2.300000X1.200000*%
%ADD29R,1.600000X1.150000*%
%ADD30R,2.400000X2.000000*%
%ADD31R,1.150000X1.600000*%
%ADD32O,1.750000X1.750000*%
%ADD33R,1.750000X1.750000*%
%ADD34R,1.700000X1.300000*%
%ADD35R,1.400000X2.900000*%
%ADD36R,1.200000X1.400000*%
%ADD37C,1.750000*%
%ADD38C,1.750000*%
%ADD39C,0.100000*%
%ADD40R,2.100000X1.400000*%
%ADD41R,2.000000X1.400000*%
%ADD42R,1.400000X2.000000*%
%ADD43R,3.000000X1.000000*%
%ADD44O,1.350000X0.700000*%
%ADD45O,0.700000X1.350000*%
%ADD46R,0.600000X1.100000*%
%ADD47R,1.100000X0.600000*%
G04 APERTURE END LIST*
D10*
G04 #@! TO.C,U12*
X63400000Y-35300000D02*
X63400000Y-47300000D01*
X63400000Y-47300000D02*
X51400000Y-47300000D01*
X51400000Y-47300000D02*
X51400000Y-35300000D01*
X51400000Y-35300000D02*
X63400000Y-35300000D01*
G04 #@! TO.C,D4*
X18252930Y-41744366D02*
X18252930Y-38061366D01*
X18252930Y-41744366D02*
X16982930Y-41744366D01*
X16982930Y-41744366D02*
X16982930Y-38124866D01*
X16982930Y-38124866D02*
X16982930Y-38061366D01*
X16982930Y-38061366D02*
X18252930Y-38061366D01*
X17617930Y-40029866D02*
X17617930Y-39775866D01*
X17427430Y-39775866D02*
X17617930Y-40093366D01*
X17617930Y-40093366D02*
X17808430Y-39775866D01*
X17808430Y-39775866D02*
X17427430Y-39775866D01*
G04 #@! TO.C,D3*
X21702930Y-41744366D02*
X21702930Y-38061366D01*
X21702930Y-41744366D02*
X20432930Y-41744366D01*
X20432930Y-41744366D02*
X20432930Y-38124866D01*
X20432930Y-38124866D02*
X20432930Y-38061366D01*
X20432930Y-38061366D02*
X21702930Y-38061366D01*
X21067930Y-40029866D02*
X21067930Y-39775866D01*
X20877430Y-39775866D02*
X21067930Y-40093366D01*
X21067930Y-40093366D02*
X21258430Y-39775866D01*
X21258430Y-39775866D02*
X20877430Y-39775866D01*
G04 #@! TO.C,D5*
X19608430Y-39775866D02*
X19227430Y-39775866D01*
X19417930Y-40093366D02*
X19608430Y-39775866D01*
X19227430Y-39775866D02*
X19417930Y-40093366D01*
X19417930Y-40029866D02*
X19417930Y-39775866D01*
X18782930Y-38061366D02*
X20052930Y-38061366D01*
X18782930Y-38124866D02*
X18782930Y-38061366D01*
X18782930Y-41744366D02*
X18782930Y-38124866D01*
X20052930Y-41744366D02*
X18782930Y-41744366D01*
X20052930Y-41744366D02*
X20052930Y-38061366D01*
G04 #@! TO.C,D6*
X15908430Y-39775866D02*
X15527430Y-39775866D01*
X15717930Y-40093366D02*
X15908430Y-39775866D01*
X15527430Y-39775866D02*
X15717930Y-40093366D01*
X15717930Y-40029866D02*
X15717930Y-39775866D01*
X15082930Y-38061366D02*
X16352930Y-38061366D01*
X15082930Y-38124866D02*
X15082930Y-38061366D01*
X15082930Y-41744366D02*
X15082930Y-38124866D01*
X16352930Y-41744366D02*
X15082930Y-41744366D01*
X16352930Y-41744366D02*
X16352930Y-38061366D01*
D11*
G04 #@! TO.C,R14*
X20387930Y-44552866D02*
X20387930Y-43552866D01*
X21747930Y-43552866D02*
X21747930Y-44552866D01*
G04 #@! TO.C,R15*
X16937930Y-44552866D02*
X16937930Y-43552866D01*
X18297930Y-43552866D02*
X18297930Y-44552866D01*
G04 #@! TO.C,R16*
X20097930Y-43552866D02*
X20097930Y-44552866D01*
X18737930Y-44552866D02*
X18737930Y-43552866D01*
G04 #@! TO.C,R17*
X15037930Y-44502866D02*
X15037930Y-43502866D01*
X16397930Y-43502866D02*
X16397930Y-44502866D01*
G04 #@! TO.C,CN1*
X70980000Y-66230000D02*
X68320000Y-66230000D01*
X70980000Y-68830000D02*
X70980000Y-66230000D01*
X68320000Y-68830000D02*
X68320000Y-66230000D01*
X70980000Y-68830000D02*
X68320000Y-68830000D01*
X70980000Y-70100000D02*
X70980000Y-71430000D01*
X70980000Y-71430000D02*
X69650000Y-71430000D01*
G04 #@! TO.C,D1*
X65950000Y-67800000D02*
X65950000Y-66700000D01*
X65950000Y-66700000D02*
X63350000Y-66700000D01*
X65950000Y-67800000D02*
X63350000Y-67800000D01*
D12*
G04 #@! TO.C,J4*
X32950000Y-36375000D02*
X32950000Y-35075000D01*
X32950000Y-35075000D02*
X45050000Y-35075000D01*
X45050000Y-35075000D02*
X45050000Y-36375000D01*
X44550000Y-40143000D02*
X42381000Y-40143000D01*
X35619000Y-40143000D02*
X33412000Y-40143000D01*
X33412000Y-40143000D02*
X33412000Y-39706000D01*
X32950000Y-36375000D02*
X32969000Y-36375000D01*
X35731000Y-36375000D02*
X42269000Y-36375000D01*
X45031000Y-36375000D02*
X45050000Y-36375000D01*
X44550000Y-40143000D02*
X44550000Y-39706000D01*
X35444000Y-40651000D02*
G75*
G03X35444000Y-40651000I-127000J0D01*
G01*
D11*
G04 #@! TO.C,R2*
X66430000Y-71500000D02*
X66430000Y-72500000D01*
X65070000Y-72500000D02*
X65070000Y-71500000D01*
G04 #@! TO.C,R4*
X61400000Y-68220000D02*
X62400000Y-68220000D01*
X62400000Y-69580000D02*
X61400000Y-69580000D01*
D10*
G04 #@! TO.C,U1*
X62590000Y-79976000D02*
X68690000Y-79976000D01*
X62290000Y-78576000D02*
X62290000Y-79176000D01*
X68990000Y-78576000D02*
X68990000Y-79176000D01*
D11*
G04 #@! TO.C,U2*
X30490000Y-76100000D02*
X30490000Y-70090000D01*
X37310000Y-73850000D02*
X37310000Y-70090000D01*
X30490000Y-70090000D02*
X31750000Y-70090000D01*
X37310000Y-70090000D02*
X36050000Y-70090000D01*
G04 #@! TO.C,U3*
X29310000Y-70090000D02*
X28050000Y-70090000D01*
X22490000Y-70090000D02*
X23750000Y-70090000D01*
X29310000Y-73850000D02*
X29310000Y-70090000D01*
X22490000Y-76100000D02*
X22490000Y-70090000D01*
D10*
G04 #@! TO.C,U7*
X51875000Y-73425000D02*
X51875000Y-73200000D01*
X46125000Y-73425000D02*
X46125000Y-73125000D01*
X46125000Y-64775000D02*
X46125000Y-65075000D01*
X51875000Y-64775000D02*
X51875000Y-65075000D01*
X51875000Y-73425000D02*
X46125000Y-73425000D01*
X51875000Y-64775000D02*
X46125000Y-64775000D01*
X51875000Y-73200000D02*
X53475000Y-73200000D01*
G04 #@! TO.C,U8*
X42875000Y-57575000D02*
X42875000Y-56575000D01*
X32525000Y-57575000D02*
X32525000Y-56500000D01*
X32525000Y-47225000D02*
X32525000Y-48300000D01*
X42875000Y-47225000D02*
X42875000Y-48300000D01*
X42875000Y-57575000D02*
X41800000Y-57575000D01*
X42875000Y-47225000D02*
X41800000Y-47225000D01*
X32525000Y-47225000D02*
X33600000Y-47225000D01*
X32525000Y-57575000D02*
X33600000Y-57575000D01*
X42875000Y-56575000D02*
X43900000Y-56575000D01*
D11*
G04 #@! TO.C,Q1*
X60990000Y-70420000D02*
X60990000Y-71350000D01*
X60990000Y-73580000D02*
X60990000Y-72650000D01*
X60990000Y-73580000D02*
X64150000Y-73580000D01*
X60990000Y-70420000D02*
X62450000Y-70420000D01*
G04 #@! TO.C,C1*
X45853980Y-59256809D02*
X46553980Y-59256809D01*
X46553980Y-60456809D02*
X45853980Y-60456809D01*
G04 #@! TO.C,C2*
X45853980Y-57656809D02*
X46553980Y-57656809D01*
X46553980Y-58856809D02*
X45853980Y-58856809D01*
G04 #@! TO.C,C3*
X32350000Y-78700000D02*
X33050000Y-78700000D01*
X33050000Y-79900000D02*
X32350000Y-79900000D01*
G04 #@! TO.C,C4*
X33000000Y-78200000D02*
X32300000Y-78200000D01*
X32300000Y-77000000D02*
X33000000Y-77000000D01*
G04 #@! TO.C,C5*
X25150000Y-79800000D02*
X24450000Y-79800000D01*
X24450000Y-78600000D02*
X25150000Y-78600000D01*
G04 #@! TO.C,C6*
X24450000Y-76900000D02*
X25150000Y-76900000D01*
X25150000Y-78100000D02*
X24450000Y-78100000D01*
G04 #@! TO.C,C7*
X55350000Y-26470000D02*
X57350000Y-26470000D01*
X57350000Y-24430000D02*
X55350000Y-24430000D01*
G04 #@! TO.C,C8*
X29750000Y-59500000D02*
X29750000Y-58800000D01*
X30950000Y-58800000D02*
X30950000Y-59500000D01*
G04 #@! TO.C,C9*
X28200000Y-59550000D02*
X28200000Y-58850000D01*
X29400000Y-58850000D02*
X29400000Y-59550000D01*
G04 #@! TO.C,C10*
X74950000Y-75550000D02*
X74950000Y-76250000D01*
X73750000Y-76250000D02*
X73750000Y-75550000D01*
G04 #@! TO.C,C11*
X51150000Y-49700000D02*
X51150000Y-49000000D01*
X52350000Y-49000000D02*
X52350000Y-49700000D01*
G04 #@! TO.C,C12*
X50850000Y-49000000D02*
X50850000Y-49700000D01*
X49650000Y-49700000D02*
X49650000Y-49000000D01*
G04 #@! TO.C,C13*
X75450000Y-11300000D02*
X76150000Y-11300000D01*
X76150000Y-12500000D02*
X75450000Y-12500000D01*
G04 #@! TO.C,C14*
X4650000Y-11600000D02*
X5350000Y-11600000D01*
X5350000Y-12800000D02*
X4650000Y-12800000D01*
G04 #@! TO.C,C15*
X75450000Y-9600000D02*
X76150000Y-9600000D01*
X76150000Y-10800000D02*
X75450000Y-10800000D01*
G04 #@! TO.C,C16*
X29800000Y-44050000D02*
X29100000Y-44050000D01*
X29100000Y-42850000D02*
X29800000Y-42850000D01*
G04 #@! TO.C,C17*
X29850000Y-45650000D02*
X29150000Y-45650000D01*
X29150000Y-44450000D02*
X29850000Y-44450000D01*
G04 #@! TO.C,C18*
X4650000Y-9800000D02*
X5350000Y-9800000D01*
X5350000Y-11000000D02*
X4650000Y-11000000D01*
G04 #@! TO.C,C19*
X41950000Y-43500000D02*
X42650000Y-43500000D01*
X42650000Y-44700000D02*
X41950000Y-44700000D01*
G04 #@! TO.C,C20*
X49650000Y-45800000D02*
X49650000Y-45100000D01*
X50850000Y-45100000D02*
X50850000Y-45800000D01*
G04 #@! TO.C,C21*
X53800000Y-32400000D02*
X53800000Y-33100000D01*
X52600000Y-33100000D02*
X52600000Y-32400000D01*
G04 #@! TO.C,C22*
X57050000Y-33400000D02*
X57750000Y-33400000D01*
X57750000Y-34600000D02*
X57050000Y-34600000D01*
G04 #@! TO.C,C23*
X50950000Y-33100000D02*
X50950000Y-32400000D01*
X52150000Y-32400000D02*
X52150000Y-33100000D01*
G04 #@! TO.C,CN2*
X70660000Y-59940000D02*
X70660000Y-61000000D01*
X69600000Y-59940000D02*
X70660000Y-59940000D01*
X68600000Y-59940000D02*
X68600000Y-62060000D01*
X68600000Y-62060000D02*
X66540000Y-62060000D01*
X68600000Y-59940000D02*
X66540000Y-59940000D01*
X66540000Y-59940000D02*
X66540000Y-62060000D01*
G04 #@! TO.C,CN3*
X64560000Y-62060000D02*
X64560000Y-59940000D01*
X62500000Y-62060000D02*
X64560000Y-62060000D01*
X62500000Y-59940000D02*
X64560000Y-59940000D01*
X62500000Y-62060000D02*
X62500000Y-59940000D01*
X61500000Y-62060000D02*
X60440000Y-62060000D01*
X60440000Y-62060000D02*
X60440000Y-61000000D01*
D10*
G04 #@! TO.C,D2*
X21000000Y-25000000D02*
X21000000Y-25254000D01*
X21000000Y-25254000D02*
X21254000Y-25000000D01*
X21000000Y-25000000D02*
X21254000Y-25000000D01*
X21200000Y-25000000D02*
X21000000Y-25200000D01*
X23461577Y-26500000D02*
G75*
G03X23461577Y-26500000I-761577J0D01*
G01*
X21000000Y-25000000D02*
X24400000Y-25000000D01*
X24400000Y-28000000D02*
X21000000Y-28000000D01*
D11*
G04 #@! TO.C,J8*
X12614214Y-24086720D02*
X13363747Y-24836253D01*
X11864681Y-24836253D02*
X12614214Y-24086720D01*
X11157574Y-25543360D02*
X12656640Y-27042426D01*
X12656640Y-27042426D02*
X8371573Y-31327493D01*
X11157574Y-25543360D02*
X6872507Y-29828427D01*
X6872507Y-29828427D02*
X8371573Y-31327493D01*
G04 #@! TO.C,J11*
X69614214Y-31213280D02*
X71113280Y-29714214D01*
X65329147Y-26928213D02*
X69614214Y-31213280D01*
X66828213Y-25429147D02*
X71113280Y-29714214D01*
X65329147Y-26928213D02*
X66828213Y-25429147D01*
X64622040Y-26221106D02*
X63872507Y-25471573D01*
X63872507Y-25471573D02*
X64622040Y-24722040D01*
G04 #@! TO.C,J12*
X8980000Y-61140000D02*
X6320000Y-61140000D01*
X8980000Y-66280000D02*
X8980000Y-61140000D01*
X6320000Y-66280000D02*
X6320000Y-61140000D01*
X8980000Y-66280000D02*
X6320000Y-66280000D01*
X8980000Y-67550000D02*
X8980000Y-68880000D01*
X8980000Y-68880000D02*
X7650000Y-68880000D01*
G04 #@! TO.C,R3*
X46750000Y-62770000D02*
X47750000Y-62770000D01*
X47750000Y-64130000D02*
X46750000Y-64130000D01*
G04 #@! TO.C,R5*
X51950000Y-64130000D02*
X50950000Y-64130000D01*
X50950000Y-62770000D02*
X51950000Y-62770000D01*
G04 #@! TO.C,R8*
X30050000Y-42530000D02*
X29050000Y-42530000D01*
X29050000Y-41170000D02*
X30050000Y-41170000D01*
G04 #@! TO.C,R9*
X22500000Y-34320000D02*
X23500000Y-34320000D01*
X23500000Y-35680000D02*
X22500000Y-35680000D01*
G04 #@! TO.C,R10*
X16680000Y-33650001D02*
X16680000Y-34650001D01*
X15320000Y-34650001D02*
X15320000Y-33650001D01*
G04 #@! TO.C,R11*
X28380000Y-33550000D02*
X28380000Y-34550000D01*
X27020000Y-34550000D02*
X27020000Y-33550000D01*
G04 #@! TO.C,R12*
X13380000Y-77700000D02*
X13380000Y-78700000D01*
X12020000Y-78700000D02*
X12020000Y-77700000D01*
G04 #@! TO.C,R13*
X17270000Y-34650000D02*
X17270000Y-33650000D01*
X18630000Y-33650000D02*
X18630000Y-34650000D01*
D10*
G04 #@! TO.C,SW1*
X73200000Y-74900000D02*
X72950000Y-74900000D01*
X73250000Y-74900000D02*
X73250000Y-78300000D01*
X73250000Y-78300000D02*
X72950000Y-78300000D01*
X73150000Y-74900000D02*
X73250000Y-74900000D01*
X70750000Y-78300000D02*
X70750000Y-74900000D01*
X70750000Y-74900000D02*
X71050000Y-74900000D01*
X70750000Y-78300000D02*
X71050000Y-78300000D01*
G04 #@! TO.C,SW2*
X19900000Y-28900000D02*
X26100000Y-28900000D01*
X26100000Y-28900000D02*
X26100000Y-33100000D01*
X26100000Y-33100000D02*
X19900000Y-33100000D01*
X19900000Y-33100000D02*
X19900000Y-28900000D01*
G04 #@! TO.C,SW3*
X11300000Y-80100000D02*
X7100000Y-80100000D01*
X11300000Y-73900000D02*
X11300000Y-80100000D01*
X7100000Y-73900000D02*
X11300000Y-73900000D01*
X7100000Y-80100000D02*
X7100000Y-73900000D01*
G04 #@! TO.C,U4*
X48900000Y-52200000D02*
X50500000Y-52200000D01*
X48900000Y-55600000D02*
X50500000Y-55600000D01*
G04 #@! TO.C,U9*
X77600000Y-8250000D02*
G75*
G03X77600000Y-8250000I-250000J0D01*
G01*
X73975000Y-8125000D02*
X73975000Y-7625000D01*
X77225000Y-4875000D02*
X77225000Y-5375000D01*
X73975000Y-4875000D02*
X73975000Y-5375000D01*
X77225000Y-4875000D02*
X76725000Y-4875000D01*
X73975000Y-4875000D02*
X74475000Y-4875000D01*
X73975000Y-8125000D02*
X74475000Y-8125000D01*
G04 #@! TO.C,U10*
X3375000Y-8125000D02*
X3875000Y-8125000D01*
X3375000Y-4875000D02*
X3875000Y-4875000D01*
X6625000Y-4875000D02*
X6125000Y-4875000D01*
X3375000Y-4875000D02*
X3375000Y-5375000D01*
X6625000Y-4875000D02*
X6625000Y-5375000D01*
X3375000Y-8125000D02*
X3375000Y-7625000D01*
X7000000Y-8250000D02*
G75*
G03X7000000Y-8250000I-250000J0D01*
G01*
G04 #@! TO.C,U11*
X55750000Y-29250000D02*
X56150000Y-29250000D01*
X55750000Y-29250000D02*
X55750000Y-29650000D01*
X55750000Y-32450000D02*
X56150000Y-32450000D01*
X55750000Y-32450000D02*
X55750000Y-32050000D01*
X58950000Y-32450000D02*
X58550000Y-32450000D01*
X58950000Y-32450000D02*
X58950000Y-32050000D01*
X58650000Y-29150000D02*
X58650000Y-29550000D01*
D11*
G04 #@! TO.C,C24*
X40950000Y-68900000D02*
X40950000Y-69600000D01*
X39750000Y-69600000D02*
X39750000Y-68900000D01*
G04 #@! TO.C,U12*
D10*
X55304761Y-45180952D02*
X55209523Y-45133333D01*
X55161904Y-45085714D01*
X55114285Y-44990476D01*
X55114285Y-44942857D01*
X55161904Y-44847619D01*
X55209523Y-44800000D01*
X55304761Y-44752380D01*
X55495238Y-44752380D01*
X55590476Y-44800000D01*
X55638095Y-44847619D01*
X55685714Y-44942857D01*
X55685714Y-44990476D01*
X55638095Y-45085714D01*
X55590476Y-45133333D01*
X55495238Y-45180952D01*
X55304761Y-45180952D01*
X55209523Y-45228571D01*
X55161904Y-45276190D01*
X55114285Y-45371428D01*
X55114285Y-45561904D01*
X55161904Y-45657142D01*
X55209523Y-45704761D01*
X55304761Y-45752380D01*
X55495238Y-45752380D01*
X55590476Y-45704761D01*
X55638095Y-45657142D01*
X55685714Y-45561904D01*
X55685714Y-45371428D01*
X55638095Y-45276190D01*
X55590476Y-45228571D01*
X55495238Y-45180952D01*
X55638095Y-36752380D02*
X55161904Y-36752380D01*
X55114285Y-37228571D01*
X55161904Y-37180952D01*
X55257142Y-37133333D01*
X55495238Y-37133333D01*
X55590476Y-37180952D01*
X55638095Y-37228571D01*
X55685714Y-37323809D01*
X55685714Y-37561904D01*
X55638095Y-37657142D01*
X55590476Y-37704761D01*
X55495238Y-37752380D01*
X55257142Y-37752380D01*
X55161904Y-37704761D01*
X55114285Y-37657142D01*
X59590476Y-37085714D02*
X59590476Y-37752380D01*
X59352380Y-36704761D02*
X59114285Y-37419047D01*
X59733333Y-37419047D01*
X59685714Y-45752380D02*
X59114285Y-45752380D01*
X59400000Y-45752380D02*
X59400000Y-44752380D01*
X59304761Y-44895238D01*
X59209523Y-44990476D01*
X59114285Y-45038095D01*
G04 #@! TD*
%LPC*%
D13*
G04 #@! TO.C,J1*
X7250000Y-16400000D03*
X2750000Y-16400000D03*
G04 #@! TD*
D14*
G04 #@! TO.C,U12*
X61400000Y-44920000D03*
X61400000Y-42380000D03*
X61400000Y-39840000D03*
X61400000Y-37300000D03*
X53780000Y-37300000D03*
X53780000Y-39840000D03*
X53780000Y-42380000D03*
X53780000Y-44920000D03*
G04 #@! TD*
D15*
G04 #@! TO.C,D4*
X17617930Y-41002866D03*
X17617930Y-38802866D03*
G04 #@! TD*
G04 #@! TO.C,D3*
X21067930Y-41002866D03*
X21067930Y-38802866D03*
G04 #@! TD*
G04 #@! TO.C,D5*
X19417930Y-38802866D03*
X19417930Y-41002866D03*
G04 #@! TD*
G04 #@! TO.C,D6*
X15717930Y-38802866D03*
X15717930Y-41002866D03*
G04 #@! TD*
G04 #@! TO.C,R14*
X21067930Y-42952866D03*
X21067930Y-45152866D03*
G04 #@! TD*
G04 #@! TO.C,R15*
X17617930Y-42952866D03*
X17617930Y-45152866D03*
G04 #@! TD*
G04 #@! TO.C,R16*
X19417930Y-45152866D03*
X19417930Y-42952866D03*
G04 #@! TD*
G04 #@! TO.C,R17*
X15717930Y-42902866D03*
X15717930Y-45102866D03*
G04 #@! TD*
D16*
G04 #@! TO.C,CN1*
X69650000Y-70100000D03*
D17*
X69650000Y-67560000D03*
G04 #@! TD*
D18*
G04 #@! TO.C,D1*
X65250000Y-67250000D03*
X63050000Y-67250000D03*
G04 #@! TD*
D19*
G04 #@! TO.C,J4*
X36000000Y-40275000D03*
X36500000Y-40275000D03*
X37000000Y-40275000D03*
X37500000Y-40275000D03*
X38000000Y-40275000D03*
X38500000Y-40275000D03*
D20*
X43650000Y-37825000D03*
X34350000Y-37825000D03*
D19*
X39000000Y-40275000D03*
X40000000Y-40275000D03*
X40500000Y-40275000D03*
X39500000Y-40275000D03*
X41000000Y-40275000D03*
X41500000Y-40275000D03*
X42000000Y-40275000D03*
G04 #@! TD*
D15*
G04 #@! TO.C,R2*
X65750000Y-73100000D03*
X65750000Y-70900000D03*
G04 #@! TD*
D18*
G04 #@! TO.C,R4*
X63000000Y-68900000D03*
X60800000Y-68900000D03*
G04 #@! TD*
D21*
G04 #@! TO.C,U1*
X63290000Y-77276000D03*
X66290000Y-77276000D03*
X67790000Y-77276000D03*
D22*
X69490000Y-77976000D03*
X61790000Y-77976000D03*
X69490000Y-79776000D03*
X61790000Y-79776000D03*
D14*
X67100000Y-78900000D03*
X64052000Y-78900000D03*
G04 #@! TD*
D23*
G04 #@! TO.C,U2*
X31600000Y-75150000D03*
X36200000Y-75150000D03*
X33900000Y-75150000D03*
D24*
X33900000Y-68850000D03*
G04 #@! TD*
G04 #@! TO.C,U3*
X25900000Y-68850000D03*
D23*
X25900000Y-75150000D03*
X28200000Y-75150000D03*
X23600000Y-75150000D03*
G04 #@! TD*
D25*
G04 #@! TO.C,U7*
X52600000Y-72675000D03*
X52600000Y-72025000D03*
X52600000Y-71375000D03*
X52600000Y-70725000D03*
X52600000Y-70075000D03*
X52600000Y-69425000D03*
X52600000Y-68775000D03*
X52600000Y-68125000D03*
X52600000Y-67475000D03*
X52600000Y-66825000D03*
X52600000Y-66175000D03*
X52600000Y-65525000D03*
X45400000Y-65525000D03*
X45400000Y-66175000D03*
X45400000Y-66825000D03*
X45400000Y-67475000D03*
X45400000Y-68125000D03*
X45400000Y-68775000D03*
X45400000Y-69425000D03*
X45400000Y-70075000D03*
X45400000Y-70725000D03*
X45400000Y-71375000D03*
X45400000Y-72025000D03*
X45400000Y-72675000D03*
G04 #@! TD*
D26*
G04 #@! TO.C,U8*
X43450000Y-56150000D03*
X43450000Y-55650000D03*
X43450000Y-55150000D03*
X43450000Y-54650000D03*
X43450000Y-54150000D03*
X43450000Y-53650000D03*
X43450000Y-53150000D03*
X43450000Y-52650000D03*
X43450000Y-52150000D03*
X43450000Y-51650000D03*
X43450000Y-51150000D03*
X43450000Y-50650000D03*
X43450000Y-50150000D03*
X43450000Y-49650000D03*
X43450000Y-49150000D03*
X43450000Y-48650000D03*
D27*
X41450000Y-46650000D03*
X40950000Y-46650000D03*
X40450000Y-46650000D03*
X39950000Y-46650000D03*
X39450000Y-46650000D03*
X38950000Y-46650000D03*
X38450000Y-46650000D03*
X37950000Y-46650000D03*
X37450000Y-46650000D03*
X36950000Y-46650000D03*
X36450000Y-46650000D03*
X35950000Y-46650000D03*
X35450000Y-46650000D03*
X34950000Y-46650000D03*
X34450000Y-46650000D03*
X33950000Y-46650000D03*
D26*
X31950000Y-48650000D03*
X31950000Y-49150000D03*
X31950000Y-49650000D03*
X31950000Y-50150000D03*
X31950000Y-50650000D03*
X31950000Y-51150000D03*
X31950000Y-51650000D03*
X31950000Y-52150000D03*
X31950000Y-52650000D03*
X31950000Y-53150000D03*
X31950000Y-53650000D03*
X31950000Y-54150000D03*
X31950000Y-54650000D03*
X31950000Y-55150000D03*
X31950000Y-55650000D03*
X31950000Y-56150000D03*
D27*
X33950000Y-58150000D03*
X34450000Y-58150000D03*
X34950000Y-58150000D03*
X35450000Y-58150000D03*
X35950000Y-58150000D03*
X36450000Y-58150000D03*
X36950000Y-58150000D03*
X37450000Y-58150000D03*
X37950000Y-58150000D03*
X38450000Y-58150000D03*
X38950000Y-58150000D03*
X39450000Y-58150000D03*
X39950000Y-58150000D03*
X40450000Y-58150000D03*
X40950000Y-58150000D03*
X41450000Y-58150000D03*
G04 #@! TD*
D28*
G04 #@! TO.C,Q1*
X63250000Y-72950000D03*
X63250000Y-71050000D03*
X60250000Y-72000000D03*
G04 #@! TD*
D29*
G04 #@! TO.C,C1*
X45253980Y-59856809D03*
X47153980Y-59856809D03*
G04 #@! TD*
G04 #@! TO.C,C2*
X45253980Y-58256809D03*
X47153980Y-58256809D03*
G04 #@! TD*
G04 #@! TO.C,C3*
X31750000Y-79300000D03*
X33650000Y-79300000D03*
G04 #@! TD*
G04 #@! TO.C,C4*
X33600000Y-77600000D03*
X31700000Y-77600000D03*
G04 #@! TD*
G04 #@! TO.C,C5*
X25750000Y-79200000D03*
X23850000Y-79200000D03*
G04 #@! TD*
G04 #@! TO.C,C6*
X23850000Y-77500000D03*
X25750000Y-77500000D03*
G04 #@! TD*
D30*
G04 #@! TO.C,C7*
X58350000Y-25450000D03*
X54350000Y-25450000D03*
G04 #@! TD*
D31*
G04 #@! TO.C,C8*
X30350000Y-60100000D03*
X30350000Y-58200000D03*
G04 #@! TD*
G04 #@! TO.C,C9*
X28800000Y-60150000D03*
X28800000Y-58250000D03*
G04 #@! TD*
G04 #@! TO.C,C10*
X74350000Y-74950000D03*
X74350000Y-76850000D03*
G04 #@! TD*
G04 #@! TO.C,C11*
X51750000Y-50300000D03*
X51750000Y-48400000D03*
G04 #@! TD*
G04 #@! TO.C,C12*
X50250000Y-48400000D03*
X50250000Y-50300000D03*
G04 #@! TD*
D29*
G04 #@! TO.C,C13*
X74850000Y-11900000D03*
X76750000Y-11900000D03*
G04 #@! TD*
G04 #@! TO.C,C14*
X4050000Y-12200000D03*
X5950000Y-12200000D03*
G04 #@! TD*
G04 #@! TO.C,C15*
X74850000Y-10200000D03*
X76750000Y-10200000D03*
G04 #@! TD*
G04 #@! TO.C,C16*
X30400000Y-43450000D03*
X28500000Y-43450000D03*
G04 #@! TD*
G04 #@! TO.C,C17*
X30450000Y-45050000D03*
X28550000Y-45050000D03*
G04 #@! TD*
G04 #@! TO.C,C18*
X4050000Y-10400000D03*
X5950000Y-10400000D03*
G04 #@! TD*
G04 #@! TO.C,C19*
X41350000Y-44100000D03*
X43250000Y-44100000D03*
G04 #@! TD*
D31*
G04 #@! TO.C,C20*
X50250000Y-46400000D03*
X50250000Y-44500000D03*
G04 #@! TD*
G04 #@! TO.C,C21*
X53200000Y-31800000D03*
X53200000Y-33700000D03*
G04 #@! TD*
D29*
G04 #@! TO.C,C22*
X56450000Y-34000000D03*
X58350000Y-34000000D03*
G04 #@! TD*
D31*
G04 #@! TO.C,C23*
X51550000Y-33700000D03*
X51550000Y-31800000D03*
G04 #@! TD*
D32*
G04 #@! TO.C,CN2*
X67600000Y-61000000D03*
D33*
X69600000Y-61000000D03*
G04 #@! TD*
G04 #@! TO.C,CN3*
X61500000Y-61000000D03*
D32*
X63500000Y-61000000D03*
G04 #@! TD*
D34*
G04 #@! TO.C,D2*
X20450000Y-25750000D03*
X20450000Y-27200000D03*
X24900000Y-25800000D03*
X24900000Y-27200000D03*
G04 #@! TD*
D13*
G04 #@! TO.C,J3*
X77850000Y-16400000D03*
X73350000Y-16400000D03*
G04 #@! TD*
D35*
G04 #@! TO.C,J6*
X6900000Y-37850000D03*
X6900000Y-42350000D03*
G04 #@! TD*
D36*
G04 #@! TO.C,J7*
X68900000Y-37700000D03*
X68900000Y-39200000D03*
X68900000Y-41000000D03*
X68900000Y-42500000D03*
G04 #@! TD*
D37*
G04 #@! TO.C,J8*
X8371573Y-29828427D03*
D38*
X8371573Y-29828427D02*
X8371573Y-29828427D01*
D37*
X9785787Y-28414213D03*
D38*
X9785787Y-28414213D02*
X9785787Y-28414213D01*
D37*
X11200000Y-27000000D03*
D38*
X11200000Y-27000000D02*
X11200000Y-27000000D01*
D37*
X12614214Y-25585786D03*
D39*
G36*
X11376777Y-25585786D02*
X12614214Y-24348349D01*
X13851651Y-25585786D01*
X12614214Y-26823223D01*
X11376777Y-25585786D01*
X11376777Y-25585786D01*
G37*
G04 #@! TD*
D35*
G04 #@! TO.C,J9*
X71100000Y-42350000D03*
X71100000Y-37850000D03*
G04 #@! TD*
D36*
G04 #@! TO.C,J10*
X9100000Y-37700000D03*
X9100000Y-39200000D03*
X9100000Y-41000000D03*
X9100000Y-42500000D03*
G04 #@! TD*
D37*
G04 #@! TO.C,J11*
X65371573Y-25471573D03*
D39*
G36*
X65371573Y-26709010D02*
X64134136Y-25471573D01*
X65371573Y-24234136D01*
X66609010Y-25471573D01*
X65371573Y-26709010D01*
X65371573Y-26709010D01*
G37*
D37*
X66785787Y-26885787D03*
D38*
X66785787Y-26885787D02*
X66785787Y-26885787D01*
D37*
X68200000Y-28300000D03*
D38*
X68200000Y-28300000D02*
X68200000Y-28300000D01*
D37*
X69614214Y-29714214D03*
D38*
X69614214Y-29714214D02*
X69614214Y-29714214D01*
G04 #@! TD*
D16*
G04 #@! TO.C,J12*
X7650000Y-67550000D03*
D17*
X7650000Y-65010000D03*
X7650000Y-62470000D03*
G04 #@! TD*
D18*
G04 #@! TO.C,R3*
X48350000Y-63450000D03*
X46150000Y-63450000D03*
G04 #@! TD*
G04 #@! TO.C,R5*
X50350000Y-63450000D03*
X52550000Y-63450000D03*
G04 #@! TD*
G04 #@! TO.C,R8*
X28450000Y-41850000D03*
X30650000Y-41850000D03*
G04 #@! TD*
G04 #@! TO.C,R9*
X24100000Y-35000000D03*
X21900000Y-35000000D03*
G04 #@! TD*
D15*
G04 #@! TO.C,R10*
X16000000Y-35250001D03*
X16000000Y-33050001D03*
G04 #@! TD*
G04 #@! TO.C,R11*
X27700000Y-35150000D03*
X27700000Y-32950000D03*
G04 #@! TD*
G04 #@! TO.C,R12*
X12700000Y-79300000D03*
X12700000Y-77100000D03*
G04 #@! TD*
G04 #@! TO.C,R13*
X17950000Y-33050000D03*
X17950000Y-35250000D03*
G04 #@! TD*
D40*
G04 #@! TO.C,SW1*
X72000000Y-74950000D03*
X72000000Y-78250000D03*
G04 #@! TD*
D41*
G04 #@! TO.C,SW2*
X20900000Y-29925000D03*
X25100000Y-29925000D03*
X20900000Y-32075000D03*
X25100000Y-32075000D03*
G04 #@! TD*
D42*
G04 #@! TO.C,SW3*
X10275000Y-74900000D03*
X10275000Y-79100000D03*
X8125000Y-74900000D03*
X8125000Y-79100000D03*
G04 #@! TD*
D43*
G04 #@! TO.C,U4*
X49300000Y-55100000D03*
X49300000Y-53900000D03*
X49300000Y-52700000D03*
G04 #@! TD*
D44*
G04 #@! TO.C,U9*
X77175000Y-7250000D03*
X77175000Y-6750000D03*
X77175000Y-6250000D03*
X77175000Y-5750000D03*
D45*
X76350000Y-4925000D03*
X75850000Y-4925000D03*
X75350000Y-4925000D03*
X74850000Y-4925000D03*
D44*
X74025000Y-5750000D03*
X74025000Y-6250000D03*
X74025000Y-6750000D03*
X74025000Y-7250000D03*
D45*
X74850000Y-8075000D03*
X75350000Y-8075000D03*
X75850000Y-8075000D03*
X76350000Y-8075000D03*
G04 #@! TD*
G04 #@! TO.C,U10*
X5750000Y-8075000D03*
X5250000Y-8075000D03*
X4750000Y-8075000D03*
X4250000Y-8075000D03*
D44*
X3425000Y-7250000D03*
X3425000Y-6750000D03*
X3425000Y-6250000D03*
X3425000Y-5750000D03*
D45*
X4250000Y-4925000D03*
X4750000Y-4925000D03*
X5250000Y-4925000D03*
X5750000Y-4925000D03*
D44*
X6575000Y-5750000D03*
X6575000Y-6250000D03*
X6575000Y-6750000D03*
X6575000Y-7250000D03*
G04 #@! TD*
D46*
G04 #@! TO.C,U11*
X58350000Y-29200000D03*
X57950000Y-29200000D03*
X57550000Y-29200000D03*
X57150000Y-29200000D03*
X56750000Y-29200000D03*
X56350000Y-29200000D03*
D47*
X55700000Y-29850000D03*
X55700000Y-30250000D03*
X55700000Y-30650000D03*
X55700000Y-31050000D03*
X55700000Y-31450000D03*
X55700000Y-31850000D03*
D46*
X56350000Y-32500000D03*
X56750000Y-32500000D03*
X57150000Y-32500000D03*
X57550000Y-32500000D03*
X57950000Y-32500000D03*
X58350000Y-32500000D03*
D47*
X59000000Y-31850000D03*
X59000000Y-31450000D03*
X59000000Y-31050000D03*
X59000000Y-30650000D03*
X59000000Y-30250000D03*
X59000000Y-29850000D03*
G04 #@! TD*
D31*
G04 #@! TO.C,C24*
X40350000Y-68300000D03*
X40350000Y-70200000D03*
G04 #@! TD*
M02*
