M48
;DRILL file {KiCad (5.0.0)} date 04/07/20 20:50:27
;FORMAT={-:-/ absolute / metric / decimal}
FMAT,2
METRIC,TZ
T1C0.400
T2C0.762
T3C0.800
T4C0.900
T5C1.000
%
G90
G05
M71
T1
X1.Y-74.6
X1.2Y-35.8
X1.4Y-50.9
X1.6Y-58.3
X2.2Y-14.3
X3.2Y-8.3
X3.2Y-12.2
X3.3Y-4.8
X3.4Y-14.8
X4.2Y-44.3
X4.7Y-49.4
X5.3Y-38.1
X5.4Y-37.
X5.6Y-59.3
X5.7Y-15.
X5.9Y-31.1
X5.95Y-11.3
X6.7Y-48.
X6.7Y-76.8
X7.6Y-13.9
X7.9Y-81.
X8.9Y-34.8
X10.1Y-59.5
X10.3Y-41.
X10.3Y-42.5
X10.4Y-37.7
X10.4Y-39.2
X10.4Y-71.2
X11.6Y-61.7
X11.8Y-44.8
X12.4Y-39.8
X12.7Y-73.4
X12.7Y-75.3
X13.7Y-47.9
X13.7Y-62.4
X15.Y-28.6
X16.Y-59.6
X16.5Y-81.
X17.Y-31.
X17.9Y-26.8
X18.1Y-22.8
X19.7Y-71.1
X20.4Y-35.
X20.4Y-59.7
X21.6Y-73.3
X21.8Y-64.5
X21.8Y-65.9
X22.1Y-81.
X23.2Y-33.4
X24.1Y-36.4
X24.2Y-22.8
X24.4Y-44.7
X24.8Y-55.4
X24.8Y-57.6
X25.4Y-45.5
X25.7Y-54.5
X26.Y-37.2
X26.3Y-44.3
X26.9Y-55.7
X27.1Y-48.6
X28.Y-47.6
X28.6Y-56.
X28.7Y-31.4
X28.9Y-48.7
X29.5Y-81.
X29.6Y-34.4
X29.8Y-40.1
X30.Y-48.4
X30.9Y-64.7
X32.713Y-43.775
X33.7Y-42.7
X33.7Y-42.7
X33.9Y-32.6
X35.8Y-22.9
X36.65Y-56.4
X36.7Y-64.75
X37.1Y-35.4
X37.2Y-38.4
X37.3Y-81.
X37.35Y-55.15
X37.75Y-63.4
X38.15Y-64.95
X38.6Y-62.85
X38.8Y-69.3
X38.95Y-54.3
X39.Y-61.4
X40.4Y-67.15
X40.5Y-65.75
X40.75Y-44.475
X40.8Y-71.35
X41.343Y-55.157
X41.35Y-54.05
X41.362Y-56.162
X41.4Y-35.5
X41.4Y-38.5
X41.4Y-62.
X41.75Y-53.
X42.202Y-61.225
X42.796Y-68.813
X42.85Y-45.2
X43.Y-23.
X43.Y-72.25
X43.25Y-61.4
X43.5Y-69.7
X43.6Y-81.1
X43.7Y-40.7
X43.8Y-66.75
X44.2Y-62.
X45.1Y-32.1
X45.1Y-52.925
X46.2Y-52.825
X46.7Y-34.4
X46.8Y-56.8
X47.1Y-50.25
X47.6Y-37.1
X47.6Y-45.5
X47.7Y-42.
X48.25Y-50.3
X48.8Y-46.3
X48.85Y-47.55
X48.9Y-73.3
X49.4Y-60.1
X49.5Y-61.375
X49.9Y-68.
X49.9Y-69.05
X49.9Y-70.1
X50.6Y-27.8
X50.6Y-81.1
X50.875Y-59.7
X51.9Y-22.8
X54.328Y-30.668
X54.513Y-52.913
X54.6Y-61.
X54.6Y-62.6
X54.8Y-33.5
X55.9Y-58.4
X56.Y-51.7
X56.1Y-63.1
X56.8Y-81.1
X59.175Y-42.7
X59.9Y-22.9
X60.1Y-33.8
X60.2Y-35.85
X61.6Y-81.
X61.7Y-28.7
X63.7Y-40.
X64.2Y-23.
X64.5Y-32.4
X64.6Y-37.9
X65.6Y-49.3
X65.6Y-59.1
X66.45Y-41.3
X66.8Y-42.65
X67.Y-38.25
X67.65Y-41.3
X69.9Y-45.
X70.3Y-35.3
X70.5Y-81.1
X71.6Y-30.4
X72.Y-59.1
X72.3Y-49.2
X72.787Y-14.996
X72.9Y-64.5
X73.4Y-74.95
X73.9Y-8.3
X73.9Y-11.8
X73.9Y-14.6
X74.Y-4.8
X76.4Y-15.2
X76.75Y-11.1
X76.8Y-35.5
X77.Y-74.3
X77.1Y-45.5
X77.1Y-57.5
X77.2Y-51.1
X77.2Y-62.5
X78.3Y-12.7
T2
X53.78Y-37.3
X53.78Y-39.84
X53.78Y-42.38
X53.78Y-44.92
X61.4Y-37.3
X61.4Y-39.84
X61.4Y-42.38
X61.4Y-44.92
T3
X61.5Y-61.
X63.5Y-61.
X8.372Y-29.828
X9.786Y-28.414
X11.2Y-27.
X12.614Y-25.586
X67.6Y-61.
X69.6Y-61.
X65.372Y-25.472
X66.786Y-26.886
X68.2Y-28.3
X69.614Y-29.714
T4
X64.052Y-78.9
X67.1Y-78.9
T5
X7.65Y-62.47
X7.65Y-65.01
X7.65Y-67.55
X69.65Y-67.56
X69.65Y-70.1
T0
M30
