G04 #@! TF.GenerationSoftware,KiCad,Pcbnew,(5.0.0)*
G04 #@! TF.CreationDate,2020-04-07T20:47:50+09:00*
G04 #@! TF.ProjectId,rokisi_sensor,726F6B6973695F73656E736F722E6B69,rev?*
G04 #@! TF.SameCoordinates,PX4a62f80PY29020c0*
G04 #@! TF.FileFunction,Copper,L1,Top,Signal*
G04 #@! TF.FilePolarity,Positive*
%FSLAX46Y46*%
G04 Gerber Fmt 4.6, Leading zero omitted, Abs format (unit mm)*
G04 Created by KiCad (PCBNEW (5.0.0)) date 04/07/20 20:47:50*
%MOMM*%
%LPD*%
G01*
G04 APERTURE LIST*
G04 #@! TA.AperFunction,SMDPad,CuDef*
%ADD10R,1.200000X0.900000*%
G04 #@! TD*
G04 #@! TA.AperFunction,SMDPad,CuDef*
%ADD11R,0.900000X1.200000*%
G04 #@! TD*
G04 #@! TA.AperFunction,SMDPad,CuDef*
%ADD12R,0.300000X1.500000*%
G04 #@! TD*
G04 #@! TA.AperFunction,SMDPad,CuDef*
%ADD13R,2.300000X3.300000*%
G04 #@! TD*
G04 #@! TA.AperFunction,ComponentPad*
%ADD14C,1.350000*%
G04 #@! TD*
G04 #@! TA.AperFunction,Conductor*
%ADD15C,0.100000*%
G04 #@! TD*
G04 #@! TA.AperFunction,Conductor*
%ADD16C,1.350000*%
G04 #@! TD*
G04 #@! TA.AperFunction,ViaPad*
%ADD17C,0.800000*%
G04 #@! TD*
G04 #@! TA.AperFunction,Conductor*
%ADD18C,0.300000*%
G04 #@! TD*
G04 #@! TA.AperFunction,Conductor*
%ADD19C,0.400000*%
G04 #@! TD*
G04 #@! TA.AperFunction,Conductor*
%ADD20C,0.250000*%
G04 #@! TD*
G04 #@! TA.AperFunction,Conductor*
%ADD21C,0.254000*%
G04 #@! TD*
G04 APERTURE END LIST*
D10*
G04 #@! TO.P,R18,2*
G04 #@! TO.N,Net-(R18-Pad2)*
X42000000Y-40500000D03*
G04 #@! TO.P,R18,1*
G04 #@! TO.N,LEFT_VCC*
X44200000Y-40500000D03*
G04 #@! TD*
G04 #@! TO.P,D1,1*
G04 #@! TO.N,GND*
X43700000Y-2200000D03*
G04 #@! TO.P,D1,2*
G04 #@! TO.N,Net-(D1-Pad2)*
X45900000Y-2200000D03*
G04 #@! TD*
D11*
G04 #@! TO.P,D2,1*
G04 #@! TO.N,left_led*
X32700000Y-43200000D03*
G04 #@! TO.P,D2,2*
G04 #@! TO.N,Net-(D2-Pad2)*
X32700000Y-41000000D03*
G04 #@! TD*
G04 #@! TO.P,D3,2*
G04 #@! TO.N,Net-(D3-Pad2)*
X60600000Y-29700000D03*
G04 #@! TO.P,D3,1*
G04 #@! TO.N,right_led*
X60600000Y-31900000D03*
G04 #@! TD*
D12*
G04 #@! TO.P,J1,1*
G04 #@! TO.N,AD9*
X48140000Y-9445000D03*
G04 #@! TO.P,J1,2*
G04 #@! TO.N,AD8*
X47640000Y-9445000D03*
G04 #@! TO.P,J1,3*
G04 #@! TO.N,AD7*
X47140000Y-9445000D03*
G04 #@! TO.P,J1,4*
G04 #@! TO.N,AD6*
X46640000Y-9445000D03*
G04 #@! TO.P,J1,5*
G04 #@! TO.N,AD5*
X46140000Y-9445000D03*
G04 #@! TO.P,J1,6*
G04 #@! TO.N,AD4*
X45640000Y-9445000D03*
D13*
G04 #@! TO.P,J1,14*
G04 #@! TO.N,N/C*
X40490000Y-11895000D03*
G04 #@! TO.P,J1,15*
X49790000Y-11895000D03*
D12*
G04 #@! TO.P,J1,7*
G04 #@! TO.N,AD3*
X45140000Y-9445000D03*
G04 #@! TO.P,J1,9*
G04 #@! TO.N,AD1*
X44140000Y-9445000D03*
G04 #@! TO.P,J1,10*
G04 #@! TO.N,AD0*
X43640000Y-9445000D03*
G04 #@! TO.P,J1,8*
G04 #@! TO.N,AD2*
X44640000Y-9445000D03*
G04 #@! TO.P,J1,11*
G04 #@! TO.N,GND*
X43140000Y-9445000D03*
G04 #@! TO.P,J1,12*
X42640000Y-9445000D03*
G04 #@! TO.P,J1,13*
G04 #@! TO.N,+3V3*
X42140000Y-9445000D03*
G04 #@! TD*
D14*
G04 #@! TO.P,J2,1*
G04 #@! TO.N,LEFT_VCC*
X83470000Y-56370000D03*
D15*
G04 #@! TD*
G04 #@! TO.N,LEFT_VCC*
G04 #@! TO.C,J2*
G36*
X82515406Y-56370000D02*
X83470000Y-55415406D01*
X84424594Y-56370000D01*
X83470000Y-57324594D01*
X82515406Y-56370000D01*
X82515406Y-56370000D01*
G37*
D14*
G04 #@! TO.P,J2,2*
G04 #@! TO.N,LEFT_GND*
X82055786Y-57784214D03*
D16*
G04 #@! TD*
G04 #@! TO.N,LEFT_GND*
G04 #@! TO.C,J2*
X82055786Y-57784214D02*
X82055786Y-57784214D01*
D14*
G04 #@! TO.P,J2,3*
G04 #@! TO.N,left_analog*
X80641573Y-59198427D03*
D16*
G04 #@! TD*
G04 #@! TO.N,left_analog*
G04 #@! TO.C,J2*
X80641573Y-59198427D02*
X80641573Y-59198427D01*
D14*
G04 #@! TO.P,J2,4*
G04 #@! TO.N,left_led*
X79227359Y-60612641D03*
D16*
G04 #@! TD*
G04 #@! TO.N,left_led*
G04 #@! TO.C,J2*
X79227359Y-60612641D02*
X79227359Y-60612641D01*
D14*
G04 #@! TO.P,J3,4*
G04 #@! TO.N,right_led*
X13994214Y-49544214D03*
D16*
G04 #@! TD*
G04 #@! TO.N,right_led*
G04 #@! TO.C,J3*
X13994214Y-49544214D02*
X13994214Y-49544214D01*
D14*
G04 #@! TO.P,J3,3*
G04 #@! TO.N,right_analog*
X12580000Y-48130000D03*
D16*
G04 #@! TD*
G04 #@! TO.N,right_analog*
G04 #@! TO.C,J3*
X12580000Y-48130000D02*
X12580000Y-48130000D01*
D14*
G04 #@! TO.P,J3,2*
G04 #@! TO.N,RIGHT_GND*
X11165787Y-46715787D03*
D16*
G04 #@! TD*
G04 #@! TO.N,RIGHT_GND*
G04 #@! TO.C,J3*
X11165787Y-46715787D02*
X11165787Y-46715787D01*
D14*
G04 #@! TO.P,J3,1*
G04 #@! TO.N,RIGHT_VCC*
X9751573Y-45301573D03*
D15*
G04 #@! TD*
G04 #@! TO.N,RIGHT_VCC*
G04 #@! TO.C,J3*
G36*
X9751573Y-46256167D02*
X8796979Y-45301573D01*
X9751573Y-44346979D01*
X10706167Y-45301573D01*
X9751573Y-46256167D01*
X9751573Y-46256167D01*
G37*
D10*
G04 #@! TO.P,R1,2*
G04 #@! TO.N,Net-(R1-Pad2)*
X39900000Y-3200000D03*
G04 #@! TO.P,R1,1*
G04 #@! TO.N,+3V3*
X37700000Y-3200000D03*
G04 #@! TD*
G04 #@! TO.P,R2,2*
G04 #@! TO.N,Net-(R2-Pad2)*
X10300000Y-15600000D03*
G04 #@! TO.P,R2,1*
G04 #@! TO.N,+3V3*
X12500000Y-15600000D03*
G04 #@! TD*
G04 #@! TO.P,R3,1*
G04 #@! TO.N,+3V3*
X48300000Y-3900000D03*
G04 #@! TO.P,R3,2*
G04 #@! TO.N,Net-(D1-Pad2)*
X46100000Y-3900000D03*
G04 #@! TD*
G04 #@! TO.P,R4,1*
G04 #@! TO.N,+3V3*
X72700000Y-11000000D03*
G04 #@! TO.P,R4,2*
G04 #@! TO.N,Net-(R4-Pad2)*
X74900000Y-11000000D03*
G04 #@! TD*
D11*
G04 #@! TO.P,R8,1*
G04 #@! TO.N,Net-(D2-Pad2)*
X34400000Y-41000000D03*
G04 #@! TO.P,R8,2*
G04 #@! TO.N,LEFT_VCC*
X34400000Y-43200000D03*
G04 #@! TD*
D10*
G04 #@! TO.P,R9,2*
G04 #@! TO.N,Net-(R9-Pad2)*
X53400000Y-3600000D03*
G04 #@! TO.P,R9,1*
G04 #@! TO.N,+3V3*
X51200000Y-3600000D03*
G04 #@! TD*
G04 #@! TO.P,R10,2*
G04 #@! TO.N,Net-(R10-Pad2)*
X17600000Y-10500000D03*
G04 #@! TO.P,R10,1*
G04 #@! TO.N,+3V3*
X19800000Y-10500000D03*
G04 #@! TD*
G04 #@! TO.P,R11,2*
G04 #@! TO.N,Net-(R11-Pad2)*
X81500000Y-16300000D03*
G04 #@! TO.P,R11,1*
G04 #@! TO.N,+3V3*
X79300000Y-16300000D03*
G04 #@! TD*
D11*
G04 #@! TO.P,R12,1*
G04 #@! TO.N,Net-(D3-Pad2)*
X58900000Y-29700000D03*
G04 #@! TO.P,R12,2*
G04 #@! TO.N,RIGHT_VCC*
X58900000Y-31900000D03*
G04 #@! TD*
D10*
G04 #@! TO.P,R16,2*
G04 #@! TO.N,Net-(R16-Pad2)*
X61000000Y-5000000D03*
G04 #@! TO.P,R16,1*
G04 #@! TO.N,+3V3*
X58800000Y-5000000D03*
G04 #@! TD*
G04 #@! TO.P,R17,2*
G04 #@! TO.N,Net-(R17-Pad2)*
X25400000Y-6900000D03*
G04 #@! TO.P,R17,1*
G04 #@! TO.N,+3V3*
X27600000Y-6900000D03*
G04 #@! TD*
G04 #@! TO.P,R22,2*
G04 #@! TO.N,Net-(R22-Pad2)*
X55900000Y-40400000D03*
G04 #@! TO.P,R22,1*
G04 #@! TO.N,LEFT_VCC*
X58100000Y-40400000D03*
G04 #@! TD*
G04 #@! TO.P,R23,2*
G04 #@! TO.N,Net-(R23-Pad2)*
X68000000Y-7400000D03*
G04 #@! TO.P,R23,1*
G04 #@! TO.N,+3V3*
X65800000Y-7400000D03*
G04 #@! TD*
G04 #@! TO.P,R24,1*
G04 #@! TO.N,RIGHT_VCC*
X48400000Y-29200000D03*
G04 #@! TO.P,R24,2*
G04 #@! TO.N,Net-(R24-Pad2)*
X46200000Y-29200000D03*
G04 #@! TD*
G04 #@! TO.P,R25,1*
G04 #@! TO.N,+3V3*
X34400000Y-4600000D03*
G04 #@! TO.P,R25,2*
G04 #@! TO.N,Net-(R25-Pad2)*
X32200000Y-4600000D03*
G04 #@! TD*
G04 #@! TO.P,R29,2*
G04 #@! TO.N,Net-(R29-Pad2)*
X50800000Y-31100000D03*
G04 #@! TO.P,R29,1*
G04 #@! TO.N,RIGHT_VCC*
X48600000Y-31100000D03*
G04 #@! TD*
D17*
G04 #@! TO.N,GND*
X43500000Y-3600000D03*
X43300000Y-6400000D03*
X42600000Y-13600000D03*
X42900000Y-11600000D03*
X42900000Y-12600000D03*
X54600000Y-11600000D03*
X51800000Y-11600000D03*
X47800000Y-11000000D03*
X45600000Y-11000000D03*
X45500000Y-14400000D03*
X57000000Y-11600000D03*
X47500000Y-2300000D03*
X72800000Y-9400000D03*
X89100000Y-23200000D03*
X68500000Y-15800000D03*
X71000000Y-17000000D03*
X79100000Y-13500000D03*
X84200000Y-17900000D03*
X64200000Y-5400000D03*
X59700000Y-3900000D03*
X52300000Y-2400000D03*
X41200000Y-2100000D03*
X35700000Y-2800000D03*
X29300000Y-4400000D03*
X22600000Y-6900000D03*
X18300000Y-9000000D03*
X13400000Y-12300000D03*
X8000000Y-16500000D03*
X4600000Y-20100000D03*
X1800000Y-23300000D03*
X5700000Y-23300000D03*
X17000000Y-18900000D03*
X36300000Y-12600000D03*
X36400000Y-15900000D03*
X54600000Y-14200000D03*
X54600000Y-17100000D03*
X51200000Y-17100000D03*
X47100000Y-17000000D03*
X42900000Y-17000000D03*
X39000000Y-17100000D03*
X49800000Y-14500000D03*
G04 #@! TO.N,+3V3*
X35300000Y-5900000D03*
X27800000Y-8200000D03*
X21300000Y-11600000D03*
X7100000Y-22200000D03*
X14000000Y-15300000D03*
X57500000Y-5100000D03*
X64500000Y-7000000D03*
X78100000Y-19500000D03*
G04 #@! TO.N,AD0*
X15000000Y-19600000D03*
G04 #@! TO.N,AD1*
X21600000Y-15000000D03*
G04 #@! TO.N,AD2*
X28400000Y-12100000D03*
G04 #@! TO.N,AD3*
X44700000Y-7300000D03*
G04 #@! TO.N,AD5*
X46869669Y-6469669D03*
G04 #@! TO.N,AD6*
X62600000Y-10700000D03*
G04 #@! TO.N,AD4*
X45800000Y-6300000D03*
G04 #@! TO.N,AD7*
X69600000Y-13200000D03*
G04 #@! TO.N,AD8*
X76700000Y-17300000D03*
G04 #@! TO.N,AD9*
X83800000Y-22200000D03*
G04 #@! TO.N,LEFT_VCC*
X34400000Y-44300000D03*
X48000000Y-43900000D03*
G04 #@! TO.N,RIGHT_VCC*
X49100000Y-33300000D03*
X38000000Y-33200000D03*
G04 #@! TO.N,Net-(R1-Pad2)*
X41200000Y-3400000D03*
G04 #@! TO.N,Net-(R2-Pad2)*
X10600000Y-16700000D03*
G04 #@! TO.N,Net-(R4-Pad2)*
X76000000Y-11500000D03*
G04 #@! TO.N,Net-(R9-Pad2)*
X54800000Y-3700000D03*
G04 #@! TO.N,Net-(R10-Pad2)*
X16700000Y-10700000D03*
G04 #@! TO.N,Net-(R11-Pad2)*
X82600000Y-16700000D03*
G04 #@! TO.N,Net-(R16-Pad2)*
X62400000Y-5300000D03*
G04 #@! TO.N,Net-(R17-Pad2)*
X24400000Y-7000000D03*
G04 #@! TO.N,Net-(R18-Pad2)*
X40400000Y-40400000D03*
G04 #@! TO.N,Net-(R22-Pad2)*
X54100000Y-40300000D03*
G04 #@! TO.N,Net-(R23-Pad2)*
X69300000Y-7900000D03*
G04 #@! TO.N,Net-(R24-Pad2)*
X44800000Y-29200000D03*
G04 #@! TO.N,Net-(R25-Pad2)*
X30800000Y-4900000D03*
G04 #@! TO.N,Net-(R29-Pad2)*
X52400000Y-30500000D03*
G04 #@! TD*
D18*
G04 #@! TO.N,GND*
X42900000Y-9445000D02*
X43140000Y-9445000D01*
X42640000Y-9445000D02*
X42900000Y-9445000D01*
D19*
X43700000Y-2200000D02*
X43700000Y-3400000D01*
X43700000Y-3400000D02*
X43500000Y-3600000D01*
X42900001Y-6799999D02*
X43300000Y-6400000D01*
X42900000Y-9445000D02*
X42900001Y-6799999D01*
X42900000Y-9445000D02*
X42900000Y-11600000D01*
X42900000Y-13300000D02*
X42600000Y-13600000D01*
X42900000Y-11600000D02*
X42900000Y-12600000D01*
X42900000Y-12600000D02*
X42900000Y-13300000D01*
D18*
G04 #@! TO.N,Net-(D1-Pad2)*
X45900000Y-3700000D02*
X46100000Y-3900000D01*
X45900000Y-2200000D02*
X45900000Y-3700000D01*
D20*
G04 #@! TO.N,left_led*
X79227359Y-60612641D02*
X63714718Y-45100000D01*
X63714718Y-45100000D02*
X33600000Y-45100000D01*
X32700000Y-44200000D02*
X32700000Y-43200000D01*
X33600000Y-45100000D02*
X32700000Y-44200000D01*
D19*
G04 #@! TO.N,Net-(D2-Pad2)*
X32700000Y-41000000D02*
X34400000Y-41000000D01*
G04 #@! TO.N,Net-(D3-Pad2)*
X58900000Y-29700000D02*
X60600000Y-29700000D01*
D20*
G04 #@! TO.N,right_led*
X60600000Y-32750000D02*
X58950000Y-34400000D01*
X60600000Y-31900000D02*
X60600000Y-32750000D01*
X29138428Y-34400000D02*
X13638428Y-49900000D01*
X58950000Y-34400000D02*
X29138428Y-34400000D01*
D18*
G04 #@! TO.N,+3V3*
X48300000Y-4650000D02*
X48300000Y-3900000D01*
X47750000Y-5200000D02*
X48300000Y-4650000D01*
X50900000Y-3900000D02*
X51200000Y-3600000D01*
X49700000Y-3900000D02*
X50900000Y-3900000D01*
X48300000Y-3900000D02*
X49700000Y-3900000D01*
X49700000Y-3900000D02*
X49700000Y-5100000D01*
X65800000Y-8200000D02*
X65800000Y-7400000D01*
X65100000Y-8900000D02*
X65800000Y-8200000D01*
X64800000Y-8900000D02*
X67100000Y-8900000D01*
X64800000Y-8900000D02*
X65100000Y-8900000D01*
X67100000Y-8900000D02*
X70700000Y-12500000D01*
X72700000Y-12100000D02*
X72700000Y-11000000D01*
X72300000Y-12500000D02*
X72700000Y-12100000D01*
X70700000Y-12500000D02*
X71600000Y-12500000D01*
X45400000Y-5200000D02*
X47750000Y-5200000D01*
X37700000Y-4500000D02*
X37700000Y-3200000D01*
X38400000Y-5200000D02*
X37700000Y-4500000D01*
X38700000Y-5200000D02*
X36400000Y-5200000D01*
X38700000Y-5200000D02*
X38400000Y-5200000D01*
X36400000Y-5200000D02*
X35700000Y-5900000D01*
X34400000Y-5400000D02*
X34400000Y-4600000D01*
X34900000Y-5900000D02*
X34400000Y-5400000D01*
X35300000Y-5900000D02*
X31500000Y-5900000D01*
X35300000Y-5900000D02*
X34900000Y-5900000D01*
X35700000Y-5900000D02*
X35300000Y-5900000D01*
X31500000Y-5900000D02*
X29200000Y-8200000D01*
X27600000Y-8000000D02*
X27600000Y-6900000D01*
X27800000Y-8200000D02*
X27600000Y-8000000D01*
X27800000Y-8200000D02*
X24700000Y-8200000D01*
X19800000Y-11500000D02*
X19800000Y-10500000D01*
X20200000Y-11900000D02*
X19800000Y-11500000D01*
X20500000Y-11900000D02*
X15400000Y-11900000D01*
X20500000Y-11900000D02*
X20200000Y-11900000D01*
X21000000Y-11900000D02*
X20500000Y-11900000D01*
X15400000Y-11900000D02*
X14000000Y-13300000D01*
X14000000Y-13300000D02*
X14000000Y-15300000D01*
X13700000Y-15600000D02*
X12500000Y-15600000D01*
X14000000Y-15300000D02*
X13700000Y-15600000D01*
X78100000Y-16300000D02*
X79300000Y-16300000D01*
X71800000Y-12500000D02*
X72300000Y-12500000D01*
X71600000Y-12500000D02*
X71800000Y-12500000D01*
X71800000Y-12500000D02*
X77000000Y-12500000D01*
X78100000Y-16000000D02*
X78100000Y-16300000D01*
X78100000Y-13600000D02*
X78100000Y-16000000D01*
X60900000Y-6000000D02*
X61400000Y-6500000D01*
X61400000Y-6500000D02*
X63800000Y-8900000D01*
X49700000Y-5100000D02*
X50600000Y-6000000D01*
X59050000Y-6000000D02*
X59200000Y-6000000D01*
X58800000Y-5750000D02*
X59050000Y-6000000D01*
X58800000Y-5000000D02*
X58800000Y-5750000D01*
X59200000Y-6000000D02*
X60900000Y-6000000D01*
X42140000Y-6060000D02*
X43000000Y-5200000D01*
X42140000Y-9445000D02*
X42140000Y-6060000D01*
X45400000Y-5200000D02*
X43000000Y-5200000D01*
X28300000Y-8200000D02*
X27800000Y-8200000D01*
X29200000Y-8200000D02*
X28600000Y-8200000D01*
X28600000Y-8200000D02*
X28300000Y-8200000D01*
X24700000Y-8200000D02*
X21300000Y-11600000D01*
X21300000Y-11600000D02*
X21000000Y-11900000D01*
X12500000Y-15600000D02*
X12500000Y-18900000D01*
X12500000Y-18900000D02*
X9200000Y-22200000D01*
X9200000Y-22200000D02*
X7100000Y-22200000D01*
X58700000Y-5100000D02*
X58800000Y-5000000D01*
X57500000Y-5100000D02*
X58700000Y-5100000D01*
X57500000Y-5900000D02*
X57500000Y-5100000D01*
X57600000Y-6000000D02*
X57500000Y-5900000D01*
X57600000Y-6000000D02*
X59200000Y-6000000D01*
X50600000Y-6000000D02*
X57600000Y-6000000D01*
X64500000Y-7000000D02*
X64500000Y-8900000D01*
X63800000Y-8900000D02*
X64500000Y-8900000D01*
X64500000Y-8900000D02*
X64800000Y-8900000D01*
X77900000Y-13400000D02*
X78100000Y-13600000D01*
X78100000Y-16000000D02*
X78100000Y-19500000D01*
X77900000Y-13400000D02*
X77900000Y-19300000D01*
X77000000Y-12500000D02*
X77900000Y-13400000D01*
X77900000Y-19300000D02*
X78100000Y-19500000D01*
X43000000Y-5200000D02*
X38700000Y-5200000D01*
G04 #@! TO.N,AD0*
X15000000Y-19600000D02*
X20600000Y-14000000D01*
X20600000Y-14000000D02*
X24000000Y-14000000D01*
X24000000Y-14000000D02*
X27800000Y-10200000D01*
X35200008Y-10199992D02*
X37399992Y-10199992D01*
X35200000Y-10200000D02*
X35200008Y-10199992D01*
X27800000Y-10200000D02*
X35200000Y-10200000D01*
X37399992Y-10199992D02*
X38400000Y-11200000D01*
X38400000Y-12000000D02*
X38400000Y-13700000D01*
X38400000Y-11200000D02*
X38400000Y-12000000D01*
X38400000Y-13700000D02*
X39100000Y-14400000D01*
X43340000Y-14400000D02*
X43640000Y-14100000D01*
X39100000Y-14400000D02*
X43340000Y-14400000D01*
D20*
X43640000Y-9445000D02*
X43640000Y-14100000D01*
D18*
G04 #@! TO.N,AD1*
X21600000Y-15000000D02*
X24200000Y-15000000D01*
X24200000Y-15000000D02*
X28500000Y-10700000D01*
X28500000Y-10700000D02*
X36900000Y-10700000D01*
X36900000Y-10700000D02*
X37800000Y-11600000D01*
X37800000Y-14100000D02*
X37800000Y-14200000D01*
X37800000Y-11600000D02*
X37800000Y-14100000D01*
X37800000Y-14200000D02*
X38600000Y-15000000D01*
X44140000Y-14307120D02*
X44140000Y-14200000D01*
X43447120Y-15000000D02*
X44140000Y-14307120D01*
X38600000Y-15000000D02*
X43447120Y-15000000D01*
D20*
X44140000Y-9445000D02*
X44140000Y-14200000D01*
G04 #@! TO.N,AD2*
X29200000Y-11300000D02*
X30565685Y-11300000D01*
X28400000Y-12100000D02*
X29200000Y-11300000D01*
D18*
X30565685Y-11300000D02*
X36500000Y-11300000D01*
X36500000Y-11300000D02*
X37300000Y-12100000D01*
X37300000Y-13300000D02*
X37300000Y-14500000D01*
X37300000Y-12100000D02*
X37300000Y-13300000D01*
X37300000Y-14500000D02*
X38400000Y-15600000D01*
X43740000Y-15600000D02*
X44640000Y-14700000D01*
X38400000Y-15600000D02*
X43740000Y-15600000D01*
D20*
X44640000Y-9445000D02*
X44640000Y-14700000D01*
D18*
G04 #@! TO.N,AD3*
X45140000Y-9445000D02*
X45140000Y-7740000D01*
X45140000Y-7740000D02*
X44700000Y-7300000D01*
D20*
G04 #@! TO.N,AD5*
X46140000Y-7199338D02*
X46869669Y-6469669D01*
X46140000Y-9445000D02*
X46140000Y-7199338D01*
D18*
G04 #@! TO.N,AD6*
X47499990Y-6900010D02*
X46639990Y-7760010D01*
X58800010Y-6900010D02*
X62600000Y-10700000D01*
X47499990Y-6900010D02*
X58800010Y-6900010D01*
D20*
X46640000Y-7760000D02*
X47499990Y-6900010D01*
X46640000Y-9445000D02*
X46640000Y-7760000D01*
G04 #@! TO.N,AD4*
X45640000Y-6460000D02*
X45800000Y-6300000D01*
X45640000Y-9445000D02*
X45640000Y-6460000D01*
D18*
G04 #@! TO.N,AD7*
X66300000Y-13200000D02*
X69600000Y-13200000D01*
X47827880Y-7500000D02*
X57500000Y-7500000D01*
X57500000Y-7500000D02*
X62000000Y-12000000D01*
X62000000Y-12000000D02*
X65100000Y-12000000D01*
X65100000Y-12000000D02*
X66300000Y-13200000D01*
D20*
X47140000Y-8187880D02*
X47827880Y-7500000D01*
X47140000Y-9445000D02*
X47140000Y-8187880D01*
D18*
G04 #@! TO.N,AD8*
X66400000Y-14300000D02*
X71600000Y-14300000D01*
X47935000Y-8100000D02*
X57100000Y-8100000D01*
X57100000Y-8100000D02*
X61600000Y-12600000D01*
X61600000Y-12600000D02*
X64700000Y-12600000D01*
X64700000Y-12600000D02*
X66400000Y-14300000D01*
D20*
X47640000Y-8395000D02*
X47935000Y-8100000D01*
X47640000Y-9445000D02*
X47640000Y-8395000D01*
D18*
X73134315Y-14300000D02*
X71600000Y-14300000D01*
X76134315Y-17300000D02*
X73134315Y-14300000D01*
X76700000Y-17300000D02*
X76134315Y-17300000D01*
G04 #@! TO.N,AD9*
X57545000Y-9445000D02*
X48140000Y-9445000D01*
X61341238Y-13241238D02*
X57545000Y-9445000D01*
X64300000Y-13241238D02*
X61341238Y-13241238D01*
X65958762Y-14900000D02*
X64300000Y-13241238D01*
X83800000Y-22200000D02*
X83266927Y-21666927D01*
X83266927Y-21666927D02*
X77900000Y-21666927D01*
X77900000Y-21666927D02*
X76500000Y-20266927D01*
X76500000Y-20266927D02*
X76500000Y-18700000D01*
X76500000Y-18700000D02*
X72700000Y-14900000D01*
X72700000Y-14900000D02*
X65958762Y-14900000D01*
D20*
G04 #@! TO.N,LEFT_VCC*
X44200000Y-39200000D02*
X44500000Y-38900000D01*
X44200000Y-40500000D02*
X44200000Y-39200000D01*
X44500000Y-38900000D02*
X55500000Y-38900000D01*
X58100000Y-40400000D02*
X58100000Y-39700000D01*
X55500000Y-38900000D02*
X57300000Y-38900000D01*
X57300000Y-38900000D02*
X58400000Y-38900000D01*
X58400000Y-38900000D02*
X66000000Y-38900000D01*
X37300000Y-38900000D02*
X44500000Y-38900000D01*
D19*
X35600000Y-43200000D02*
X36400000Y-42400000D01*
X34400000Y-43200000D02*
X35600000Y-43200000D01*
X36400000Y-39800000D02*
X37300000Y-38900000D01*
X36400000Y-42400000D02*
X36400000Y-39800000D01*
X66000000Y-38900000D02*
X83470000Y-56370000D01*
X37300000Y-38900000D02*
X66000000Y-38900000D01*
X58100000Y-39200000D02*
X58400000Y-38900000D01*
X58100000Y-40400000D02*
X58100000Y-39200000D01*
X48000000Y-41400000D02*
X47100000Y-40500000D01*
X48000000Y-43900000D02*
X48000000Y-41400000D01*
X47100000Y-40500000D02*
X44200000Y-40500000D01*
X34400000Y-43200000D02*
X34400000Y-44300000D01*
G04 #@! TO.N,RIGHT_VCC*
X48400000Y-30900000D02*
X48600000Y-31100000D01*
X48400000Y-29200000D02*
X48400000Y-30900000D01*
X48600000Y-31100000D02*
X48600000Y-32800000D01*
X48600000Y-32800000D02*
X49100000Y-33300000D01*
X48400000Y-28350000D02*
X47950000Y-27900000D01*
X48400000Y-29200000D02*
X48400000Y-28350000D01*
X27153146Y-27900000D02*
X9751573Y-45301573D01*
X38000000Y-28800000D02*
X37100000Y-27900000D01*
X38000000Y-33200000D02*
X38000000Y-28800000D01*
X47950000Y-27900000D02*
X37100000Y-27900000D01*
X37100000Y-27900000D02*
X27153146Y-27900000D01*
X49100000Y-33300000D02*
X57900000Y-33300000D01*
X58500000Y-33300000D02*
X57900000Y-33300000D01*
X58900000Y-32900000D02*
X58500000Y-33300000D01*
X58900000Y-31900000D02*
X58900000Y-32900000D01*
D18*
G04 #@! TO.N,Net-(R1-Pad2)*
X41000000Y-3200000D02*
X41200000Y-3400000D01*
X39900000Y-3200000D02*
X41000000Y-3200000D01*
G04 #@! TO.N,Net-(R2-Pad2)*
X10300000Y-15600000D02*
X10300000Y-16400000D01*
X10300000Y-16400000D02*
X10600000Y-16700000D01*
G04 #@! TO.N,Net-(R4-Pad2)*
X75500000Y-11000000D02*
X76000000Y-11500000D01*
X74900000Y-11000000D02*
X75500000Y-11000000D01*
G04 #@! TO.N,Net-(R9-Pad2)*
X54700000Y-3600000D02*
X54800000Y-3700000D01*
X53400000Y-3600000D02*
X54700000Y-3600000D01*
G04 #@! TO.N,Net-(R10-Pad2)*
X16900000Y-10500000D02*
X16700000Y-10700000D01*
X17600000Y-10500000D02*
X16900000Y-10500000D01*
G04 #@! TO.N,Net-(R11-Pad2)*
X81500000Y-16300000D02*
X82200000Y-16300000D01*
X82200000Y-16300000D02*
X82600000Y-16700000D01*
G04 #@! TO.N,Net-(R16-Pad2)*
X62100000Y-5000000D02*
X62400000Y-5300000D01*
X61000000Y-5000000D02*
X62100000Y-5000000D01*
G04 #@! TO.N,Net-(R17-Pad2)*
X24500000Y-6900000D02*
X24400000Y-7000000D01*
X25400000Y-6900000D02*
X24500000Y-6900000D01*
D19*
G04 #@! TO.N,Net-(R18-Pad2)*
X40500000Y-40500000D02*
X40400000Y-40400000D01*
X42000000Y-40500000D02*
X40500000Y-40500000D01*
G04 #@! TO.N,Net-(R22-Pad2)*
X55800000Y-40300000D02*
X55900000Y-40400000D01*
X54100000Y-40300000D02*
X55800000Y-40300000D01*
D18*
G04 #@! TO.N,Net-(R23-Pad2)*
X68800000Y-7400000D02*
X69300000Y-7900000D01*
X68000000Y-7400000D02*
X68800000Y-7400000D01*
D19*
G04 #@! TO.N,Net-(R24-Pad2)*
X44800000Y-29200000D02*
X46200000Y-29200000D01*
D18*
G04 #@! TO.N,Net-(R25-Pad2)*
X32200000Y-4600000D02*
X31100000Y-4600000D01*
X31100000Y-4600000D02*
X30800000Y-4900000D01*
D19*
G04 #@! TO.N,Net-(R29-Pad2)*
X50800000Y-31100000D02*
X51800000Y-31100000D01*
X51800000Y-31100000D02*
X52400000Y-30500000D01*
G04 #@! TD*
D21*
G04 #@! TO.N,GND*
G36*
X42465000Y-1914250D02*
X42623750Y-2073000D01*
X43573000Y-2073000D01*
X43573000Y-2053000D01*
X43827000Y-2053000D01*
X43827000Y-2073000D01*
X43847000Y-2073000D01*
X43847000Y-2327000D01*
X43827000Y-2327000D01*
X43827000Y-3126250D01*
X43985750Y-3285000D01*
X44426309Y-3285000D01*
X44659698Y-3188327D01*
X44838327Y-3009699D01*
X44935000Y-2776310D01*
X44935000Y-2767962D01*
X44941106Y-2798659D01*
X45025314Y-2924686D01*
X45151341Y-3008894D01*
X45300000Y-3038464D01*
X45369001Y-3038464D01*
X45369001Y-3087593D01*
X45351341Y-3091106D01*
X45225314Y-3175314D01*
X45141106Y-3301341D01*
X45111536Y-3450000D01*
X45111536Y-4350000D01*
X45141106Y-4498659D01*
X45225314Y-4624686D01*
X45291635Y-4669000D01*
X43052294Y-4669000D01*
X43000000Y-4658598D01*
X42947706Y-4669000D01*
X38619947Y-4669000D01*
X38231000Y-4280053D01*
X38231000Y-4038464D01*
X38300000Y-4038464D01*
X38448659Y-4008894D01*
X38574686Y-3924686D01*
X38658894Y-3798659D01*
X38688464Y-3650000D01*
X38688464Y-2750000D01*
X38911536Y-2750000D01*
X38911536Y-3650000D01*
X38941106Y-3798659D01*
X39025314Y-3924686D01*
X39151341Y-4008894D01*
X39300000Y-4038464D01*
X40500000Y-4038464D01*
X40648659Y-4008894D01*
X40682069Y-3986570D01*
X40757599Y-4062100D01*
X41044649Y-4181000D01*
X41355351Y-4181000D01*
X41642401Y-4062100D01*
X41862100Y-3842401D01*
X41981000Y-3555351D01*
X41981000Y-3244649D01*
X41862100Y-2957599D01*
X41642401Y-2737900D01*
X41355351Y-2619000D01*
X41044649Y-2619000D01*
X40923938Y-2669000D01*
X40872352Y-2669000D01*
X40858894Y-2601341D01*
X40781660Y-2485750D01*
X42465000Y-2485750D01*
X42465000Y-2776310D01*
X42561673Y-3009699D01*
X42740302Y-3188327D01*
X42973691Y-3285000D01*
X43414250Y-3285000D01*
X43573000Y-3126250D01*
X43573000Y-2327000D01*
X42623750Y-2327000D01*
X42465000Y-2485750D01*
X40781660Y-2485750D01*
X40774686Y-2475314D01*
X40648659Y-2391106D01*
X40500000Y-2361536D01*
X39300000Y-2361536D01*
X39151341Y-2391106D01*
X39025314Y-2475314D01*
X38941106Y-2601341D01*
X38911536Y-2750000D01*
X38688464Y-2750000D01*
X38658894Y-2601341D01*
X38574686Y-2475314D01*
X38448659Y-2391106D01*
X38300000Y-2361536D01*
X37100000Y-2361536D01*
X36951341Y-2391106D01*
X36825314Y-2475314D01*
X36741106Y-2601341D01*
X36711536Y-2750000D01*
X36711536Y-3650000D01*
X36741106Y-3798659D01*
X36825314Y-3924686D01*
X36951341Y-4008894D01*
X37100000Y-4038464D01*
X37169000Y-4038464D01*
X37169000Y-4447709D01*
X37158599Y-4500000D01*
X37169000Y-4552290D01*
X37169000Y-4552293D01*
X37192215Y-4669000D01*
X36452289Y-4669000D01*
X36399999Y-4658599D01*
X36347709Y-4669000D01*
X36347706Y-4669000D01*
X36192814Y-4699810D01*
X36017171Y-4817171D01*
X35987549Y-4861504D01*
X35649595Y-5199458D01*
X35455351Y-5119000D01*
X35374739Y-5119000D01*
X35388464Y-5050000D01*
X35388464Y-4150000D01*
X35358894Y-4001341D01*
X35274686Y-3875314D01*
X35148659Y-3791106D01*
X35000000Y-3761536D01*
X33800000Y-3761536D01*
X33651341Y-3791106D01*
X33525314Y-3875314D01*
X33441106Y-4001341D01*
X33411536Y-4150000D01*
X33411536Y-5050000D01*
X33441106Y-5198659D01*
X33525314Y-5324686D01*
X33591635Y-5369000D01*
X33008365Y-5369000D01*
X33074686Y-5324686D01*
X33158894Y-5198659D01*
X33188464Y-5050000D01*
X33188464Y-4150000D01*
X33158894Y-4001341D01*
X33074686Y-3875314D01*
X32948659Y-3791106D01*
X32800000Y-3761536D01*
X31600000Y-3761536D01*
X31451341Y-3791106D01*
X31325314Y-3875314D01*
X31241106Y-4001341D01*
X31227648Y-4069000D01*
X31152289Y-4069000D01*
X31099999Y-4058599D01*
X31047709Y-4069000D01*
X31047706Y-4069000D01*
X30892814Y-4099810D01*
X30864094Y-4119000D01*
X30644649Y-4119000D01*
X30357599Y-4237900D01*
X30137900Y-4457599D01*
X30019000Y-4744649D01*
X30019000Y-5055351D01*
X30137900Y-5342401D01*
X30357599Y-5562100D01*
X30644649Y-5681000D01*
X30955351Y-5681000D01*
X30977033Y-5672019D01*
X28980053Y-7669000D01*
X28408365Y-7669000D01*
X28474686Y-7624686D01*
X28558894Y-7498659D01*
X28588464Y-7350000D01*
X28588464Y-6450000D01*
X28558894Y-6301341D01*
X28474686Y-6175314D01*
X28348659Y-6091106D01*
X28200000Y-6061536D01*
X27000000Y-6061536D01*
X26851341Y-6091106D01*
X26725314Y-6175314D01*
X26641106Y-6301341D01*
X26611536Y-6450000D01*
X26611536Y-7350000D01*
X26641106Y-7498659D01*
X26725314Y-7624686D01*
X26791635Y-7669000D01*
X26208365Y-7669000D01*
X26274686Y-7624686D01*
X26358894Y-7498659D01*
X26388464Y-7350000D01*
X26388464Y-6450000D01*
X26358894Y-6301341D01*
X26274686Y-6175314D01*
X26148659Y-6091106D01*
X26000000Y-6061536D01*
X24800000Y-6061536D01*
X24651341Y-6091106D01*
X24525314Y-6175314D01*
X24496124Y-6219000D01*
X24244649Y-6219000D01*
X23957599Y-6337900D01*
X23737900Y-6557599D01*
X23619000Y-6844649D01*
X23619000Y-7155351D01*
X23737900Y-7442401D01*
X23957599Y-7662100D01*
X24244649Y-7781000D01*
X24371305Y-7781000D01*
X24317171Y-7817171D01*
X24287550Y-7861502D01*
X21330053Y-10819000D01*
X21144649Y-10819000D01*
X20857599Y-10937900D01*
X20774302Y-11021197D01*
X20788464Y-10950000D01*
X20788464Y-10050000D01*
X20758894Y-9901341D01*
X20674686Y-9775314D01*
X20548659Y-9691106D01*
X20400000Y-9661536D01*
X19200000Y-9661536D01*
X19051341Y-9691106D01*
X18925314Y-9775314D01*
X18841106Y-9901341D01*
X18811536Y-10050000D01*
X18811536Y-10950000D01*
X18841106Y-11098659D01*
X18925314Y-11224686D01*
X19051341Y-11308894D01*
X19200000Y-11338464D01*
X19269000Y-11338464D01*
X19269000Y-11369000D01*
X17125743Y-11369000D01*
X17142401Y-11362100D01*
X17166037Y-11338464D01*
X18200000Y-11338464D01*
X18348659Y-11308894D01*
X18474686Y-11224686D01*
X18558894Y-11098659D01*
X18588464Y-10950000D01*
X18588464Y-10050000D01*
X18558894Y-9901341D01*
X18474686Y-9775314D01*
X18348659Y-9691106D01*
X18200000Y-9661536D01*
X17000000Y-9661536D01*
X16851341Y-9691106D01*
X16725314Y-9775314D01*
X16641106Y-9901341D01*
X16637593Y-9919000D01*
X16544649Y-9919000D01*
X16257599Y-10037900D01*
X16037900Y-10257599D01*
X15919000Y-10544649D01*
X15919000Y-10855351D01*
X16037900Y-11142401D01*
X16257599Y-11362100D01*
X16274257Y-11369000D01*
X15452290Y-11369000D01*
X15400000Y-11358599D01*
X15347710Y-11369000D01*
X15347706Y-11369000D01*
X15209299Y-11396531D01*
X15192814Y-11399810D01*
X15071305Y-11481000D01*
X15017171Y-11517171D01*
X14987550Y-11561502D01*
X13661505Y-12887548D01*
X13617171Y-12917171D01*
X13499810Y-13092815D01*
X13469000Y-13247707D01*
X13469000Y-13247710D01*
X13458599Y-13300000D01*
X13469000Y-13352290D01*
X13469001Y-14726498D01*
X13342015Y-14853484D01*
X13248659Y-14791106D01*
X13100000Y-14761536D01*
X11900000Y-14761536D01*
X11751341Y-14791106D01*
X11625314Y-14875314D01*
X11541106Y-15001341D01*
X11511536Y-15150000D01*
X11511536Y-16050000D01*
X11541106Y-16198659D01*
X11625314Y-16324686D01*
X11751341Y-16408894D01*
X11900000Y-16438464D01*
X11969000Y-16438464D01*
X11969001Y-18680051D01*
X8980053Y-21669000D01*
X7673501Y-21669000D01*
X7542401Y-21537900D01*
X7255351Y-21419000D01*
X6944649Y-21419000D01*
X6657599Y-21537900D01*
X6437900Y-21757599D01*
X6319000Y-22044649D01*
X6319000Y-22355351D01*
X6437900Y-22642401D01*
X6657599Y-22862100D01*
X6944649Y-22981000D01*
X7255351Y-22981000D01*
X7542401Y-22862100D01*
X7673501Y-22731000D01*
X9147710Y-22731000D01*
X9200000Y-22741401D01*
X9252290Y-22731000D01*
X9252294Y-22731000D01*
X9407186Y-22700190D01*
X9582829Y-22582829D01*
X9612452Y-22538495D01*
X12838498Y-19312450D01*
X12882829Y-19282829D01*
X12913966Y-19236230D01*
X12956633Y-19172373D01*
X13000190Y-19107186D01*
X13031000Y-18952294D01*
X13041402Y-18900000D01*
X13031000Y-18847706D01*
X13031000Y-16438464D01*
X13100000Y-16438464D01*
X13248659Y-16408894D01*
X13374686Y-16324686D01*
X13458894Y-16198659D01*
X13472352Y-16131000D01*
X13647710Y-16131000D01*
X13700000Y-16141401D01*
X13752290Y-16131000D01*
X13752294Y-16131000D01*
X13907186Y-16100190D01*
X13935906Y-16081000D01*
X14155351Y-16081000D01*
X14442401Y-15962100D01*
X14662100Y-15742401D01*
X14781000Y-15455351D01*
X14781000Y-15144649D01*
X14662100Y-14857599D01*
X14531000Y-14726499D01*
X14531000Y-13519947D01*
X15619948Y-12431000D01*
X20147709Y-12431000D01*
X20199999Y-12441401D01*
X20252289Y-12431000D01*
X20947710Y-12431000D01*
X21000000Y-12441401D01*
X21052290Y-12431000D01*
X21052294Y-12431000D01*
X21207186Y-12400190D01*
X21235906Y-12381000D01*
X21455351Y-12381000D01*
X21742401Y-12262100D01*
X21962100Y-12042401D01*
X22081000Y-11755351D01*
X22081000Y-11569947D01*
X24919948Y-8731000D01*
X27226499Y-8731000D01*
X27357599Y-8862100D01*
X27644649Y-8981000D01*
X27955351Y-8981000D01*
X28242401Y-8862100D01*
X28373501Y-8731000D01*
X29147710Y-8731000D01*
X29200000Y-8741401D01*
X29252290Y-8731000D01*
X29252294Y-8731000D01*
X29407186Y-8700190D01*
X29582829Y-8582829D01*
X29612452Y-8538495D01*
X31719948Y-6431000D01*
X34726499Y-6431000D01*
X34857599Y-6562100D01*
X35144649Y-6681000D01*
X35455351Y-6681000D01*
X35742401Y-6562100D01*
X35903597Y-6400904D01*
X35907186Y-6400190D01*
X36082829Y-6282829D01*
X36112452Y-6238495D01*
X36619947Y-5731000D01*
X38347709Y-5731000D01*
X38399999Y-5741401D01*
X38452289Y-5731000D01*
X41721204Y-5731000D01*
X41639810Y-5852815D01*
X41598599Y-6060000D01*
X41609001Y-6112295D01*
X41609000Y-8657475D01*
X41601536Y-8695000D01*
X41601536Y-9856536D01*
X39340000Y-9856536D01*
X39191341Y-9886106D01*
X39065314Y-9970314D01*
X38981106Y-10096341D01*
X38951536Y-10245000D01*
X38951536Y-13500589D01*
X38931000Y-13480053D01*
X38931000Y-11252294D01*
X38941402Y-11200000D01*
X38900190Y-10992814D01*
X38812451Y-10861503D01*
X38812450Y-10861502D01*
X38782829Y-10817171D01*
X38738498Y-10787550D01*
X37812444Y-9861497D01*
X37782821Y-9817163D01*
X37607178Y-9699802D01*
X37452286Y-9668992D01*
X37452282Y-9668992D01*
X37399992Y-9658591D01*
X37347702Y-9668992D01*
X35252297Y-9668992D01*
X35200007Y-9658591D01*
X35147717Y-9668992D01*
X35147714Y-9668992D01*
X35147674Y-9669000D01*
X27852294Y-9669000D01*
X27800000Y-9658598D01*
X27747706Y-9669000D01*
X27592814Y-9699810D01*
X27417171Y-9817171D01*
X27387549Y-9861504D01*
X23780053Y-13469000D01*
X20652290Y-13469000D01*
X20600000Y-13458599D01*
X20547710Y-13469000D01*
X20547706Y-13469000D01*
X20408952Y-13496600D01*
X20392814Y-13499810D01*
X20268569Y-13582828D01*
X20217171Y-13617171D01*
X20187550Y-13661502D01*
X15030053Y-18819000D01*
X14844649Y-18819000D01*
X14557599Y-18937900D01*
X14337900Y-19157599D01*
X14219000Y-19444649D01*
X14219000Y-19755351D01*
X14337900Y-20042401D01*
X14557599Y-20262100D01*
X14844649Y-20381000D01*
X15155351Y-20381000D01*
X15442401Y-20262100D01*
X15662100Y-20042401D01*
X15781000Y-19755351D01*
X15781000Y-19569947D01*
X20819948Y-14531000D01*
X20964499Y-14531000D01*
X20937900Y-14557599D01*
X20819000Y-14844649D01*
X20819000Y-15155351D01*
X20937900Y-15442401D01*
X21157599Y-15662100D01*
X21444649Y-15781000D01*
X21755351Y-15781000D01*
X22042401Y-15662100D01*
X22173501Y-15531000D01*
X23784557Y-15531000D01*
X23128167Y-15832031D01*
X23119130Y-15836485D01*
X23110034Y-15840811D01*
X23104092Y-15843896D01*
X23104074Y-15843905D01*
X23104061Y-15843912D01*
X20635020Y-17147726D01*
X20626239Y-17152681D01*
X20617405Y-17157505D01*
X20611627Y-17160927D01*
X18219203Y-18600541D01*
X18210725Y-18605971D01*
X18202162Y-18611288D01*
X18196583Y-18615028D01*
X15888252Y-20185946D01*
X15880078Y-20191849D01*
X15871838Y-20197627D01*
X15866477Y-20201672D01*
X13649435Y-21898996D01*
X13641605Y-21905345D01*
X13633698Y-21911575D01*
X13628599Y-21915890D01*
X13628571Y-21915913D01*
X13628551Y-21915931D01*
X11697736Y-23573000D01*
X1031385Y-23573000D01*
X2182201Y-22089421D01*
X4094241Y-19874366D01*
X6119572Y-17762428D01*
X8252682Y-15759360D01*
X8973782Y-15150000D01*
X9311536Y-15150000D01*
X9311536Y-16050000D01*
X9341106Y-16198659D01*
X9425314Y-16324686D01*
X9551341Y-16408894D01*
X9700000Y-16438464D01*
X9766250Y-16438464D01*
X9769000Y-16452290D01*
X9769000Y-16452294D01*
X9778759Y-16501352D01*
X9799810Y-16607185D01*
X9819000Y-16635905D01*
X9819000Y-16855351D01*
X9937900Y-17142401D01*
X10157599Y-17362100D01*
X10444649Y-17481000D01*
X10755351Y-17481000D01*
X11042401Y-17362100D01*
X11262100Y-17142401D01*
X11381000Y-16855351D01*
X11381000Y-16544649D01*
X11262100Y-16257599D01*
X11236570Y-16232069D01*
X11258894Y-16198659D01*
X11288464Y-16050000D01*
X11288464Y-15150000D01*
X11258894Y-15001341D01*
X11174686Y-14875314D01*
X11048659Y-14791106D01*
X10900000Y-14761536D01*
X9700000Y-14761536D01*
X9551341Y-14791106D01*
X9425314Y-14875314D01*
X9341106Y-15001341D01*
X9311536Y-15150000D01*
X8973782Y-15150000D01*
X10487677Y-13870697D01*
X12818461Y-12101587D01*
X15238648Y-10456878D01*
X17741595Y-8941088D01*
X20320424Y-7558379D01*
X22968118Y-6312514D01*
X25677353Y-5206939D01*
X28440745Y-4244668D01*
X31250716Y-3428339D01*
X34099566Y-2760189D01*
X36979461Y-2242056D01*
X39882540Y-1875353D01*
X42465000Y-1685746D01*
X42465000Y-1914250D01*
X42465000Y-1914250D01*
G37*
X42465000Y-1914250D02*
X42623750Y-2073000D01*
X43573000Y-2073000D01*
X43573000Y-2053000D01*
X43827000Y-2053000D01*
X43827000Y-2073000D01*
X43847000Y-2073000D01*
X43847000Y-2327000D01*
X43827000Y-2327000D01*
X43827000Y-3126250D01*
X43985750Y-3285000D01*
X44426309Y-3285000D01*
X44659698Y-3188327D01*
X44838327Y-3009699D01*
X44935000Y-2776310D01*
X44935000Y-2767962D01*
X44941106Y-2798659D01*
X45025314Y-2924686D01*
X45151341Y-3008894D01*
X45300000Y-3038464D01*
X45369001Y-3038464D01*
X45369001Y-3087593D01*
X45351341Y-3091106D01*
X45225314Y-3175314D01*
X45141106Y-3301341D01*
X45111536Y-3450000D01*
X45111536Y-4350000D01*
X45141106Y-4498659D01*
X45225314Y-4624686D01*
X45291635Y-4669000D01*
X43052294Y-4669000D01*
X43000000Y-4658598D01*
X42947706Y-4669000D01*
X38619947Y-4669000D01*
X38231000Y-4280053D01*
X38231000Y-4038464D01*
X38300000Y-4038464D01*
X38448659Y-4008894D01*
X38574686Y-3924686D01*
X38658894Y-3798659D01*
X38688464Y-3650000D01*
X38688464Y-2750000D01*
X38911536Y-2750000D01*
X38911536Y-3650000D01*
X38941106Y-3798659D01*
X39025314Y-3924686D01*
X39151341Y-4008894D01*
X39300000Y-4038464D01*
X40500000Y-4038464D01*
X40648659Y-4008894D01*
X40682069Y-3986570D01*
X40757599Y-4062100D01*
X41044649Y-4181000D01*
X41355351Y-4181000D01*
X41642401Y-4062100D01*
X41862100Y-3842401D01*
X41981000Y-3555351D01*
X41981000Y-3244649D01*
X41862100Y-2957599D01*
X41642401Y-2737900D01*
X41355351Y-2619000D01*
X41044649Y-2619000D01*
X40923938Y-2669000D01*
X40872352Y-2669000D01*
X40858894Y-2601341D01*
X40781660Y-2485750D01*
X42465000Y-2485750D01*
X42465000Y-2776310D01*
X42561673Y-3009699D01*
X42740302Y-3188327D01*
X42973691Y-3285000D01*
X43414250Y-3285000D01*
X43573000Y-3126250D01*
X43573000Y-2327000D01*
X42623750Y-2327000D01*
X42465000Y-2485750D01*
X40781660Y-2485750D01*
X40774686Y-2475314D01*
X40648659Y-2391106D01*
X40500000Y-2361536D01*
X39300000Y-2361536D01*
X39151341Y-2391106D01*
X39025314Y-2475314D01*
X38941106Y-2601341D01*
X38911536Y-2750000D01*
X38688464Y-2750000D01*
X38658894Y-2601341D01*
X38574686Y-2475314D01*
X38448659Y-2391106D01*
X38300000Y-2361536D01*
X37100000Y-2361536D01*
X36951341Y-2391106D01*
X36825314Y-2475314D01*
X36741106Y-2601341D01*
X36711536Y-2750000D01*
X36711536Y-3650000D01*
X36741106Y-3798659D01*
X36825314Y-3924686D01*
X36951341Y-4008894D01*
X37100000Y-4038464D01*
X37169000Y-4038464D01*
X37169000Y-4447709D01*
X37158599Y-4500000D01*
X37169000Y-4552290D01*
X37169000Y-4552293D01*
X37192215Y-4669000D01*
X36452289Y-4669000D01*
X36399999Y-4658599D01*
X36347709Y-4669000D01*
X36347706Y-4669000D01*
X36192814Y-4699810D01*
X36017171Y-4817171D01*
X35987549Y-4861504D01*
X35649595Y-5199458D01*
X35455351Y-5119000D01*
X35374739Y-5119000D01*
X35388464Y-5050000D01*
X35388464Y-4150000D01*
X35358894Y-4001341D01*
X35274686Y-3875314D01*
X35148659Y-3791106D01*
X35000000Y-3761536D01*
X33800000Y-3761536D01*
X33651341Y-3791106D01*
X33525314Y-3875314D01*
X33441106Y-4001341D01*
X33411536Y-4150000D01*
X33411536Y-5050000D01*
X33441106Y-5198659D01*
X33525314Y-5324686D01*
X33591635Y-5369000D01*
X33008365Y-5369000D01*
X33074686Y-5324686D01*
X33158894Y-5198659D01*
X33188464Y-5050000D01*
X33188464Y-4150000D01*
X33158894Y-4001341D01*
X33074686Y-3875314D01*
X32948659Y-3791106D01*
X32800000Y-3761536D01*
X31600000Y-3761536D01*
X31451341Y-3791106D01*
X31325314Y-3875314D01*
X31241106Y-4001341D01*
X31227648Y-4069000D01*
X31152289Y-4069000D01*
X31099999Y-4058599D01*
X31047709Y-4069000D01*
X31047706Y-4069000D01*
X30892814Y-4099810D01*
X30864094Y-4119000D01*
X30644649Y-4119000D01*
X30357599Y-4237900D01*
X30137900Y-4457599D01*
X30019000Y-4744649D01*
X30019000Y-5055351D01*
X30137900Y-5342401D01*
X30357599Y-5562100D01*
X30644649Y-5681000D01*
X30955351Y-5681000D01*
X30977033Y-5672019D01*
X28980053Y-7669000D01*
X28408365Y-7669000D01*
X28474686Y-7624686D01*
X28558894Y-7498659D01*
X28588464Y-7350000D01*
X28588464Y-6450000D01*
X28558894Y-6301341D01*
X28474686Y-6175314D01*
X28348659Y-6091106D01*
X28200000Y-6061536D01*
X27000000Y-6061536D01*
X26851341Y-6091106D01*
X26725314Y-6175314D01*
X26641106Y-6301341D01*
X26611536Y-6450000D01*
X26611536Y-7350000D01*
X26641106Y-7498659D01*
X26725314Y-7624686D01*
X26791635Y-7669000D01*
X26208365Y-7669000D01*
X26274686Y-7624686D01*
X26358894Y-7498659D01*
X26388464Y-7350000D01*
X26388464Y-6450000D01*
X26358894Y-6301341D01*
X26274686Y-6175314D01*
X26148659Y-6091106D01*
X26000000Y-6061536D01*
X24800000Y-6061536D01*
X24651341Y-6091106D01*
X24525314Y-6175314D01*
X24496124Y-6219000D01*
X24244649Y-6219000D01*
X23957599Y-6337900D01*
X23737900Y-6557599D01*
X23619000Y-6844649D01*
X23619000Y-7155351D01*
X23737900Y-7442401D01*
X23957599Y-7662100D01*
X24244649Y-7781000D01*
X24371305Y-7781000D01*
X24317171Y-7817171D01*
X24287550Y-7861502D01*
X21330053Y-10819000D01*
X21144649Y-10819000D01*
X20857599Y-10937900D01*
X20774302Y-11021197D01*
X20788464Y-10950000D01*
X20788464Y-10050000D01*
X20758894Y-9901341D01*
X20674686Y-9775314D01*
X20548659Y-9691106D01*
X20400000Y-9661536D01*
X19200000Y-9661536D01*
X19051341Y-9691106D01*
X18925314Y-9775314D01*
X18841106Y-9901341D01*
X18811536Y-10050000D01*
X18811536Y-10950000D01*
X18841106Y-11098659D01*
X18925314Y-11224686D01*
X19051341Y-11308894D01*
X19200000Y-11338464D01*
X19269000Y-11338464D01*
X19269000Y-11369000D01*
X17125743Y-11369000D01*
X17142401Y-11362100D01*
X17166037Y-11338464D01*
X18200000Y-11338464D01*
X18348659Y-11308894D01*
X18474686Y-11224686D01*
X18558894Y-11098659D01*
X18588464Y-10950000D01*
X18588464Y-10050000D01*
X18558894Y-9901341D01*
X18474686Y-9775314D01*
X18348659Y-9691106D01*
X18200000Y-9661536D01*
X17000000Y-9661536D01*
X16851341Y-9691106D01*
X16725314Y-9775314D01*
X16641106Y-9901341D01*
X16637593Y-9919000D01*
X16544649Y-9919000D01*
X16257599Y-10037900D01*
X16037900Y-10257599D01*
X15919000Y-10544649D01*
X15919000Y-10855351D01*
X16037900Y-11142401D01*
X16257599Y-11362100D01*
X16274257Y-11369000D01*
X15452290Y-11369000D01*
X15400000Y-11358599D01*
X15347710Y-11369000D01*
X15347706Y-11369000D01*
X15209299Y-11396531D01*
X15192814Y-11399810D01*
X15071305Y-11481000D01*
X15017171Y-11517171D01*
X14987550Y-11561502D01*
X13661505Y-12887548D01*
X13617171Y-12917171D01*
X13499810Y-13092815D01*
X13469000Y-13247707D01*
X13469000Y-13247710D01*
X13458599Y-13300000D01*
X13469000Y-13352290D01*
X13469001Y-14726498D01*
X13342015Y-14853484D01*
X13248659Y-14791106D01*
X13100000Y-14761536D01*
X11900000Y-14761536D01*
X11751341Y-14791106D01*
X11625314Y-14875314D01*
X11541106Y-15001341D01*
X11511536Y-15150000D01*
X11511536Y-16050000D01*
X11541106Y-16198659D01*
X11625314Y-16324686D01*
X11751341Y-16408894D01*
X11900000Y-16438464D01*
X11969000Y-16438464D01*
X11969001Y-18680051D01*
X8980053Y-21669000D01*
X7673501Y-21669000D01*
X7542401Y-21537900D01*
X7255351Y-21419000D01*
X6944649Y-21419000D01*
X6657599Y-21537900D01*
X6437900Y-21757599D01*
X6319000Y-22044649D01*
X6319000Y-22355351D01*
X6437900Y-22642401D01*
X6657599Y-22862100D01*
X6944649Y-22981000D01*
X7255351Y-22981000D01*
X7542401Y-22862100D01*
X7673501Y-22731000D01*
X9147710Y-22731000D01*
X9200000Y-22741401D01*
X9252290Y-22731000D01*
X9252294Y-22731000D01*
X9407186Y-22700190D01*
X9582829Y-22582829D01*
X9612452Y-22538495D01*
X12838498Y-19312450D01*
X12882829Y-19282829D01*
X12913966Y-19236230D01*
X12956633Y-19172373D01*
X13000190Y-19107186D01*
X13031000Y-18952294D01*
X13041402Y-18900000D01*
X13031000Y-18847706D01*
X13031000Y-16438464D01*
X13100000Y-16438464D01*
X13248659Y-16408894D01*
X13374686Y-16324686D01*
X13458894Y-16198659D01*
X13472352Y-16131000D01*
X13647710Y-16131000D01*
X13700000Y-16141401D01*
X13752290Y-16131000D01*
X13752294Y-16131000D01*
X13907186Y-16100190D01*
X13935906Y-16081000D01*
X14155351Y-16081000D01*
X14442401Y-15962100D01*
X14662100Y-15742401D01*
X14781000Y-15455351D01*
X14781000Y-15144649D01*
X14662100Y-14857599D01*
X14531000Y-14726499D01*
X14531000Y-13519947D01*
X15619948Y-12431000D01*
X20147709Y-12431000D01*
X20199999Y-12441401D01*
X20252289Y-12431000D01*
X20947710Y-12431000D01*
X21000000Y-12441401D01*
X21052290Y-12431000D01*
X21052294Y-12431000D01*
X21207186Y-12400190D01*
X21235906Y-12381000D01*
X21455351Y-12381000D01*
X21742401Y-12262100D01*
X21962100Y-12042401D01*
X22081000Y-11755351D01*
X22081000Y-11569947D01*
X24919948Y-8731000D01*
X27226499Y-8731000D01*
X27357599Y-8862100D01*
X27644649Y-8981000D01*
X27955351Y-8981000D01*
X28242401Y-8862100D01*
X28373501Y-8731000D01*
X29147710Y-8731000D01*
X29200000Y-8741401D01*
X29252290Y-8731000D01*
X29252294Y-8731000D01*
X29407186Y-8700190D01*
X29582829Y-8582829D01*
X29612452Y-8538495D01*
X31719948Y-6431000D01*
X34726499Y-6431000D01*
X34857599Y-6562100D01*
X35144649Y-6681000D01*
X35455351Y-6681000D01*
X35742401Y-6562100D01*
X35903597Y-6400904D01*
X35907186Y-6400190D01*
X36082829Y-6282829D01*
X36112452Y-6238495D01*
X36619947Y-5731000D01*
X38347709Y-5731000D01*
X38399999Y-5741401D01*
X38452289Y-5731000D01*
X41721204Y-5731000D01*
X41639810Y-5852815D01*
X41598599Y-6060000D01*
X41609001Y-6112295D01*
X41609000Y-8657475D01*
X41601536Y-8695000D01*
X41601536Y-9856536D01*
X39340000Y-9856536D01*
X39191341Y-9886106D01*
X39065314Y-9970314D01*
X38981106Y-10096341D01*
X38951536Y-10245000D01*
X38951536Y-13500589D01*
X38931000Y-13480053D01*
X38931000Y-11252294D01*
X38941402Y-11200000D01*
X38900190Y-10992814D01*
X38812451Y-10861503D01*
X38812450Y-10861502D01*
X38782829Y-10817171D01*
X38738498Y-10787550D01*
X37812444Y-9861497D01*
X37782821Y-9817163D01*
X37607178Y-9699802D01*
X37452286Y-9668992D01*
X37452282Y-9668992D01*
X37399992Y-9658591D01*
X37347702Y-9668992D01*
X35252297Y-9668992D01*
X35200007Y-9658591D01*
X35147717Y-9668992D01*
X35147714Y-9668992D01*
X35147674Y-9669000D01*
X27852294Y-9669000D01*
X27800000Y-9658598D01*
X27747706Y-9669000D01*
X27592814Y-9699810D01*
X27417171Y-9817171D01*
X27387549Y-9861504D01*
X23780053Y-13469000D01*
X20652290Y-13469000D01*
X20600000Y-13458599D01*
X20547710Y-13469000D01*
X20547706Y-13469000D01*
X20408952Y-13496600D01*
X20392814Y-13499810D01*
X20268569Y-13582828D01*
X20217171Y-13617171D01*
X20187550Y-13661502D01*
X15030053Y-18819000D01*
X14844649Y-18819000D01*
X14557599Y-18937900D01*
X14337900Y-19157599D01*
X14219000Y-19444649D01*
X14219000Y-19755351D01*
X14337900Y-20042401D01*
X14557599Y-20262100D01*
X14844649Y-20381000D01*
X15155351Y-20381000D01*
X15442401Y-20262100D01*
X15662100Y-20042401D01*
X15781000Y-19755351D01*
X15781000Y-19569947D01*
X20819948Y-14531000D01*
X20964499Y-14531000D01*
X20937900Y-14557599D01*
X20819000Y-14844649D01*
X20819000Y-15155351D01*
X20937900Y-15442401D01*
X21157599Y-15662100D01*
X21444649Y-15781000D01*
X21755351Y-15781000D01*
X22042401Y-15662100D01*
X22173501Y-15531000D01*
X23784557Y-15531000D01*
X23128167Y-15832031D01*
X23119130Y-15836485D01*
X23110034Y-15840811D01*
X23104092Y-15843896D01*
X23104074Y-15843905D01*
X23104061Y-15843912D01*
X20635020Y-17147726D01*
X20626239Y-17152681D01*
X20617405Y-17157505D01*
X20611627Y-17160927D01*
X18219203Y-18600541D01*
X18210725Y-18605971D01*
X18202162Y-18611288D01*
X18196583Y-18615028D01*
X15888252Y-20185946D01*
X15880078Y-20191849D01*
X15871838Y-20197627D01*
X15866477Y-20201672D01*
X13649435Y-21898996D01*
X13641605Y-21905345D01*
X13633698Y-21911575D01*
X13628599Y-21915890D01*
X13628571Y-21915913D01*
X13628551Y-21915931D01*
X11697736Y-23573000D01*
X1031385Y-23573000D01*
X2182201Y-22089421D01*
X4094241Y-19874366D01*
X6119572Y-17762428D01*
X8252682Y-15759360D01*
X8973782Y-15150000D01*
X9311536Y-15150000D01*
X9311536Y-16050000D01*
X9341106Y-16198659D01*
X9425314Y-16324686D01*
X9551341Y-16408894D01*
X9700000Y-16438464D01*
X9766250Y-16438464D01*
X9769000Y-16452290D01*
X9769000Y-16452294D01*
X9778759Y-16501352D01*
X9799810Y-16607185D01*
X9819000Y-16635905D01*
X9819000Y-16855351D01*
X9937900Y-17142401D01*
X10157599Y-17362100D01*
X10444649Y-17481000D01*
X10755351Y-17481000D01*
X11042401Y-17362100D01*
X11262100Y-17142401D01*
X11381000Y-16855351D01*
X11381000Y-16544649D01*
X11262100Y-16257599D01*
X11236570Y-16232069D01*
X11258894Y-16198659D01*
X11288464Y-16050000D01*
X11288464Y-15150000D01*
X11258894Y-15001341D01*
X11174686Y-14875314D01*
X11048659Y-14791106D01*
X10900000Y-14761536D01*
X9700000Y-14761536D01*
X9551341Y-14791106D01*
X9425314Y-14875314D01*
X9341106Y-15001341D01*
X9311536Y-15150000D01*
X8973782Y-15150000D01*
X10487677Y-13870697D01*
X12818461Y-12101587D01*
X15238648Y-10456878D01*
X17741595Y-8941088D01*
X20320424Y-7558379D01*
X22968118Y-6312514D01*
X25677353Y-5206939D01*
X28440745Y-4244668D01*
X31250716Y-3428339D01*
X34099566Y-2760189D01*
X36979461Y-2242056D01*
X39882540Y-1875353D01*
X42465000Y-1685746D01*
X42465000Y-1914250D01*
G36*
X78522125Y-12446526D02*
X80834207Y-14240013D01*
X82801348Y-15938053D01*
X82755351Y-15919000D01*
X82584051Y-15919000D01*
X82582829Y-15917171D01*
X82488464Y-15854118D01*
X82488464Y-15850000D01*
X82458894Y-15701341D01*
X82374686Y-15575314D01*
X82248659Y-15491106D01*
X82100000Y-15461536D01*
X80900000Y-15461536D01*
X80751341Y-15491106D01*
X80625314Y-15575314D01*
X80541106Y-15701341D01*
X80511536Y-15850000D01*
X80511536Y-16750000D01*
X80541106Y-16898659D01*
X80625314Y-17024686D01*
X80751341Y-17108894D01*
X80900000Y-17138464D01*
X81936269Y-17138464D01*
X81937900Y-17142401D01*
X82157599Y-17362100D01*
X82444649Y-17481000D01*
X82755351Y-17481000D01*
X83042401Y-17362100D01*
X83262100Y-17142401D01*
X83381000Y-16855351D01*
X83381000Y-16544649D01*
X83329831Y-16421115D01*
X85161200Y-18177384D01*
X87164268Y-20310494D01*
X89053746Y-22546453D01*
X89841420Y-23573000D01*
X79171912Y-23573000D01*
X78135598Y-22661980D01*
X78129941Y-22657280D01*
X78124418Y-22652451D01*
X78119211Y-22648209D01*
X75942213Y-20899821D01*
X75934162Y-20893717D01*
X75926244Y-20887538D01*
X75920809Y-20883593D01*
X73649607Y-19259456D01*
X73641230Y-19253813D01*
X73632977Y-19248083D01*
X73627330Y-19244448D01*
X71269008Y-17749624D01*
X71260363Y-17744477D01*
X71251770Y-17739197D01*
X71245929Y-17735883D01*
X68807840Y-16375036D01*
X68798912Y-16370375D01*
X68790047Y-16365588D01*
X68784030Y-16362605D01*
X66871295Y-15431000D01*
X72480053Y-15431000D01*
X75969001Y-18919948D01*
X75969000Y-20214636D01*
X75958599Y-20266927D01*
X75969000Y-20319217D01*
X75969000Y-20319220D01*
X75999810Y-20474112D01*
X76117171Y-20649756D01*
X76161505Y-20679379D01*
X77487550Y-22005425D01*
X77517171Y-22049756D01*
X77561502Y-22079377D01*
X77561503Y-22079378D01*
X77648306Y-22137378D01*
X77692814Y-22167117D01*
X77847706Y-22197927D01*
X77847710Y-22197927D01*
X77900000Y-22208328D01*
X77952290Y-22197927D01*
X83019000Y-22197927D01*
X83019000Y-22355351D01*
X83137900Y-22642401D01*
X83357599Y-22862100D01*
X83644649Y-22981000D01*
X83955351Y-22981000D01*
X84242401Y-22862100D01*
X84462100Y-22642401D01*
X84581000Y-22355351D01*
X84581000Y-22044649D01*
X84462100Y-21757599D01*
X84242401Y-21537900D01*
X83955351Y-21419000D01*
X83769947Y-21419000D01*
X83679379Y-21328432D01*
X83649756Y-21284098D01*
X83474113Y-21166737D01*
X83319221Y-21135927D01*
X83319217Y-21135927D01*
X83266927Y-21125526D01*
X83214637Y-21135927D01*
X78119948Y-21135927D01*
X77031000Y-20046980D01*
X77031000Y-18752294D01*
X77041402Y-18700000D01*
X77026332Y-18624239D01*
X77000190Y-18492814D01*
X76882829Y-18317171D01*
X76838495Y-18287548D01*
X76631947Y-18081000D01*
X76855351Y-18081000D01*
X77142401Y-17962100D01*
X77362100Y-17742401D01*
X77369001Y-17725741D01*
X77369001Y-19223936D01*
X77319000Y-19344649D01*
X77319000Y-19655351D01*
X77437900Y-19942401D01*
X77657599Y-20162100D01*
X77944649Y-20281000D01*
X78255351Y-20281000D01*
X78542401Y-20162100D01*
X78762100Y-19942401D01*
X78881000Y-19655351D01*
X78881000Y-19344649D01*
X78762100Y-19057599D01*
X78631000Y-18926499D01*
X78631000Y-17124739D01*
X78700000Y-17138464D01*
X79900000Y-17138464D01*
X80048659Y-17108894D01*
X80174686Y-17024686D01*
X80258894Y-16898659D01*
X80288464Y-16750000D01*
X80288464Y-15850000D01*
X80258894Y-15701341D01*
X80174686Y-15575314D01*
X80048659Y-15491106D01*
X79900000Y-15461536D01*
X78700000Y-15461536D01*
X78631000Y-15475261D01*
X78631000Y-13652294D01*
X78641402Y-13600000D01*
X78621656Y-13500729D01*
X78600190Y-13392814D01*
X78482829Y-13217171D01*
X78438495Y-13187548D01*
X78312452Y-13061505D01*
X78282829Y-13017171D01*
X78238495Y-12987548D01*
X77412451Y-12161504D01*
X77382829Y-12117171D01*
X77207186Y-11999810D01*
X77052294Y-11969000D01*
X77052290Y-11969000D01*
X77000000Y-11958599D01*
X76947710Y-11969000D01*
X76635501Y-11969000D01*
X76662100Y-11942401D01*
X76781000Y-11655351D01*
X76781000Y-11344649D01*
X76718021Y-11192604D01*
X78522125Y-12446526D01*
X78522125Y-12446526D01*
G37*
X78522125Y-12446526D02*
X80834207Y-14240013D01*
X82801348Y-15938053D01*
X82755351Y-15919000D01*
X82584051Y-15919000D01*
X82582829Y-15917171D01*
X82488464Y-15854118D01*
X82488464Y-15850000D01*
X82458894Y-15701341D01*
X82374686Y-15575314D01*
X82248659Y-15491106D01*
X82100000Y-15461536D01*
X80900000Y-15461536D01*
X80751341Y-15491106D01*
X80625314Y-15575314D01*
X80541106Y-15701341D01*
X80511536Y-15850000D01*
X80511536Y-16750000D01*
X80541106Y-16898659D01*
X80625314Y-17024686D01*
X80751341Y-17108894D01*
X80900000Y-17138464D01*
X81936269Y-17138464D01*
X81937900Y-17142401D01*
X82157599Y-17362100D01*
X82444649Y-17481000D01*
X82755351Y-17481000D01*
X83042401Y-17362100D01*
X83262100Y-17142401D01*
X83381000Y-16855351D01*
X83381000Y-16544649D01*
X83329831Y-16421115D01*
X85161200Y-18177384D01*
X87164268Y-20310494D01*
X89053746Y-22546453D01*
X89841420Y-23573000D01*
X79171912Y-23573000D01*
X78135598Y-22661980D01*
X78129941Y-22657280D01*
X78124418Y-22652451D01*
X78119211Y-22648209D01*
X75942213Y-20899821D01*
X75934162Y-20893717D01*
X75926244Y-20887538D01*
X75920809Y-20883593D01*
X73649607Y-19259456D01*
X73641230Y-19253813D01*
X73632977Y-19248083D01*
X73627330Y-19244448D01*
X71269008Y-17749624D01*
X71260363Y-17744477D01*
X71251770Y-17739197D01*
X71245929Y-17735883D01*
X68807840Y-16375036D01*
X68798912Y-16370375D01*
X68790047Y-16365588D01*
X68784030Y-16362605D01*
X66871295Y-15431000D01*
X72480053Y-15431000D01*
X75969001Y-18919948D01*
X75969000Y-20214636D01*
X75958599Y-20266927D01*
X75969000Y-20319217D01*
X75969000Y-20319220D01*
X75999810Y-20474112D01*
X76117171Y-20649756D01*
X76161505Y-20679379D01*
X77487550Y-22005425D01*
X77517171Y-22049756D01*
X77561502Y-22079377D01*
X77561503Y-22079378D01*
X77648306Y-22137378D01*
X77692814Y-22167117D01*
X77847706Y-22197927D01*
X77847710Y-22197927D01*
X77900000Y-22208328D01*
X77952290Y-22197927D01*
X83019000Y-22197927D01*
X83019000Y-22355351D01*
X83137900Y-22642401D01*
X83357599Y-22862100D01*
X83644649Y-22981000D01*
X83955351Y-22981000D01*
X84242401Y-22862100D01*
X84462100Y-22642401D01*
X84581000Y-22355351D01*
X84581000Y-22044649D01*
X84462100Y-21757599D01*
X84242401Y-21537900D01*
X83955351Y-21419000D01*
X83769947Y-21419000D01*
X83679379Y-21328432D01*
X83649756Y-21284098D01*
X83474113Y-21166737D01*
X83319221Y-21135927D01*
X83319217Y-21135927D01*
X83266927Y-21125526D01*
X83214637Y-21135927D01*
X78119948Y-21135927D01*
X77031000Y-20046980D01*
X77031000Y-18752294D01*
X77041402Y-18700000D01*
X77026332Y-18624239D01*
X77000190Y-18492814D01*
X76882829Y-18317171D01*
X76838495Y-18287548D01*
X76631947Y-18081000D01*
X76855351Y-18081000D01*
X77142401Y-17962100D01*
X77362100Y-17742401D01*
X77369001Y-17725741D01*
X77369001Y-19223936D01*
X77319000Y-19344649D01*
X77319000Y-19655351D01*
X77437900Y-19942401D01*
X77657599Y-20162100D01*
X77944649Y-20281000D01*
X78255351Y-20281000D01*
X78542401Y-20162100D01*
X78762100Y-19942401D01*
X78881000Y-19655351D01*
X78881000Y-19344649D01*
X78762100Y-19057599D01*
X78631000Y-18926499D01*
X78631000Y-17124739D01*
X78700000Y-17138464D01*
X79900000Y-17138464D01*
X80048659Y-17108894D01*
X80174686Y-17024686D01*
X80258894Y-16898659D01*
X80288464Y-16750000D01*
X80288464Y-15850000D01*
X80258894Y-15701341D01*
X80174686Y-15575314D01*
X80048659Y-15491106D01*
X79900000Y-15461536D01*
X78700000Y-15461536D01*
X78631000Y-15475261D01*
X78631000Y-13652294D01*
X78641402Y-13600000D01*
X78621656Y-13500729D01*
X78600190Y-13392814D01*
X78482829Y-13217171D01*
X78438495Y-13187548D01*
X78312452Y-13061505D01*
X78282829Y-13017171D01*
X78238495Y-12987548D01*
X77412451Y-12161504D01*
X77382829Y-12117171D01*
X77207186Y-11999810D01*
X77052294Y-11969000D01*
X77052290Y-11969000D01*
X77000000Y-11958599D01*
X76947710Y-11969000D01*
X76635501Y-11969000D01*
X76662100Y-11942401D01*
X76781000Y-11655351D01*
X76781000Y-11344649D01*
X76718021Y-11192604D01*
X78522125Y-12446526D01*
G36*
X60215833Y-12866780D02*
X58314241Y-12308244D01*
X58304499Y-12305675D01*
X58294797Y-12302972D01*
X58288268Y-12301396D01*
X55625684Y-11678433D01*
X55620585Y-11675026D01*
X55432908Y-11637695D01*
X55245232Y-11675026D01*
X55086128Y-11781337D01*
X54979817Y-11940441D01*
X54951909Y-12080745D01*
X54951909Y-17573000D01*
X35913908Y-17573000D01*
X35913908Y-12080745D01*
X35886000Y-11940441D01*
X35812873Y-11831000D01*
X36280053Y-11831000D01*
X36769000Y-12319948D01*
X36769001Y-13247702D01*
X36769000Y-13247707D01*
X36769001Y-14447705D01*
X36758599Y-14500000D01*
X36799810Y-14707185D01*
X36887549Y-14838496D01*
X36887551Y-14838498D01*
X36917172Y-14882829D01*
X36961503Y-14912450D01*
X37987550Y-15938498D01*
X38017171Y-15982829D01*
X38061502Y-16012450D01*
X38061503Y-16012451D01*
X38192814Y-16100190D01*
X38400000Y-16141402D01*
X38452294Y-16131000D01*
X43687710Y-16131000D01*
X43740000Y-16141401D01*
X43792290Y-16131000D01*
X43792294Y-16131000D01*
X43947186Y-16100190D01*
X44122829Y-15982829D01*
X44152452Y-15938495D01*
X45052450Y-15038497D01*
X45140190Y-14907186D01*
X45181401Y-14700001D01*
X45146000Y-14522023D01*
X45146000Y-10583464D01*
X45290000Y-10583464D01*
X45390000Y-10563573D01*
X45490000Y-10583464D01*
X45790000Y-10583464D01*
X45890000Y-10563573D01*
X45990000Y-10583464D01*
X46290000Y-10583464D01*
X46390000Y-10563573D01*
X46490000Y-10583464D01*
X46790000Y-10583464D01*
X46890000Y-10563573D01*
X46990000Y-10583464D01*
X47290000Y-10583464D01*
X47390000Y-10563573D01*
X47490000Y-10583464D01*
X47790000Y-10583464D01*
X47890000Y-10563573D01*
X47990000Y-10583464D01*
X48251536Y-10583464D01*
X48251536Y-13545000D01*
X48281106Y-13693659D01*
X48365314Y-13819686D01*
X48491341Y-13903894D01*
X48640000Y-13933464D01*
X50940000Y-13933464D01*
X51088659Y-13903894D01*
X51214686Y-13819686D01*
X51298894Y-13693659D01*
X51328464Y-13545000D01*
X51328464Y-10245000D01*
X51298894Y-10096341D01*
X51218485Y-9976000D01*
X57325053Y-9976000D01*
X60215833Y-12866780D01*
X60215833Y-12866780D01*
G37*
X60215833Y-12866780D02*
X58314241Y-12308244D01*
X58304499Y-12305675D01*
X58294797Y-12302972D01*
X58288268Y-12301396D01*
X55625684Y-11678433D01*
X55620585Y-11675026D01*
X55432908Y-11637695D01*
X55245232Y-11675026D01*
X55086128Y-11781337D01*
X54979817Y-11940441D01*
X54951909Y-12080745D01*
X54951909Y-17573000D01*
X35913908Y-17573000D01*
X35913908Y-12080745D01*
X35886000Y-11940441D01*
X35812873Y-11831000D01*
X36280053Y-11831000D01*
X36769000Y-12319948D01*
X36769001Y-13247702D01*
X36769000Y-13247707D01*
X36769001Y-14447705D01*
X36758599Y-14500000D01*
X36799810Y-14707185D01*
X36887549Y-14838496D01*
X36887551Y-14838498D01*
X36917172Y-14882829D01*
X36961503Y-14912450D01*
X37987550Y-15938498D01*
X38017171Y-15982829D01*
X38061502Y-16012450D01*
X38061503Y-16012451D01*
X38192814Y-16100190D01*
X38400000Y-16141402D01*
X38452294Y-16131000D01*
X43687710Y-16131000D01*
X43740000Y-16141401D01*
X43792290Y-16131000D01*
X43792294Y-16131000D01*
X43947186Y-16100190D01*
X44122829Y-15982829D01*
X44152452Y-15938495D01*
X45052450Y-15038497D01*
X45140190Y-14907186D01*
X45181401Y-14700001D01*
X45146000Y-14522023D01*
X45146000Y-10583464D01*
X45290000Y-10583464D01*
X45390000Y-10563573D01*
X45490000Y-10583464D01*
X45790000Y-10583464D01*
X45890000Y-10563573D01*
X45990000Y-10583464D01*
X46290000Y-10583464D01*
X46390000Y-10563573D01*
X46490000Y-10583464D01*
X46790000Y-10583464D01*
X46890000Y-10563573D01*
X46990000Y-10583464D01*
X47290000Y-10583464D01*
X47390000Y-10563573D01*
X47490000Y-10583464D01*
X47790000Y-10583464D01*
X47890000Y-10563573D01*
X47990000Y-10583464D01*
X48251536Y-10583464D01*
X48251536Y-13545000D01*
X48281106Y-13693659D01*
X48365314Y-13819686D01*
X48491341Y-13903894D01*
X48640000Y-13933464D01*
X50940000Y-13933464D01*
X51088659Y-13903894D01*
X51214686Y-13819686D01*
X51298894Y-13693659D01*
X51328464Y-13545000D01*
X51328464Y-10245000D01*
X51298894Y-10096341D01*
X51218485Y-9976000D01*
X57325053Y-9976000D01*
X60215833Y-12866780D01*
G36*
X42130302Y-10733327D02*
X42363691Y-10830000D01*
X42406250Y-10830000D01*
X42565000Y-10671250D01*
X42565000Y-10668025D01*
X42630302Y-10733327D01*
X42863691Y-10830000D01*
X42916309Y-10830000D01*
X43012998Y-10789950D01*
X43012998Y-10830000D01*
X43134000Y-10830000D01*
X43134001Y-13855052D01*
X43120053Y-13869000D01*
X41840882Y-13869000D01*
X41914686Y-13819686D01*
X41998894Y-13693659D01*
X42028464Y-13545000D01*
X42028464Y-10631490D01*
X42130302Y-10733327D01*
X42130302Y-10733327D01*
G37*
X42130302Y-10733327D02*
X42363691Y-10830000D01*
X42406250Y-10830000D01*
X42565000Y-10671250D01*
X42565000Y-10668025D01*
X42630302Y-10733327D01*
X42863691Y-10830000D01*
X42916309Y-10830000D01*
X43012998Y-10789950D01*
X43012998Y-10830000D01*
X43134000Y-10830000D01*
X43134001Y-13855052D01*
X43120053Y-13869000D01*
X41840882Y-13869000D01*
X41914686Y-13819686D01*
X41998894Y-13693659D01*
X42028464Y-13545000D01*
X42028464Y-10631490D01*
X42130302Y-10733327D01*
G36*
X48651039Y-1691801D02*
X51566905Y-1936695D01*
X54465988Y-2333861D01*
X57340294Y-2882206D01*
X60181960Y-3580229D01*
X62983220Y-4426022D01*
X65736332Y-5417247D01*
X68433833Y-6551216D01*
X68455181Y-6561536D01*
X67400000Y-6561536D01*
X67251341Y-6591106D01*
X67125314Y-6675314D01*
X67041106Y-6801341D01*
X67011536Y-6950000D01*
X67011536Y-7850000D01*
X67041106Y-7998659D01*
X67125314Y-8124686D01*
X67251341Y-8208894D01*
X67400000Y-8238464D01*
X68594848Y-8238464D01*
X68637900Y-8342401D01*
X68857599Y-8562100D01*
X69144649Y-8681000D01*
X69455351Y-8681000D01*
X69742401Y-8562100D01*
X69962100Y-8342401D01*
X70081000Y-8055351D01*
X70081000Y-7744649D01*
X69962100Y-7457599D01*
X69742401Y-7237900D01*
X69455351Y-7119000D01*
X69269947Y-7119000D01*
X69212452Y-7061505D01*
X69182829Y-7017171D01*
X69007186Y-6899810D01*
X68977298Y-6893865D01*
X68959710Y-6805444D01*
X71068289Y-7824807D01*
X73632457Y-9234518D01*
X75127538Y-10161536D01*
X74300000Y-10161536D01*
X74151341Y-10191106D01*
X74025314Y-10275314D01*
X73941106Y-10401341D01*
X73911536Y-10550000D01*
X73911536Y-11450000D01*
X73941106Y-11598659D01*
X74025314Y-11724686D01*
X74151341Y-11808894D01*
X74300000Y-11838464D01*
X75294848Y-11838464D01*
X75337900Y-11942401D01*
X75364499Y-11969000D01*
X73231000Y-11969000D01*
X73231000Y-11838464D01*
X73300000Y-11838464D01*
X73448659Y-11808894D01*
X73574686Y-11724686D01*
X73658894Y-11598659D01*
X73688464Y-11450000D01*
X73688464Y-10550000D01*
X73658894Y-10401341D01*
X73574686Y-10275314D01*
X73448659Y-10191106D01*
X73300000Y-10161536D01*
X72100000Y-10161536D01*
X71951341Y-10191106D01*
X71825314Y-10275314D01*
X71741106Y-10401341D01*
X71711536Y-10550000D01*
X71711536Y-11450000D01*
X71741106Y-11598659D01*
X71825314Y-11724686D01*
X71951341Y-11808894D01*
X72100000Y-11838464D01*
X72169000Y-11838464D01*
X72169000Y-11880053D01*
X72080053Y-11969000D01*
X70919948Y-11969000D01*
X67512451Y-8561504D01*
X67482829Y-8517171D01*
X67307186Y-8399810D01*
X67152294Y-8369000D01*
X67152290Y-8369000D01*
X67100000Y-8358599D01*
X67047710Y-8369000D01*
X66307786Y-8369000D01*
X66331000Y-8252294D01*
X66331000Y-8252291D01*
X66333750Y-8238464D01*
X66400000Y-8238464D01*
X66548659Y-8208894D01*
X66674686Y-8124686D01*
X66758894Y-7998659D01*
X66788464Y-7850000D01*
X66788464Y-6950000D01*
X66758894Y-6801341D01*
X66674686Y-6675314D01*
X66548659Y-6591106D01*
X66400000Y-6561536D01*
X65200000Y-6561536D01*
X65166492Y-6568201D01*
X65162100Y-6557599D01*
X64942401Y-6337900D01*
X64655351Y-6219000D01*
X64344649Y-6219000D01*
X64057599Y-6337900D01*
X63837900Y-6557599D01*
X63719000Y-6844649D01*
X63719000Y-7155351D01*
X63837900Y-7442401D01*
X63969000Y-7573501D01*
X63969001Y-8318054D01*
X61812453Y-6161506D01*
X61812451Y-6161503D01*
X61489411Y-5838464D01*
X61600000Y-5838464D01*
X61748659Y-5808894D01*
X61782069Y-5786570D01*
X61957599Y-5962100D01*
X62244649Y-6081000D01*
X62555351Y-6081000D01*
X62842401Y-5962100D01*
X63062100Y-5742401D01*
X63181000Y-5455351D01*
X63181000Y-5144649D01*
X63062100Y-4857599D01*
X62842401Y-4637900D01*
X62555351Y-4519000D01*
X62335906Y-4519000D01*
X62307186Y-4499810D01*
X62152294Y-4469000D01*
X62152290Y-4469000D01*
X62100000Y-4458599D01*
X62047710Y-4469000D01*
X61972352Y-4469000D01*
X61958894Y-4401341D01*
X61874686Y-4275314D01*
X61748659Y-4191106D01*
X61600000Y-4161536D01*
X60400000Y-4161536D01*
X60251341Y-4191106D01*
X60125314Y-4275314D01*
X60041106Y-4401341D01*
X60011536Y-4550000D01*
X60011536Y-5450000D01*
X60015315Y-5469000D01*
X59784685Y-5469000D01*
X59788464Y-5450000D01*
X59788464Y-4550000D01*
X59758894Y-4401341D01*
X59674686Y-4275314D01*
X59548659Y-4191106D01*
X59400000Y-4161536D01*
X58200000Y-4161536D01*
X58051341Y-4191106D01*
X57925314Y-4275314D01*
X57843931Y-4397113D01*
X57655351Y-4319000D01*
X57344649Y-4319000D01*
X57057599Y-4437900D01*
X56837900Y-4657599D01*
X56719000Y-4944649D01*
X56719000Y-5255351D01*
X56807496Y-5469000D01*
X50819947Y-5469000D01*
X50231000Y-4880053D01*
X50231000Y-4431000D01*
X50562476Y-4431000D01*
X50600000Y-4438464D01*
X50885234Y-4438464D01*
X50900000Y-4441401D01*
X50914766Y-4438464D01*
X51800000Y-4438464D01*
X51948659Y-4408894D01*
X52074686Y-4324686D01*
X52158894Y-4198659D01*
X52188464Y-4050000D01*
X52188464Y-3150000D01*
X52411536Y-3150000D01*
X52411536Y-4050000D01*
X52441106Y-4198659D01*
X52525314Y-4324686D01*
X52651341Y-4408894D01*
X52800000Y-4438464D01*
X54000000Y-4438464D01*
X54148659Y-4408894D01*
X54274686Y-4324686D01*
X54292910Y-4297411D01*
X54357599Y-4362100D01*
X54644649Y-4481000D01*
X54955351Y-4481000D01*
X55242401Y-4362100D01*
X55462100Y-4142401D01*
X55581000Y-3855351D01*
X55581000Y-3544649D01*
X55462100Y-3257599D01*
X55242401Y-3037900D01*
X54955351Y-2919000D01*
X54644649Y-2919000D01*
X54365514Y-3034622D01*
X54358894Y-3001341D01*
X54274686Y-2875314D01*
X54148659Y-2791106D01*
X54000000Y-2761536D01*
X52800000Y-2761536D01*
X52651341Y-2791106D01*
X52525314Y-2875314D01*
X52441106Y-3001341D01*
X52411536Y-3150000D01*
X52188464Y-3150000D01*
X52158894Y-3001341D01*
X52074686Y-2875314D01*
X51948659Y-2791106D01*
X51800000Y-2761536D01*
X50600000Y-2761536D01*
X50451341Y-2791106D01*
X50325314Y-2875314D01*
X50241106Y-3001341D01*
X50211536Y-3150000D01*
X50211536Y-3369000D01*
X49752294Y-3369000D01*
X49700000Y-3358598D01*
X49647706Y-3369000D01*
X49272352Y-3369000D01*
X49258894Y-3301341D01*
X49174686Y-3175314D01*
X49048659Y-3091106D01*
X48900000Y-3061536D01*
X47700000Y-3061536D01*
X47551341Y-3091106D01*
X47425314Y-3175314D01*
X47341106Y-3301341D01*
X47311536Y-3450000D01*
X47311536Y-4350000D01*
X47341106Y-4498659D01*
X47425314Y-4624686D01*
X47491635Y-4669000D01*
X46908365Y-4669000D01*
X46974686Y-4624686D01*
X47058894Y-4498659D01*
X47088464Y-4350000D01*
X47088464Y-3450000D01*
X47058894Y-3301341D01*
X46974686Y-3175314D01*
X46848659Y-3091106D01*
X46700000Y-3061536D01*
X46431000Y-3061536D01*
X46431000Y-3038464D01*
X46500000Y-3038464D01*
X46648659Y-3008894D01*
X46774686Y-2924686D01*
X46858894Y-2798659D01*
X46888464Y-2650000D01*
X46888464Y-1750000D01*
X46865723Y-1635670D01*
X48651039Y-1691801D01*
X48651039Y-1691801D01*
G37*
X48651039Y-1691801D02*
X51566905Y-1936695D01*
X54465988Y-2333861D01*
X57340294Y-2882206D01*
X60181960Y-3580229D01*
X62983220Y-4426022D01*
X65736332Y-5417247D01*
X68433833Y-6551216D01*
X68455181Y-6561536D01*
X67400000Y-6561536D01*
X67251341Y-6591106D01*
X67125314Y-6675314D01*
X67041106Y-6801341D01*
X67011536Y-6950000D01*
X67011536Y-7850000D01*
X67041106Y-7998659D01*
X67125314Y-8124686D01*
X67251341Y-8208894D01*
X67400000Y-8238464D01*
X68594848Y-8238464D01*
X68637900Y-8342401D01*
X68857599Y-8562100D01*
X69144649Y-8681000D01*
X69455351Y-8681000D01*
X69742401Y-8562100D01*
X69962100Y-8342401D01*
X70081000Y-8055351D01*
X70081000Y-7744649D01*
X69962100Y-7457599D01*
X69742401Y-7237900D01*
X69455351Y-7119000D01*
X69269947Y-7119000D01*
X69212452Y-7061505D01*
X69182829Y-7017171D01*
X69007186Y-6899810D01*
X68977298Y-6893865D01*
X68959710Y-6805444D01*
X71068289Y-7824807D01*
X73632457Y-9234518D01*
X75127538Y-10161536D01*
X74300000Y-10161536D01*
X74151341Y-10191106D01*
X74025314Y-10275314D01*
X73941106Y-10401341D01*
X73911536Y-10550000D01*
X73911536Y-11450000D01*
X73941106Y-11598659D01*
X74025314Y-11724686D01*
X74151341Y-11808894D01*
X74300000Y-11838464D01*
X75294848Y-11838464D01*
X75337900Y-11942401D01*
X75364499Y-11969000D01*
X73231000Y-11969000D01*
X73231000Y-11838464D01*
X73300000Y-11838464D01*
X73448659Y-11808894D01*
X73574686Y-11724686D01*
X73658894Y-11598659D01*
X73688464Y-11450000D01*
X73688464Y-10550000D01*
X73658894Y-10401341D01*
X73574686Y-10275314D01*
X73448659Y-10191106D01*
X73300000Y-10161536D01*
X72100000Y-10161536D01*
X71951341Y-10191106D01*
X71825314Y-10275314D01*
X71741106Y-10401341D01*
X71711536Y-10550000D01*
X71711536Y-11450000D01*
X71741106Y-11598659D01*
X71825314Y-11724686D01*
X71951341Y-11808894D01*
X72100000Y-11838464D01*
X72169000Y-11838464D01*
X72169000Y-11880053D01*
X72080053Y-11969000D01*
X70919948Y-11969000D01*
X67512451Y-8561504D01*
X67482829Y-8517171D01*
X67307186Y-8399810D01*
X67152294Y-8369000D01*
X67152290Y-8369000D01*
X67100000Y-8358599D01*
X67047710Y-8369000D01*
X66307786Y-8369000D01*
X66331000Y-8252294D01*
X66331000Y-8252291D01*
X66333750Y-8238464D01*
X66400000Y-8238464D01*
X66548659Y-8208894D01*
X66674686Y-8124686D01*
X66758894Y-7998659D01*
X66788464Y-7850000D01*
X66788464Y-6950000D01*
X66758894Y-6801341D01*
X66674686Y-6675314D01*
X66548659Y-6591106D01*
X66400000Y-6561536D01*
X65200000Y-6561536D01*
X65166492Y-6568201D01*
X65162100Y-6557599D01*
X64942401Y-6337900D01*
X64655351Y-6219000D01*
X64344649Y-6219000D01*
X64057599Y-6337900D01*
X63837900Y-6557599D01*
X63719000Y-6844649D01*
X63719000Y-7155351D01*
X63837900Y-7442401D01*
X63969000Y-7573501D01*
X63969001Y-8318054D01*
X61812453Y-6161506D01*
X61812451Y-6161503D01*
X61489411Y-5838464D01*
X61600000Y-5838464D01*
X61748659Y-5808894D01*
X61782069Y-5786570D01*
X61957599Y-5962100D01*
X62244649Y-6081000D01*
X62555351Y-6081000D01*
X62842401Y-5962100D01*
X63062100Y-5742401D01*
X63181000Y-5455351D01*
X63181000Y-5144649D01*
X63062100Y-4857599D01*
X62842401Y-4637900D01*
X62555351Y-4519000D01*
X62335906Y-4519000D01*
X62307186Y-4499810D01*
X62152294Y-4469000D01*
X62152290Y-4469000D01*
X62100000Y-4458599D01*
X62047710Y-4469000D01*
X61972352Y-4469000D01*
X61958894Y-4401341D01*
X61874686Y-4275314D01*
X61748659Y-4191106D01*
X61600000Y-4161536D01*
X60400000Y-4161536D01*
X60251341Y-4191106D01*
X60125314Y-4275314D01*
X60041106Y-4401341D01*
X60011536Y-4550000D01*
X60011536Y-5450000D01*
X60015315Y-5469000D01*
X59784685Y-5469000D01*
X59788464Y-5450000D01*
X59788464Y-4550000D01*
X59758894Y-4401341D01*
X59674686Y-4275314D01*
X59548659Y-4191106D01*
X59400000Y-4161536D01*
X58200000Y-4161536D01*
X58051341Y-4191106D01*
X57925314Y-4275314D01*
X57843931Y-4397113D01*
X57655351Y-4319000D01*
X57344649Y-4319000D01*
X57057599Y-4437900D01*
X56837900Y-4657599D01*
X56719000Y-4944649D01*
X56719000Y-5255351D01*
X56807496Y-5469000D01*
X50819947Y-5469000D01*
X50231000Y-4880053D01*
X50231000Y-4431000D01*
X50562476Y-4431000D01*
X50600000Y-4438464D01*
X50885234Y-4438464D01*
X50900000Y-4441401D01*
X50914766Y-4438464D01*
X51800000Y-4438464D01*
X51948659Y-4408894D01*
X52074686Y-4324686D01*
X52158894Y-4198659D01*
X52188464Y-4050000D01*
X52188464Y-3150000D01*
X52411536Y-3150000D01*
X52411536Y-4050000D01*
X52441106Y-4198659D01*
X52525314Y-4324686D01*
X52651341Y-4408894D01*
X52800000Y-4438464D01*
X54000000Y-4438464D01*
X54148659Y-4408894D01*
X54274686Y-4324686D01*
X54292910Y-4297411D01*
X54357599Y-4362100D01*
X54644649Y-4481000D01*
X54955351Y-4481000D01*
X55242401Y-4362100D01*
X55462100Y-4142401D01*
X55581000Y-3855351D01*
X55581000Y-3544649D01*
X55462100Y-3257599D01*
X55242401Y-3037900D01*
X54955351Y-2919000D01*
X54644649Y-2919000D01*
X54365514Y-3034622D01*
X54358894Y-3001341D01*
X54274686Y-2875314D01*
X54148659Y-2791106D01*
X54000000Y-2761536D01*
X52800000Y-2761536D01*
X52651341Y-2791106D01*
X52525314Y-2875314D01*
X52441106Y-3001341D01*
X52411536Y-3150000D01*
X52188464Y-3150000D01*
X52158894Y-3001341D01*
X52074686Y-2875314D01*
X51948659Y-2791106D01*
X51800000Y-2761536D01*
X50600000Y-2761536D01*
X50451341Y-2791106D01*
X50325314Y-2875314D01*
X50241106Y-3001341D01*
X50211536Y-3150000D01*
X50211536Y-3369000D01*
X49752294Y-3369000D01*
X49700000Y-3358598D01*
X49647706Y-3369000D01*
X49272352Y-3369000D01*
X49258894Y-3301341D01*
X49174686Y-3175314D01*
X49048659Y-3091106D01*
X48900000Y-3061536D01*
X47700000Y-3061536D01*
X47551341Y-3091106D01*
X47425314Y-3175314D01*
X47341106Y-3301341D01*
X47311536Y-3450000D01*
X47311536Y-4350000D01*
X47341106Y-4498659D01*
X47425314Y-4624686D01*
X47491635Y-4669000D01*
X46908365Y-4669000D01*
X46974686Y-4624686D01*
X47058894Y-4498659D01*
X47088464Y-4350000D01*
X47088464Y-3450000D01*
X47058894Y-3301341D01*
X46974686Y-3175314D01*
X46848659Y-3091106D01*
X46700000Y-3061536D01*
X46431000Y-3061536D01*
X46431000Y-3038464D01*
X46500000Y-3038464D01*
X46648659Y-3008894D01*
X46774686Y-2924686D01*
X46858894Y-2798659D01*
X46888464Y-2650000D01*
X46888464Y-1750000D01*
X46865723Y-1635670D01*
X48651039Y-1691801D01*
G36*
X45137900Y-5857599D02*
X45019000Y-6144649D01*
X45019000Y-6455351D01*
X45084717Y-6614007D01*
X44855351Y-6519000D01*
X44544649Y-6519000D01*
X44257599Y-6637900D01*
X44037900Y-6857599D01*
X43919000Y-7144649D01*
X43919000Y-7455351D01*
X44037900Y-7742401D01*
X44257599Y-7962100D01*
X44544649Y-8081000D01*
X44609001Y-8081000D01*
X44609001Y-8306536D01*
X44490000Y-8306536D01*
X44390000Y-8326427D01*
X44290000Y-8306536D01*
X43990000Y-8306536D01*
X43890000Y-8326427D01*
X43801936Y-8308910D01*
X43649698Y-8156673D01*
X43416309Y-8060000D01*
X43373750Y-8060000D01*
X43215000Y-8218750D01*
X43215000Y-8221975D01*
X43149698Y-8156673D01*
X42916309Y-8060000D01*
X42863691Y-8060000D01*
X42767002Y-8100050D01*
X42767002Y-8060000D01*
X42671000Y-8060000D01*
X42671000Y-6279947D01*
X43219948Y-5731000D01*
X45264499Y-5731000D01*
X45137900Y-5857599D01*
X45137900Y-5857599D01*
G37*
X45137900Y-5857599D02*
X45019000Y-6144649D01*
X45019000Y-6455351D01*
X45084717Y-6614007D01*
X44855351Y-6519000D01*
X44544649Y-6519000D01*
X44257599Y-6637900D01*
X44037900Y-6857599D01*
X43919000Y-7144649D01*
X43919000Y-7455351D01*
X44037900Y-7742401D01*
X44257599Y-7962100D01*
X44544649Y-8081000D01*
X44609001Y-8081000D01*
X44609001Y-8306536D01*
X44490000Y-8306536D01*
X44390000Y-8326427D01*
X44290000Y-8306536D01*
X43990000Y-8306536D01*
X43890000Y-8326427D01*
X43801936Y-8308910D01*
X43649698Y-8156673D01*
X43416309Y-8060000D01*
X43373750Y-8060000D01*
X43215000Y-8218750D01*
X43215000Y-8221975D01*
X43149698Y-8156673D01*
X42916309Y-8060000D01*
X42863691Y-8060000D01*
X42767002Y-8100050D01*
X42767002Y-8060000D01*
X42671000Y-8060000D01*
X42671000Y-6279947D01*
X43219948Y-5731000D01*
X45264499Y-5731000D01*
X45137900Y-5857599D01*
G04 #@! TD*
M02*
