G04 #@! TF.GenerationSoftware,KiCad,Pcbnew,(5.0.0)*
G04 #@! TF.CreationDate,2020-04-07T20:47:50+09:00*
G04 #@! TF.ProjectId,rokisi_sensor,726F6B6973695F73656E736F722E6B69,rev?*
G04 #@! TF.SameCoordinates,PX4a62f80PY29020c0*
G04 #@! TF.FileFunction,Legend,Top*
G04 #@! TF.FilePolarity,Positive*
%FSLAX46Y46*%
G04 Gerber Fmt 4.6, Leading zero omitted, Abs format (unit mm)*
G04 Created by KiCad (PCBNEW (5.0.0)) date 04/07/20 20:47:50*
%MOMM*%
%LPD*%
G01*
G04 APERTURE LIST*
%ADD10C,0.120000*%
%ADD11C,0.254000*%
%ADD12R,1.200000X0.900000*%
%ADD13R,0.900000X1.200000*%
%ADD14R,0.300000X1.500000*%
%ADD15R,2.300000X3.300000*%
%ADD16C,1.350000*%
%ADD17C,0.100000*%
%ADD18C,1.350000*%
G04 APERTURE END LIST*
D10*
G04 #@! TO.C,R18*
X43600000Y-41180000D02*
X42600000Y-41180000D01*
X42600000Y-39820000D02*
X43600000Y-39820000D01*
G04 #@! TO.C,D1*
X43000000Y-1650000D02*
X43000000Y-2750000D01*
X43000000Y-2750000D02*
X45600000Y-2750000D01*
X43000000Y-1650000D02*
X45600000Y-1650000D01*
G04 #@! TO.C,D2*
X32150000Y-43900000D02*
X33250000Y-43900000D01*
X33250000Y-43900000D02*
X33250000Y-41300000D01*
X32150000Y-43900000D02*
X32150000Y-41300000D01*
G04 #@! TO.C,D3*
X60050000Y-32600000D02*
X60050000Y-30000000D01*
X61150000Y-32600000D02*
X61150000Y-30000000D01*
X60050000Y-32600000D02*
X61150000Y-32600000D01*
D11*
G04 #@! TO.C,J1*
X51190000Y-13345000D02*
X51190000Y-14645000D01*
X51190000Y-14645000D02*
X39090000Y-14645000D01*
X39090000Y-14645000D02*
X39090000Y-13345000D01*
X39590000Y-9577000D02*
X41759000Y-9577000D01*
X48521000Y-9577000D02*
X50728000Y-9577000D01*
X50728000Y-9577000D02*
X50728000Y-10014000D01*
X51190000Y-13345000D02*
X51171000Y-13345000D01*
X48409000Y-13345000D02*
X41871000Y-13345000D01*
X39109000Y-13345000D02*
X39090000Y-13345000D01*
X39590000Y-9577000D02*
X39590000Y-10014000D01*
X48950000Y-9069000D02*
G75*
G03X48950000Y-9069000I-127000J0D01*
G01*
D10*
G04 #@! TO.C,J2*
X77728293Y-60612641D02*
X79227359Y-62111707D01*
X82013360Y-56327574D02*
X77728293Y-60612641D01*
X83512426Y-57826640D02*
X79227359Y-62111707D01*
X82013360Y-56327574D02*
X83512426Y-57826640D01*
X82720467Y-55620467D02*
X83470000Y-54870934D01*
X83470000Y-54870934D02*
X84219533Y-55620467D01*
G04 #@! TO.C,J3*
X8252507Y-45301573D02*
X9002040Y-44552040D01*
X9002040Y-46051106D02*
X8252507Y-45301573D01*
X9709147Y-46758213D02*
X11208213Y-45259147D01*
X11208213Y-45259147D02*
X15493280Y-49544214D01*
X9709147Y-46758213D02*
X13994214Y-51043280D01*
X13994214Y-51043280D02*
X15493280Y-49544214D01*
G04 #@! TO.C,R1*
X38300000Y-2520000D02*
X39300000Y-2520000D01*
X39300000Y-3880000D02*
X38300000Y-3880000D01*
G04 #@! TO.C,R2*
X11900000Y-16280000D02*
X10900000Y-16280000D01*
X10900000Y-14920000D02*
X11900000Y-14920000D01*
G04 #@! TO.C,R3*
X46700000Y-3220000D02*
X47700000Y-3220000D01*
X47700000Y-4580000D02*
X46700000Y-4580000D01*
G04 #@! TO.C,R4*
X74300000Y-11680000D02*
X73300000Y-11680000D01*
X73300000Y-10320000D02*
X74300000Y-10320000D01*
G04 #@! TO.C,R8*
X33720000Y-42600000D02*
X33720000Y-41600000D01*
X35080000Y-41600000D02*
X35080000Y-42600000D01*
G04 #@! TO.C,R9*
X51800000Y-2920000D02*
X52800000Y-2920000D01*
X52800000Y-4280000D02*
X51800000Y-4280000D01*
G04 #@! TO.C,R10*
X19200000Y-11180000D02*
X18200000Y-11180000D01*
X18200000Y-9820000D02*
X19200000Y-9820000D01*
G04 #@! TO.C,R11*
X79900000Y-15620000D02*
X80900000Y-15620000D01*
X80900000Y-16980000D02*
X79900000Y-16980000D01*
G04 #@! TO.C,R12*
X58220000Y-31300000D02*
X58220000Y-30300000D01*
X59580000Y-30300000D02*
X59580000Y-31300000D01*
G04 #@! TO.C,R16*
X59400000Y-4320000D02*
X60400000Y-4320000D01*
X60400000Y-5680000D02*
X59400000Y-5680000D01*
G04 #@! TO.C,R17*
X27000000Y-7580000D02*
X26000000Y-7580000D01*
X26000000Y-6220000D02*
X27000000Y-6220000D01*
G04 #@! TO.C,R22*
X57500000Y-41080000D02*
X56500000Y-41080000D01*
X56500000Y-39720000D02*
X57500000Y-39720000D01*
G04 #@! TO.C,R23*
X66400000Y-6720000D02*
X67400000Y-6720000D01*
X67400000Y-8080000D02*
X66400000Y-8080000D01*
G04 #@! TO.C,R24*
X46800000Y-28520000D02*
X47800000Y-28520000D01*
X47800000Y-29880000D02*
X46800000Y-29880000D01*
G04 #@! TO.C,R25*
X32800000Y-3920000D02*
X33800000Y-3920000D01*
X33800000Y-5280000D02*
X32800000Y-5280000D01*
G04 #@! TO.C,R29*
X49200000Y-30420000D02*
X50200000Y-30420000D01*
X50200000Y-31780000D02*
X49200000Y-31780000D01*
G04 #@! TD*
%LPC*%
D12*
G04 #@! TO.C,R18*
X42000000Y-40500000D03*
X44200000Y-40500000D03*
G04 #@! TD*
G04 #@! TO.C,D1*
X43700000Y-2200000D03*
X45900000Y-2200000D03*
G04 #@! TD*
D13*
G04 #@! TO.C,D2*
X32700000Y-43200000D03*
X32700000Y-41000000D03*
G04 #@! TD*
G04 #@! TO.C,D3*
X60600000Y-29700000D03*
X60600000Y-31900000D03*
G04 #@! TD*
D14*
G04 #@! TO.C,J1*
X48140000Y-9445000D03*
X47640000Y-9445000D03*
X47140000Y-9445000D03*
X46640000Y-9445000D03*
X46140000Y-9445000D03*
X45640000Y-9445000D03*
D15*
X40490000Y-11895000D03*
X49790000Y-11895000D03*
D14*
X45140000Y-9445000D03*
X44140000Y-9445000D03*
X43640000Y-9445000D03*
X44640000Y-9445000D03*
X43140000Y-9445000D03*
X42640000Y-9445000D03*
X42140000Y-9445000D03*
G04 #@! TD*
D16*
G04 #@! TO.C,J2*
X83470000Y-56370000D03*
D17*
G36*
X82515406Y-56370000D02*
X83470000Y-55415406D01*
X84424594Y-56370000D01*
X83470000Y-57324594D01*
X82515406Y-56370000D01*
X82515406Y-56370000D01*
G37*
D16*
X82055786Y-57784214D03*
D18*
X82055786Y-57784214D02*
X82055786Y-57784214D01*
D16*
X80641573Y-59198427D03*
D18*
X80641573Y-59198427D02*
X80641573Y-59198427D01*
D16*
X79227359Y-60612641D03*
D18*
X79227359Y-60612641D02*
X79227359Y-60612641D01*
G04 #@! TD*
D16*
G04 #@! TO.C,J3*
X13994214Y-49544214D03*
D18*
X13994214Y-49544214D02*
X13994214Y-49544214D01*
D16*
X12580000Y-48130000D03*
D18*
X12580000Y-48130000D02*
X12580000Y-48130000D01*
D16*
X11165787Y-46715787D03*
D18*
X11165787Y-46715787D02*
X11165787Y-46715787D01*
D16*
X9751573Y-45301573D03*
D17*
G36*
X9751573Y-46256167D02*
X8796979Y-45301573D01*
X9751573Y-44346979D01*
X10706167Y-45301573D01*
X9751573Y-46256167D01*
X9751573Y-46256167D01*
G37*
G04 #@! TD*
D12*
G04 #@! TO.C,R1*
X39900000Y-3200000D03*
X37700000Y-3200000D03*
G04 #@! TD*
G04 #@! TO.C,R2*
X10300000Y-15600000D03*
X12500000Y-15600000D03*
G04 #@! TD*
G04 #@! TO.C,R3*
X48300000Y-3900000D03*
X46100000Y-3900000D03*
G04 #@! TD*
G04 #@! TO.C,R4*
X72700000Y-11000000D03*
X74900000Y-11000000D03*
G04 #@! TD*
D13*
G04 #@! TO.C,R8*
X34400000Y-41000000D03*
X34400000Y-43200000D03*
G04 #@! TD*
D12*
G04 #@! TO.C,R9*
X53400000Y-3600000D03*
X51200000Y-3600000D03*
G04 #@! TD*
G04 #@! TO.C,R10*
X17600000Y-10500000D03*
X19800000Y-10500000D03*
G04 #@! TD*
G04 #@! TO.C,R11*
X81500000Y-16300000D03*
X79300000Y-16300000D03*
G04 #@! TD*
D13*
G04 #@! TO.C,R12*
X58900000Y-29700000D03*
X58900000Y-31900000D03*
G04 #@! TD*
D12*
G04 #@! TO.C,R16*
X61000000Y-5000000D03*
X58800000Y-5000000D03*
G04 #@! TD*
G04 #@! TO.C,R17*
X25400000Y-6900000D03*
X27600000Y-6900000D03*
G04 #@! TD*
G04 #@! TO.C,R22*
X55900000Y-40400000D03*
X58100000Y-40400000D03*
G04 #@! TD*
G04 #@! TO.C,R23*
X68000000Y-7400000D03*
X65800000Y-7400000D03*
G04 #@! TD*
G04 #@! TO.C,R24*
X48400000Y-29200000D03*
X46200000Y-29200000D03*
G04 #@! TD*
G04 #@! TO.C,R25*
X34400000Y-4600000D03*
X32200000Y-4600000D03*
G04 #@! TD*
G04 #@! TO.C,R29*
X50800000Y-31100000D03*
X48600000Y-31100000D03*
G04 #@! TD*
M02*
