M48
;DRILL file {KiCad (5.0.0)} date 04/07/20 20:47:52
;FORMAT={-:-/ absolute / metric / decimal}
FMAT,2
METRIC,TZ
T1C0.400
T2C0.800
%
G90
G05
M71
T1
X1.8Y-23.3
X4.6Y-20.1
X5.7Y-23.3
X7.1Y-22.2
X8.Y-16.5
X10.6Y-16.7
X13.4Y-12.3
X14.Y-15.3
X15.Y-19.6
X16.7Y-10.7
X17.Y-18.9
X18.3Y-9.
X21.3Y-11.6
X21.6Y-15.
X22.6Y-6.9
X24.4Y-7.
X27.8Y-8.2
X28.4Y-12.1
X29.3Y-4.4
X30.8Y-4.9
X34.4Y-44.3
X35.3Y-5.9
X35.7Y-2.8
X36.3Y-12.6
X36.4Y-15.9
X38.Y-33.2
X39.Y-17.1
X40.4Y-40.4
X41.2Y-2.1
X41.2Y-3.4
X42.6Y-13.6
X42.9Y-11.6
X42.9Y-12.6
X42.9Y-17.
X43.3Y-6.4
X43.5Y-3.6
X44.7Y-7.3
X44.8Y-29.2
X45.5Y-14.4
X45.6Y-11.
X45.8Y-6.3
X46.87Y-6.47
X47.1Y-17.
X47.5Y-2.3
X47.8Y-11.
X48.Y-43.9
X49.1Y-33.3
X49.8Y-14.5
X51.2Y-17.1
X51.8Y-11.6
X52.3Y-2.4
X52.4Y-30.5
X54.1Y-40.3
X54.6Y-11.6
X54.6Y-14.2
X54.6Y-17.1
X54.8Y-3.7
X57.Y-11.6
X57.5Y-5.1
X59.7Y-3.9
X62.4Y-5.3
X62.6Y-10.7
X64.2Y-5.4
X64.5Y-7.
X68.5Y-15.8
X69.3Y-7.9
X69.6Y-13.2
X71.Y-17.
X72.8Y-9.4
X76.Y-11.5
X76.7Y-17.3
X78.1Y-19.5
X79.1Y-13.5
X82.6Y-16.7
X83.8Y-22.2
X84.2Y-17.9
X89.1Y-23.2
T2
X9.752Y-45.302
X11.166Y-46.716
X12.58Y-48.13
X13.994Y-49.544
X79.227Y-60.613
X80.642Y-59.198
X82.056Y-57.784
X83.47Y-56.37
T0
M30
