G04 #@! TF.GenerationSoftware,KiCad,Pcbnew,(5.0.0)*
G04 #@! TF.CreationDate,2020-04-07T20:47:50+09:00*
G04 #@! TF.ProjectId,rokisi_sensor,726F6B6973695F73656E736F722E6B69,rev?*
G04 #@! TF.SameCoordinates,PX4a62f80PY29020c0*
G04 #@! TF.FileFunction,Legend,Bot*
G04 #@! TF.FilePolarity,Positive*
%FSLAX46Y46*%
G04 Gerber Fmt 4.6, Leading zero omitted, Abs format (unit mm)*
G04 Created by KiCad (PCBNEW (5.0.0)) date 04/07/20 20:47:50*
%MOMM*%
%LPD*%
G01*
G04 APERTURE LIST*
%ADD10C,0.120000*%
%ADD11C,0.150000*%
%ADD12C,1.350000*%
%ADD13C,0.100000*%
%ADD14C,1.350000*%
%ADD15R,0.900000X1.200000*%
%ADD16C,0.900000*%
%ADD17R,1.300000X1.400000*%
G04 APERTURE END LIST*
D10*
G04 #@! TO.C,R5*
X41220000Y-7500000D02*
X41220000Y-8500000D01*
X42580000Y-8500000D02*
X42580000Y-7500000D01*
G04 #@! TO.C,R6*
X14180000Y-19900000D02*
X14180000Y-18900000D01*
X12820000Y-18900000D02*
X12820000Y-19900000D01*
G04 #@! TO.C,R7*
X76920000Y-15300000D02*
X76920000Y-16300000D01*
X78280000Y-16300000D02*
X78280000Y-15300000D01*
G04 #@! TO.C,R13*
X55420000Y-7500000D02*
X55420000Y-8500000D01*
X56780000Y-8500000D02*
X56780000Y-7500000D01*
G04 #@! TO.C,R14*
X19620000Y-13900000D02*
X19620000Y-14900000D01*
X20980000Y-14900000D02*
X20980000Y-13900000D01*
G04 #@! TO.C,R15*
X85580000Y-21500000D02*
X85580000Y-20500000D01*
X84220000Y-20500000D02*
X84220000Y-21500000D01*
G04 #@! TO.C,R19*
X78372721Y-54965614D02*
X77665614Y-55672721D01*
X78627279Y-56634386D02*
X79334386Y-55927279D01*
G04 #@! TO.C,R20*
X62720000Y-8900000D02*
X62720000Y-9900000D01*
X64080000Y-9900000D02*
X64080000Y-8900000D01*
G04 #@! TO.C,R21*
X26420000Y-11500000D02*
X26420000Y-12500000D01*
X27780000Y-12500000D02*
X27780000Y-11500000D01*
G04 #@! TO.C,R26*
X15234386Y-44472721D02*
X14527279Y-43765614D01*
X13565614Y-44727279D02*
X14272721Y-45434386D01*
G04 #@! TO.C,R27*
X69820000Y-11400000D02*
X69820000Y-12400000D01*
X71180000Y-12400000D02*
X71180000Y-11400000D01*
G04 #@! TO.C,R28*
X33620000Y-9100000D02*
X33620000Y-10100000D01*
X34980000Y-10100000D02*
X34980000Y-9100000D01*
D11*
G04 #@! TO.C,U1*
X38600000Y-6700000D02*
X38400000Y-6700000D01*
X38600000Y-6800000D02*
X38400000Y-6800000D01*
X38700000Y-6900000D02*
X38200000Y-6900000D01*
X38800000Y-7000000D02*
X38100000Y-7000000D01*
X38900000Y-7100000D02*
X38500000Y-6600000D01*
X38500000Y-6600000D02*
X38000000Y-7100000D01*
X40200000Y-7100000D02*
X36700000Y-7100000D01*
X40200000Y-4100000D02*
X36700000Y-4100000D01*
X40200000Y-10100000D02*
X36700000Y-10100000D01*
G04 #@! TO.C,U2*
X10100000Y-19800000D02*
X9900000Y-19800000D01*
X10100000Y-19900000D02*
X9900000Y-19900000D01*
X10200000Y-20000000D02*
X9700000Y-20000000D01*
X10300000Y-20100000D02*
X9600000Y-20100000D01*
X10400000Y-20200000D02*
X10000000Y-19700000D01*
X10000000Y-19700000D02*
X9500000Y-20200000D01*
X11700000Y-20200000D02*
X8200000Y-20200000D01*
X11700000Y-17200000D02*
X8200000Y-17200000D01*
X11700000Y-23200000D02*
X8200000Y-23200000D01*
G04 #@! TO.C,U3*
X74100000Y-14500000D02*
X73900000Y-14500000D01*
X74100000Y-14600000D02*
X73900000Y-14600000D01*
X74200000Y-14700000D02*
X73700000Y-14700000D01*
X74300000Y-14800000D02*
X73600000Y-14800000D01*
X74400000Y-14900000D02*
X74000000Y-14400000D01*
X74000000Y-14400000D02*
X73500000Y-14900000D01*
X75700000Y-14900000D02*
X72200000Y-14900000D01*
X75700000Y-11900000D02*
X72200000Y-11900000D01*
X75700000Y-17900000D02*
X72200000Y-17900000D01*
G04 #@! TO.C,U4*
X54200000Y-10100000D02*
X50700000Y-10100000D01*
X54200000Y-4100000D02*
X50700000Y-4100000D01*
X54200000Y-7100000D02*
X50700000Y-7100000D01*
X52500000Y-6600000D02*
X52000000Y-7100000D01*
X52900000Y-7100000D02*
X52500000Y-6600000D01*
X52800000Y-7000000D02*
X52100000Y-7000000D01*
X52700000Y-6900000D02*
X52200000Y-6900000D01*
X52600000Y-6800000D02*
X52400000Y-6800000D01*
X52600000Y-6700000D02*
X52400000Y-6700000D01*
G04 #@! TO.C,U5*
X18700000Y-17900000D02*
X15200000Y-17900000D01*
X18700000Y-11900000D02*
X15200000Y-11900000D01*
X18700000Y-14900000D02*
X15200000Y-14900000D01*
X17000000Y-14400000D02*
X16500000Y-14900000D01*
X17400000Y-14900000D02*
X17000000Y-14400000D01*
X17300000Y-14800000D02*
X16600000Y-14800000D01*
X17200000Y-14700000D02*
X16700000Y-14700000D01*
X17100000Y-14600000D02*
X16900000Y-14600000D01*
X17100000Y-14500000D02*
X16900000Y-14500000D01*
G04 #@! TO.C,U6*
X82700000Y-23200000D02*
X79200000Y-23200000D01*
X82700000Y-17200000D02*
X79200000Y-17200000D01*
X82700000Y-20200000D02*
X79200000Y-20200000D01*
X81000000Y-19700000D02*
X80500000Y-20200000D01*
X81400000Y-20200000D02*
X81000000Y-19700000D01*
X81300000Y-20100000D02*
X80600000Y-20100000D01*
X81200000Y-20000000D02*
X80700000Y-20000000D01*
X81100000Y-19900000D02*
X80900000Y-19900000D01*
X81100000Y-19800000D02*
X80900000Y-19800000D01*
G04 #@! TO.C,U7*
X61700000Y-11700000D02*
X58200000Y-11700000D01*
X61700000Y-5700000D02*
X58200000Y-5700000D01*
X61700000Y-8700000D02*
X58200000Y-8700000D01*
X60000000Y-8200000D02*
X59500000Y-8700000D01*
X60400000Y-8700000D02*
X60000000Y-8200000D01*
X60300000Y-8600000D02*
X59600000Y-8600000D01*
X60200000Y-8500000D02*
X59700000Y-8500000D01*
X60100000Y-8400000D02*
X59900000Y-8400000D01*
X60100000Y-8300000D02*
X59900000Y-8300000D01*
G04 #@! TO.C,U8*
X24000000Y-10800000D02*
X23800000Y-10800000D01*
X24000000Y-10900000D02*
X23800000Y-10900000D01*
X24100000Y-11000000D02*
X23600000Y-11000000D01*
X24200000Y-11100000D02*
X23500000Y-11100000D01*
X24300000Y-11200000D02*
X23900000Y-10700000D01*
X23900000Y-10700000D02*
X23400000Y-11200000D01*
X25600000Y-11200000D02*
X22100000Y-11200000D01*
X25600000Y-8200000D02*
X22100000Y-8200000D01*
X25600000Y-14200000D02*
X22100000Y-14200000D01*
G04 #@! TO.C,U9*
X39140000Y-45200000D02*
X35640000Y-45200000D01*
X39140000Y-39200000D02*
X35640000Y-39200000D01*
X39140000Y-42200000D02*
X35640000Y-42200000D01*
X37440000Y-41700000D02*
X36940000Y-42200000D01*
X37840000Y-42200000D02*
X37440000Y-41700000D01*
X37740000Y-42100000D02*
X37040000Y-42100000D01*
X37640000Y-42000000D02*
X37140000Y-42000000D01*
X37540000Y-41900000D02*
X37340000Y-41900000D01*
X37540000Y-41800000D02*
X37340000Y-41800000D01*
G04 #@! TO.C,U10*
X51500000Y-41800000D02*
X51300000Y-41800000D01*
X51500000Y-41900000D02*
X51300000Y-41900000D01*
X51600000Y-42000000D02*
X51100000Y-42000000D01*
X51700000Y-42100000D02*
X51000000Y-42100000D01*
X51800000Y-42200000D02*
X51400000Y-41700000D01*
X51400000Y-41700000D02*
X50900000Y-42200000D01*
X53100000Y-42200000D02*
X49600000Y-42200000D01*
X53100000Y-39200000D02*
X49600000Y-39200000D01*
X53100000Y-45200000D02*
X49600000Y-45200000D01*
G04 #@! TO.C,U11*
X67100000Y-10800000D02*
X66900000Y-10800000D01*
X67100000Y-10900000D02*
X66900000Y-10900000D01*
X67200000Y-11000000D02*
X66700000Y-11000000D01*
X67300000Y-11100000D02*
X66600000Y-11100000D01*
X67400000Y-11200000D02*
X67000000Y-10700000D01*
X67000000Y-10700000D02*
X66500000Y-11200000D01*
X68700000Y-11200000D02*
X65200000Y-11200000D01*
X68700000Y-8200000D02*
X65200000Y-8200000D01*
X68700000Y-14200000D02*
X65200000Y-14200000D01*
G04 #@! TO.C,U12*
X42000000Y-30800000D02*
X41800000Y-30800000D01*
X42000000Y-30900000D02*
X41800000Y-30900000D01*
X42100000Y-31000000D02*
X41600000Y-31000000D01*
X42200000Y-31100000D02*
X41500000Y-31100000D01*
X42300000Y-31200000D02*
X41900000Y-30700000D01*
X41900000Y-30700000D02*
X41400000Y-31200000D01*
X43600000Y-31200000D02*
X40100000Y-31200000D01*
X43600000Y-28200000D02*
X40100000Y-28200000D01*
X43600000Y-34200000D02*
X40100000Y-34200000D01*
G04 #@! TO.C,U13*
X32700000Y-11700000D02*
X29200000Y-11700000D01*
X32700000Y-5700000D02*
X29200000Y-5700000D01*
X32700000Y-8700000D02*
X29200000Y-8700000D01*
X31000000Y-8200000D02*
X30500000Y-8700000D01*
X31400000Y-8700000D02*
X31000000Y-8200000D01*
X31300000Y-8600000D02*
X30600000Y-8600000D01*
X31200000Y-8500000D02*
X30700000Y-8500000D01*
X31100000Y-8400000D02*
X30900000Y-8400000D01*
X31100000Y-8300000D02*
X30900000Y-8300000D01*
G04 #@! TO.C,U14*
X57600000Y-34200000D02*
X54100000Y-34200000D01*
X57600000Y-28200000D02*
X54100000Y-28200000D01*
X57600000Y-31200000D02*
X54100000Y-31200000D01*
X55900000Y-30700000D02*
X55400000Y-31200000D01*
X56300000Y-31200000D02*
X55900000Y-30700000D01*
X56200000Y-31100000D02*
X55500000Y-31100000D01*
X56100000Y-31000000D02*
X55600000Y-31000000D01*
X56000000Y-30900000D02*
X55800000Y-30900000D01*
X56000000Y-30800000D02*
X55800000Y-30800000D01*
G04 #@! TD*
%LPC*%
D12*
G04 #@! TO.C,J2*
X83470000Y-56370000D03*
D13*
G36*
X82515406Y-56370000D02*
X83470000Y-55415406D01*
X84424594Y-56370000D01*
X83470000Y-57324594D01*
X82515406Y-56370000D01*
X82515406Y-56370000D01*
G37*
D12*
X82055786Y-57784214D03*
D14*
X82055786Y-57784214D02*
X82055786Y-57784214D01*
D12*
X80641573Y-59198427D03*
D14*
X80641573Y-59198427D02*
X80641573Y-59198427D01*
D12*
X79227359Y-60612641D03*
D14*
X79227359Y-60612641D02*
X79227359Y-60612641D01*
G04 #@! TD*
D12*
G04 #@! TO.C,J3*
X13994214Y-49544214D03*
D14*
X13994214Y-49544214D02*
X13994214Y-49544214D01*
D12*
X12580000Y-48130000D03*
D14*
X12580000Y-48130000D02*
X12580000Y-48130000D01*
D12*
X11165787Y-46715787D03*
D14*
X11165787Y-46715787D02*
X11165787Y-46715787D01*
D12*
X9751573Y-45301573D03*
D13*
G36*
X9751573Y-46256167D02*
X8796979Y-45301573D01*
X9751573Y-44346979D01*
X10706167Y-45301573D01*
X9751573Y-46256167D01*
X9751573Y-46256167D01*
G37*
G04 #@! TD*
D15*
G04 #@! TO.C,R5*
X41900000Y-9100000D03*
X41900000Y-6900000D03*
G04 #@! TD*
G04 #@! TO.C,R6*
X13500000Y-18300000D03*
X13500000Y-20500000D03*
G04 #@! TD*
G04 #@! TO.C,R7*
X77600000Y-16900000D03*
X77600000Y-14700000D03*
G04 #@! TD*
G04 #@! TO.C,R13*
X56100000Y-9100000D03*
X56100000Y-6900000D03*
G04 #@! TD*
G04 #@! TO.C,R14*
X20300000Y-15500000D03*
X20300000Y-13300000D03*
G04 #@! TD*
G04 #@! TO.C,R15*
X84900000Y-19900000D03*
X84900000Y-22100000D03*
G04 #@! TD*
D16*
G04 #@! TO.C,R19*
X77722183Y-56577817D03*
D13*
G36*
X77616117Y-57320279D02*
X76979721Y-56683883D01*
X77828249Y-55835355D01*
X78464645Y-56471751D01*
X77616117Y-57320279D01*
X77616117Y-57320279D01*
G37*
D16*
X79277817Y-55022183D03*
D13*
G36*
X79171751Y-55764645D02*
X78535355Y-55128249D01*
X79383883Y-54279721D01*
X80020279Y-54916117D01*
X79171751Y-55764645D01*
X79171751Y-55764645D01*
G37*
G04 #@! TD*
D15*
G04 #@! TO.C,R20*
X63400000Y-10500000D03*
X63400000Y-8300000D03*
G04 #@! TD*
G04 #@! TO.C,R21*
X27100000Y-13100000D03*
X27100000Y-10900000D03*
G04 #@! TD*
D16*
G04 #@! TO.C,R26*
X13622183Y-43822183D03*
D13*
G36*
X14364645Y-43928249D02*
X13728249Y-44564645D01*
X12879721Y-43716117D01*
X13516117Y-43079721D01*
X14364645Y-43928249D01*
X14364645Y-43928249D01*
G37*
D16*
X15177817Y-45377817D03*
D13*
G36*
X15920279Y-45483883D02*
X15283883Y-46120279D01*
X14435355Y-45271751D01*
X15071751Y-44635355D01*
X15920279Y-45483883D01*
X15920279Y-45483883D01*
G37*
G04 #@! TD*
D15*
G04 #@! TO.C,R27*
X70500000Y-13000000D03*
X70500000Y-10800000D03*
G04 #@! TD*
G04 #@! TO.C,R28*
X34300000Y-10700000D03*
X34300000Y-8500000D03*
G04 #@! TD*
D17*
G04 #@! TO.C,U1*
X37000000Y-9100000D03*
X37000000Y-5100000D03*
X40000000Y-5100000D03*
X40000000Y-9100000D03*
G04 #@! TD*
G04 #@! TO.C,U2*
X8500000Y-22200000D03*
X8500000Y-18200000D03*
X11500000Y-18200000D03*
X11500000Y-22200000D03*
G04 #@! TD*
G04 #@! TO.C,U3*
X72500000Y-16900000D03*
X72500000Y-12900000D03*
X75500000Y-12900000D03*
X75500000Y-16900000D03*
G04 #@! TD*
G04 #@! TO.C,U4*
X54000000Y-9100000D03*
X54000000Y-5100000D03*
X51000000Y-5100000D03*
X51000000Y-9100000D03*
G04 #@! TD*
G04 #@! TO.C,U5*
X18500000Y-16900000D03*
X18500000Y-12900000D03*
X15500000Y-12900000D03*
X15500000Y-16900000D03*
G04 #@! TD*
G04 #@! TO.C,U6*
X82500000Y-22200000D03*
X82500000Y-18200000D03*
X79500000Y-18200000D03*
X79500000Y-22200000D03*
G04 #@! TD*
G04 #@! TO.C,U7*
X61500000Y-10700000D03*
X61500000Y-6700000D03*
X58500000Y-6700000D03*
X58500000Y-10700000D03*
G04 #@! TD*
G04 #@! TO.C,U8*
X22400000Y-13200000D03*
X22400000Y-9200000D03*
X25400000Y-9200000D03*
X25400000Y-13200000D03*
G04 #@! TD*
G04 #@! TO.C,U9*
X38940000Y-44200000D03*
X38940000Y-40200000D03*
X35940000Y-40200000D03*
X35940000Y-44200000D03*
G04 #@! TD*
G04 #@! TO.C,U10*
X49900000Y-44200000D03*
X49900000Y-40200000D03*
X52900000Y-40200000D03*
X52900000Y-44200000D03*
G04 #@! TD*
G04 #@! TO.C,U11*
X65500000Y-13200000D03*
X65500000Y-9200000D03*
X68500000Y-9200000D03*
X68500000Y-13200000D03*
G04 #@! TD*
G04 #@! TO.C,U12*
X40400000Y-33200000D03*
X40400000Y-29200000D03*
X43400000Y-29200000D03*
X43400000Y-33200000D03*
G04 #@! TD*
G04 #@! TO.C,U13*
X32500000Y-10700000D03*
X32500000Y-6700000D03*
X29500000Y-6700000D03*
X29500000Y-10700000D03*
G04 #@! TD*
G04 #@! TO.C,U14*
X57400000Y-33200000D03*
X57400000Y-29200000D03*
X54400000Y-29200000D03*
X54400000Y-33200000D03*
G04 #@! TD*
M02*
