G04 #@! TF.GenerationSoftware,KiCad,Pcbnew,(5.0.0)*
G04 #@! TF.CreationDate,2020-04-07T20:47:50+09:00*
G04 #@! TF.ProjectId,rokisi_sensor,726F6B6973695F73656E736F722E6B69,rev?*
G04 #@! TF.SameCoordinates,PX4a62f80PY29020c0*
G04 #@! TF.FileFunction,Soldermask,Top*
G04 #@! TF.FilePolarity,Negative*
%FSLAX46Y46*%
G04 Gerber Fmt 4.6, Leading zero omitted, Abs format (unit mm)*
G04 Created by KiCad (PCBNEW (5.0.0)) date 04/07/20 20:47:50*
%MOMM*%
%LPD*%
G01*
G04 APERTURE LIST*
%ADD10R,1.200000X0.900000*%
%ADD11R,0.900000X1.200000*%
%ADD12R,0.300000X1.500000*%
%ADD13R,2.300000X3.300000*%
%ADD14C,1.350000*%
%ADD15C,0.100000*%
%ADD16C,1.350000*%
G04 APERTURE END LIST*
D10*
G04 #@! TO.C,R18*
X42000000Y-40500000D03*
X44200000Y-40500000D03*
G04 #@! TD*
G04 #@! TO.C,D1*
X43700000Y-2200000D03*
X45900000Y-2200000D03*
G04 #@! TD*
D11*
G04 #@! TO.C,D2*
X32700000Y-43200000D03*
X32700000Y-41000000D03*
G04 #@! TD*
G04 #@! TO.C,D3*
X60600000Y-29700000D03*
X60600000Y-31900000D03*
G04 #@! TD*
D12*
G04 #@! TO.C,J1*
X48140000Y-9445000D03*
X47640000Y-9445000D03*
X47140000Y-9445000D03*
X46640000Y-9445000D03*
X46140000Y-9445000D03*
X45640000Y-9445000D03*
D13*
X40490000Y-11895000D03*
X49790000Y-11895000D03*
D12*
X45140000Y-9445000D03*
X44140000Y-9445000D03*
X43640000Y-9445000D03*
X44640000Y-9445000D03*
X43140000Y-9445000D03*
X42640000Y-9445000D03*
X42140000Y-9445000D03*
G04 #@! TD*
D14*
G04 #@! TO.C,J2*
X83470000Y-56370000D03*
D15*
G36*
X82515406Y-56370000D02*
X83470000Y-55415406D01*
X84424594Y-56370000D01*
X83470000Y-57324594D01*
X82515406Y-56370000D01*
X82515406Y-56370000D01*
G37*
D14*
X82055786Y-57784214D03*
D16*
X82055786Y-57784214D02*
X82055786Y-57784214D01*
D14*
X80641573Y-59198427D03*
D16*
X80641573Y-59198427D02*
X80641573Y-59198427D01*
D14*
X79227359Y-60612641D03*
D16*
X79227359Y-60612641D02*
X79227359Y-60612641D01*
G04 #@! TD*
D14*
G04 #@! TO.C,J3*
X13994214Y-49544214D03*
D16*
X13994214Y-49544214D02*
X13994214Y-49544214D01*
D14*
X12580000Y-48130000D03*
D16*
X12580000Y-48130000D02*
X12580000Y-48130000D01*
D14*
X11165787Y-46715787D03*
D16*
X11165787Y-46715787D02*
X11165787Y-46715787D01*
D14*
X9751573Y-45301573D03*
D15*
G36*
X9751573Y-46256167D02*
X8796979Y-45301573D01*
X9751573Y-44346979D01*
X10706167Y-45301573D01*
X9751573Y-46256167D01*
X9751573Y-46256167D01*
G37*
G04 #@! TD*
D10*
G04 #@! TO.C,R1*
X39900000Y-3200000D03*
X37700000Y-3200000D03*
G04 #@! TD*
G04 #@! TO.C,R2*
X10300000Y-15600000D03*
X12500000Y-15600000D03*
G04 #@! TD*
G04 #@! TO.C,R3*
X48300000Y-3900000D03*
X46100000Y-3900000D03*
G04 #@! TD*
G04 #@! TO.C,R4*
X72700000Y-11000000D03*
X74900000Y-11000000D03*
G04 #@! TD*
D11*
G04 #@! TO.C,R8*
X34400000Y-41000000D03*
X34400000Y-43200000D03*
G04 #@! TD*
D10*
G04 #@! TO.C,R9*
X53400000Y-3600000D03*
X51200000Y-3600000D03*
G04 #@! TD*
G04 #@! TO.C,R10*
X17600000Y-10500000D03*
X19800000Y-10500000D03*
G04 #@! TD*
G04 #@! TO.C,R11*
X81500000Y-16300000D03*
X79300000Y-16300000D03*
G04 #@! TD*
D11*
G04 #@! TO.C,R12*
X58900000Y-29700000D03*
X58900000Y-31900000D03*
G04 #@! TD*
D10*
G04 #@! TO.C,R16*
X61000000Y-5000000D03*
X58800000Y-5000000D03*
G04 #@! TD*
G04 #@! TO.C,R17*
X25400000Y-6900000D03*
X27600000Y-6900000D03*
G04 #@! TD*
G04 #@! TO.C,R22*
X55900000Y-40400000D03*
X58100000Y-40400000D03*
G04 #@! TD*
G04 #@! TO.C,R23*
X68000000Y-7400000D03*
X65800000Y-7400000D03*
G04 #@! TD*
G04 #@! TO.C,R24*
X48400000Y-29200000D03*
X46200000Y-29200000D03*
G04 #@! TD*
G04 #@! TO.C,R25*
X34400000Y-4600000D03*
X32200000Y-4600000D03*
G04 #@! TD*
G04 #@! TO.C,R29*
X50800000Y-31100000D03*
X48600000Y-31100000D03*
G04 #@! TD*
M02*
