G04 #@! TF.GenerationSoftware,KiCad,Pcbnew,(5.0.0)*
G04 #@! TF.CreationDate,2020-04-07T20:47:50+09:00*
G04 #@! TF.ProjectId,rokisi_sensor,726F6B6973695F73656E736F722E6B69,rev?*
G04 #@! TF.SameCoordinates,PX4a62f80PY29020c0*
G04 #@! TF.FileFunction,Soldermask,Bot*
G04 #@! TF.FilePolarity,Negative*
%FSLAX46Y46*%
G04 Gerber Fmt 4.6, Leading zero omitted, Abs format (unit mm)*
G04 Created by KiCad (PCBNEW (5.0.0)) date 04/07/20 20:47:50*
%MOMM*%
%LPD*%
G01*
G04 APERTURE LIST*
%ADD10C,1.350000*%
%ADD11C,0.100000*%
%ADD12C,1.350000*%
%ADD13R,0.900000X1.200000*%
%ADD14C,0.900000*%
%ADD15R,1.300000X1.400000*%
G04 APERTURE END LIST*
D10*
G04 #@! TO.C,J2*
X83470000Y-56370000D03*
D11*
G36*
X82515406Y-56370000D02*
X83470000Y-55415406D01*
X84424594Y-56370000D01*
X83470000Y-57324594D01*
X82515406Y-56370000D01*
X82515406Y-56370000D01*
G37*
D10*
X82055786Y-57784214D03*
D12*
X82055786Y-57784214D02*
X82055786Y-57784214D01*
D10*
X80641573Y-59198427D03*
D12*
X80641573Y-59198427D02*
X80641573Y-59198427D01*
D10*
X79227359Y-60612641D03*
D12*
X79227359Y-60612641D02*
X79227359Y-60612641D01*
G04 #@! TD*
D10*
G04 #@! TO.C,J3*
X13994214Y-49544214D03*
D12*
X13994214Y-49544214D02*
X13994214Y-49544214D01*
D10*
X12580000Y-48130000D03*
D12*
X12580000Y-48130000D02*
X12580000Y-48130000D01*
D10*
X11165787Y-46715787D03*
D12*
X11165787Y-46715787D02*
X11165787Y-46715787D01*
D10*
X9751573Y-45301573D03*
D11*
G36*
X9751573Y-46256167D02*
X8796979Y-45301573D01*
X9751573Y-44346979D01*
X10706167Y-45301573D01*
X9751573Y-46256167D01*
X9751573Y-46256167D01*
G37*
G04 #@! TD*
D13*
G04 #@! TO.C,R5*
X41900000Y-9100000D03*
X41900000Y-6900000D03*
G04 #@! TD*
G04 #@! TO.C,R6*
X13500000Y-18300000D03*
X13500000Y-20500000D03*
G04 #@! TD*
G04 #@! TO.C,R7*
X77600000Y-16900000D03*
X77600000Y-14700000D03*
G04 #@! TD*
G04 #@! TO.C,R13*
X56100000Y-9100000D03*
X56100000Y-6900000D03*
G04 #@! TD*
G04 #@! TO.C,R14*
X20300000Y-15500000D03*
X20300000Y-13300000D03*
G04 #@! TD*
G04 #@! TO.C,R15*
X84900000Y-19900000D03*
X84900000Y-22100000D03*
G04 #@! TD*
D14*
G04 #@! TO.C,R19*
X77722183Y-56577817D03*
D11*
G36*
X77616117Y-57320279D02*
X76979721Y-56683883D01*
X77828249Y-55835355D01*
X78464645Y-56471751D01*
X77616117Y-57320279D01*
X77616117Y-57320279D01*
G37*
D14*
X79277817Y-55022183D03*
D11*
G36*
X79171751Y-55764645D02*
X78535355Y-55128249D01*
X79383883Y-54279721D01*
X80020279Y-54916117D01*
X79171751Y-55764645D01*
X79171751Y-55764645D01*
G37*
G04 #@! TD*
D13*
G04 #@! TO.C,R20*
X63400000Y-10500000D03*
X63400000Y-8300000D03*
G04 #@! TD*
G04 #@! TO.C,R21*
X27100000Y-13100000D03*
X27100000Y-10900000D03*
G04 #@! TD*
D14*
G04 #@! TO.C,R26*
X13622183Y-43822183D03*
D11*
G36*
X14364645Y-43928249D02*
X13728249Y-44564645D01*
X12879721Y-43716117D01*
X13516117Y-43079721D01*
X14364645Y-43928249D01*
X14364645Y-43928249D01*
G37*
D14*
X15177817Y-45377817D03*
D11*
G36*
X15920279Y-45483883D02*
X15283883Y-46120279D01*
X14435355Y-45271751D01*
X15071751Y-44635355D01*
X15920279Y-45483883D01*
X15920279Y-45483883D01*
G37*
G04 #@! TD*
D13*
G04 #@! TO.C,R27*
X70500000Y-13000000D03*
X70500000Y-10800000D03*
G04 #@! TD*
G04 #@! TO.C,R28*
X34300000Y-10700000D03*
X34300000Y-8500000D03*
G04 #@! TD*
D15*
G04 #@! TO.C,U1*
X37000000Y-9100000D03*
X37000000Y-5100000D03*
X40000000Y-5100000D03*
X40000000Y-9100000D03*
G04 #@! TD*
G04 #@! TO.C,U2*
X8500000Y-22200000D03*
X8500000Y-18200000D03*
X11500000Y-18200000D03*
X11500000Y-22200000D03*
G04 #@! TD*
G04 #@! TO.C,U3*
X72500000Y-16900000D03*
X72500000Y-12900000D03*
X75500000Y-12900000D03*
X75500000Y-16900000D03*
G04 #@! TD*
G04 #@! TO.C,U4*
X54000000Y-9100000D03*
X54000000Y-5100000D03*
X51000000Y-5100000D03*
X51000000Y-9100000D03*
G04 #@! TD*
G04 #@! TO.C,U5*
X18500000Y-16900000D03*
X18500000Y-12900000D03*
X15500000Y-12900000D03*
X15500000Y-16900000D03*
G04 #@! TD*
G04 #@! TO.C,U6*
X82500000Y-22200000D03*
X82500000Y-18200000D03*
X79500000Y-18200000D03*
X79500000Y-22200000D03*
G04 #@! TD*
G04 #@! TO.C,U7*
X61500000Y-10700000D03*
X61500000Y-6700000D03*
X58500000Y-6700000D03*
X58500000Y-10700000D03*
G04 #@! TD*
G04 #@! TO.C,U8*
X22400000Y-13200000D03*
X22400000Y-9200000D03*
X25400000Y-9200000D03*
X25400000Y-13200000D03*
G04 #@! TD*
G04 #@! TO.C,U9*
X38940000Y-44200000D03*
X38940000Y-40200000D03*
X35940000Y-40200000D03*
X35940000Y-44200000D03*
G04 #@! TD*
G04 #@! TO.C,U10*
X49900000Y-44200000D03*
X49900000Y-40200000D03*
X52900000Y-40200000D03*
X52900000Y-44200000D03*
G04 #@! TD*
G04 #@! TO.C,U11*
X65500000Y-13200000D03*
X65500000Y-9200000D03*
X68500000Y-9200000D03*
X68500000Y-13200000D03*
G04 #@! TD*
G04 #@! TO.C,U12*
X40400000Y-33200000D03*
X40400000Y-29200000D03*
X43400000Y-29200000D03*
X43400000Y-33200000D03*
G04 #@! TD*
G04 #@! TO.C,U13*
X32500000Y-10700000D03*
X32500000Y-6700000D03*
X29500000Y-6700000D03*
X29500000Y-10700000D03*
G04 #@! TD*
G04 #@! TO.C,U14*
X57400000Y-33200000D03*
X57400000Y-29200000D03*
X54400000Y-29200000D03*
X54400000Y-33200000D03*
G04 #@! TD*
M02*
